<svg width="24" height="24" viewBox="0 0 24 24" fill="none" xmlns="http://www.w3.org/2000/svg">
<path d="M7.05653 10.0407C7.7962 11.3817 8.64871 12.6686 9.75554 13.8421C10.8659 15.0229 12.2468 16.0974 14.0342 17.0154C14.1667 17.0802 14.2921 17.0802 14.4049 17.0352C14.5751 16.9704 14.7488 16.8282 14.9189 16.6572C15.0515 16.524 15.2162 16.3116 15.3882 16.0794C16.0759 15.1705 16.9266 14.0419 18.1284 14.6071C18.1553 14.6197 18.175 14.6341 18.2018 14.6449L22.21 16.9614C22.2226 16.9686 22.2369 16.9812 22.2477 16.9884C22.776 17.3538 22.9945 17.9172 22.9999 18.5561C22.9999 19.2059 22.7617 19.9367 22.4124 20.554C21.9503 21.3694 21.2698 21.9094 20.4853 22.2658C19.7385 22.6113 18.9075 22.7967 18.1087 22.9155C16.855 23.1009 15.6801 22.9821 14.4784 22.6113C13.3035 22.246 12.1196 21.643 10.8265 20.8402L10.7316 20.779C10.1388 20.4065 9.49764 20.0087 8.869 19.5389C6.56938 17.793 4.22498 15.2713 2.69727 12.4958C1.41672 10.1667 0.718237 7.65223 1.09972 5.25654C1.31105 3.9426 1.87163 2.74745 2.84951 1.95909C3.70202 1.26792 4.85004 0.889933 6.33655 1.02313C6.5067 1.03573 6.65893 1.13472 6.73952 1.28232L9.30958 5.64892C9.68569 6.1385 9.73226 6.62447 9.52629 7.11045C9.35615 7.50823 9.01228 7.87542 8.54304 8.2174C8.40514 8.3362 8.24037 8.45679 8.06664 8.58279C7.49174 9.00217 6.83803 9.48635 7.0619 10.0551L7.05653 10.0407Z" fill="black"/>
</svg>
