<svg width="24" height="20" viewBox="0 0 24 20" fill="none" xmlns="http://www.w3.org/2000/svg">
<path d="M7.58791 19.6191C16.5348 19.6191 21.4284 12.2065 21.4284 5.77867C21.4284 5.56818 21.4284 5.35848 21.4142 5.14984C22.3662 4.46121 23.1879 3.60873 23.8409 2.6319C22.9532 3.02522 22.0114 3.28339 21.0469 3.39719C22.0625 2.78918 22.8225 1.83316 23.1855 0.706703C22.2306 1.27336 21.186 1.67273 20.0967 1.88743C18.2545 -0.0714917 15.1731 -0.166066 13.2141 1.67615C11.9507 2.86426 11.4149 4.63456 11.8069 6.32398C7.89613 6.12772 4.252 4.2805 1.78201 1.24148C0.490901 3.4641 1.15029 6.30765 3.28808 7.73495C2.51384 7.71203 1.75672 7.50313 1.08021 7.12615C1.08021 7.14617 1.08021 7.16698 1.08021 7.18779C1.08074 9.50341 2.713 11.4976 4.98277 11.9563C4.26675 12.1515 3.51516 12.1802 2.78623 12.0398C3.42349 14.0214 5.24964 15.3789 7.33079 15.4178C5.60817 16.7716 3.48039 17.5064 1.28964 17.5043C0.902654 17.5035 0.516191 17.48 0.131836 17.4339C2.3563 18.8615 4.94484 19.6186 7.58791 19.6152" fill="#1DA1F2"/>
</svg>
