<svg width="31" height="30" viewBox="0 0 31 30" fill="none" xmlns="http://www.w3.org/2000/svg">
<g id="flip 1" clip-path="url(#clip0_161_4677)">
<g id="Group">
<path id="Vector" d="M12.8633 1.30664C12.1778 1.5 11.92 1.79297 11.1641 3.26953L10.5606 4.45313H9.32426C8.64457 4.45313 7.90629 4.48242 7.67778 4.51172C6.90434 4.62305 6.22465 5.0625 5.84379 5.69531C5.48051 6.30469 5.47465 6.38672 5.49223 11.1855C5.50981 15.457 5.50981 15.5039 5.63871 15.8379C5.90825 16.5527 6.5059 17.1211 7.22661 17.3438C7.59575 17.4609 7.78911 17.4609 15.5 17.4609C23.2461 17.4609 23.4043 17.4609 23.7793 17.3438C24.4942 17.1211 25.1036 16.5352 25.3789 15.791C25.4844 15.5156 25.4903 15.2285 25.5079 11.1855C25.5196 7.52344 25.5079 6.80274 25.4375 6.44531C25.2793 5.68945 24.8282 5.10938 24.1485 4.77539C23.6036 4.50586 23.1993 4.45313 21.6758 4.45313H20.4395L19.836 3.26953C19.168 1.96289 18.9512 1.67578 18.4356 1.42383L18.1075 1.25977L15.6172 1.24805C13.7715 1.23633 13.0567 1.25391 12.8633 1.30664ZM16.4668 6.77344C17.4922 7.01367 18.459 7.77539 18.9454 8.70703C19.2442 9.29297 19.3672 9.7793 19.3672 10.4297C19.3672 11.4785 19.0274 12.293 18.2832 13.043C17.7618 13.5703 17.3926 13.7988 16.7012 14.0391C16.2852 14.1855 16.1504 14.2031 15.5 14.2031C14.8555 14.2031 14.709 14.1797 14.3106 14.0449C13.625 13.8047 13.2325 13.5586 12.7168 13.043C11.9727 12.2988 11.6329 11.4727 11.6329 10.4531C11.6329 9.41602 11.9961 8.54297 12.7168 7.82227C13.7305 6.80859 15.0606 6.43945 16.4668 6.77344Z" fill="white"/>
<path id="Vector_2" d="M2.16995 14.1736C1.89456 14.2966 1.37894 14.8474 1.09183 15.3162C0.359404 16.5349 0.30667 18.3806 0.96292 19.8279C2.1055 22.3474 5.668 24.492 10.1856 25.3709L10.5196 25.4353V26.7302C10.5196 28.1541 10.5489 28.3064 10.8887 28.5466C11.1172 28.7107 11.6094 28.7576 11.8438 28.6345C11.9375 28.5818 12.7813 27.7673 13.7246 26.824C15.2012 25.3416 15.4356 25.0779 15.4707 24.8845C15.5703 24.363 15.5703 24.363 13.7246 22.5115C12.7813 21.5681 11.9375 20.7537 11.8438 20.7009C11.6094 20.5779 11.1172 20.6248 10.8887 20.7888C10.584 21.0056 10.5196 21.2224 10.5196 22.0838C10.5196 22.74 10.5078 22.8513 10.4258 22.8513C10.25 22.8513 9.13675 22.5525 8.3223 22.283C6.04886 21.5388 4.37308 20.4959 3.53519 19.3123C3.1719 18.7908 3.01956 18.3045 3.01956 17.6716C3.01956 17.0798 3.08401 16.8455 3.34183 16.4822C3.45315 16.3298 3.61136 16.1013 3.70511 15.9724C3.9219 15.6677 3.96292 15.1228 3.793 14.7888C3.47073 14.1619 2.77347 13.8982 2.16995 14.1736Z" fill="white"/>
<path id="Vector_3" d="M27.8633 14.1559C27.5938 14.2731 27.3536 14.5075 27.2071 14.7887C27.1133 14.9704 27.0958 15.0993 27.1133 15.3746C27.1368 15.6852 27.1836 15.8082 27.4708 16.2829C27.8809 16.9625 27.9278 17.109 27.9629 17.859L27.9922 18.4625L27.7754 18.9137C27.6055 19.2594 27.4356 19.4821 27.0489 19.8688C25.4317 21.4743 22.3965 22.6813 18.6465 23.1969C17.709 23.3258 17.4864 23.4372 17.2227 23.8825C16.9356 24.3688 17.0352 25.0368 17.4454 25.4059C17.8438 25.7692 18.1954 25.7985 19.6544 25.57C21.5762 25.277 23.6036 24.7028 25.1504 24.0172C27.9747 22.7692 29.7266 21.1461 30.336 19.2184C30.4532 18.8317 30.4708 18.6735 30.4649 17.9C30.459 17.2145 30.4297 16.9215 30.336 16.5758C30.1485 15.8727 29.5508 14.7594 29.1758 14.402C28.8301 14.0739 28.2852 13.9743 27.8633 14.1559Z" fill="white"/>
</g>
</g>
<defs>
<clipPath id="clip0_161_4677">
<rect width="30" height="30" fill="white" transform="translate(0.5)"/>
</clipPath>
</defs>
</svg>
