<svg width="20" height="20" viewBox="0 0 20 20" fill="none" xmlns="http://www.w3.org/2000/svg">
<rect width="20" height="20" rx="6" fill="#EA4359"/>
<path d="M14.786 6.03003C14.5399 6.10738 14.5305 6.11441 11.3993 9.24566L8.31723 12.3253L6.9227 10.9308C5.62661 9.63941 5.51645 9.53394 5.37114 9.46597C4.99848 9.29253 4.60239 9.34644 4.30708 9.61363C4.0727 9.82456 3.95786 10.1621 4.01411 10.4668C4.0727 10.7808 4.0352 10.741 5.98051 12.6793C7.68208 14.3761 7.78755 14.4769 7.93051 14.5402C8.11333 14.6199 8.36411 14.6433 8.53286 14.5988C8.8188 14.5214 8.69692 14.6363 12.3508 10.9824C16.1336 7.19487 15.918 7.42691 15.9766 7.09175C16.0563 6.62534 15.7633 6.173 15.2922 6.03003C15.161 5.99019 14.9125 5.99019 14.786 6.03003Z" fill="white"/>
</svg>
