<svg width="20" height="20" viewBox="0 0 20 20" fill="none" xmlns="http://www.w3.org/2000/svg">
<g clip-path="url(#clip0_167_3334)">
<path d="M9.14305 0.00681114C8.65966 0.0595436 7.99171 0.173798 7.53469 0.288052C3.98841 1.17572 1.17599 3.98814 0.288322 7.53442C0.0554184 8.46604 0.00268555 8.91866 0.00268555 9.99969C0.00268555 11.0851 0.0554184 11.5333 0.292716 12.4781C1.36495 16.7539 5.16611 19.83 9.60446 20.0057C12.5004 20.12 15.2688 18.995 17.2639 16.8989C18.6921 15.4004 19.571 13.5943 19.9137 11.4718C20.028 10.7863 20.028 9.1999 19.9181 8.52756C19.5446 6.26005 18.5603 4.34409 16.9827 2.81483C15.4886 1.36468 13.7 0.463829 11.6039 0.107882C11.0942 0.0199928 9.60006 -0.0415287 9.14305 0.00681114ZM10.747 1.39105C14.2845 1.71623 17.2507 4.14194 18.2746 7.53882C18.8679 9.50312 18.7316 11.6256 17.8879 13.5152C17.4748 14.4468 16.9783 15.1763 16.2444 15.9409C15.4446 16.7715 14.7942 17.2592 13.8275 17.7382C11.7577 18.7665 9.39792 18.9203 7.20951 18.1733C5.04746 17.4306 3.24136 15.8398 2.24383 13.8008C1.58028 12.4342 1.25949 10.817 1.38253 9.39765C1.5627 7.23121 2.41961 5.37238 3.92249 3.86949C5.70223 2.08976 8.25977 1.15814 10.747 1.39105Z" fill="white"/>
<path d="M12.307 6.07542C12.1444 6.11497 8.66402 7.45966 8.41793 7.57831C8.11032 7.72332 7.72361 8.11003 7.5786 8.41764C7.51268 8.54947 7.14795 9.45911 6.76563 10.4391C6.12844 12.0782 6.07132 12.2452 6.05374 12.5572C6.03616 12.8516 6.04935 12.9263 6.15481 13.1504C6.29543 13.4624 6.48 13.6602 6.77003 13.814C6.95899 13.915 7.04688 13.9326 7.36327 13.9326H7.7368L9.5385 13.2339C10.5316 12.8516 11.4457 12.4869 11.5775 12.4253C11.8807 12.2759 12.2762 11.8804 12.4256 11.5772C12.4871 11.4454 12.8519 10.5401 13.2342 9.56018C13.8758 7.91668 13.9285 7.75408 13.9461 7.44648C13.9637 7.14766 13.9505 7.07295 13.8406 6.83565C13.6956 6.51047 13.4276 6.25999 13.0936 6.13255C12.8695 6.04906 12.5179 6.02269 12.307 6.07542ZM12.5487 7.46845C12.5487 7.47724 12.2411 8.27262 11.8675 9.235C11.3094 10.6808 11.1688 11.0059 11.059 11.0938C10.9403 11.1949 7.55223 12.5616 7.49071 12.5396C7.47313 12.5308 7.76316 11.7354 8.13669 10.7686C8.69478 9.3141 8.831 8.99331 8.94086 8.90542C9.01117 8.8439 9.83732 8.49674 10.7733 8.12761C12.452 7.47284 12.5487 7.43329 12.5487 7.46845Z" fill="white"/>
</g>
<defs>
<clipPath id="clip0_167_3334">
<rect width="20" height="20" fill="white"/>
</clipPath>
</defs>
</svg>
