<svg width="31" height="30" viewBox="0 0 31 30" fill="none" xmlns="http://www.w3.org/2000/svg">
<g id="filter">
<g id="Group">
<path id="Vector" d="M14.416 1.93941C9.89259 2.54878 6.62306 6.69136 7.11525 11.1914C7.5254 14.9296 10.2969 17.9179 14.0059 18.6093C14.791 18.7558 16.3086 18.7617 17.041 18.6152C18.7578 18.2695 20.2285 17.4902 21.4473 16.2656C22.666 15.0468 23.3926 13.705 23.7735 11.9648C23.9551 11.1445 23.9551 9.48042 23.7735 8.66011C23.3926 6.91988 22.6602 5.57222 21.4531 4.35933C20.2344 3.14644 18.9043 2.42574 17.1699 2.04488C16.5547 1.91011 15.0547 1.85152 14.416 1.93941Z" fill="white"/>
<path id="Vector_2" d="M5.08202 13.5116C3.68749 14.7831 2.76171 16.5643 2.46288 18.5448C1.9414 22.0194 3.82811 25.617 7.00389 27.2167C7.61327 27.5272 8.42186 27.8085 9.12499 27.9608C9.92772 28.1307 11.5625 28.1483 12.3594 27.9901C14.082 27.6444 15.5351 26.871 16.7598 25.6346C18.2246 24.1698 18.998 22.4764 19.2207 20.2792C19.25 19.9745 19.2441 19.91 19.1738 19.9393C18.8516 20.0624 18.043 20.2909 17.5391 20.4022C17.0117 20.5135 16.7598 20.5311 15.5586 20.537C14.0117 20.537 13.5137 20.4667 12.2891 20.0624C9.2246 19.0604 6.73436 16.5819 5.72069 13.5174C5.64452 13.3006 5.56835 13.1249 5.54491 13.1249C5.52147 13.1249 5.3164 13.3006 5.08202 13.5116Z" fill="white"/>
<path id="Vector_3" d="M25.2324 13.6639C24.5645 15.6092 23.2637 17.3787 21.6055 18.6033L21.1016 18.9783L21.1191 19.494C21.1484 20.5955 20.8965 22.1366 20.498 23.203C19.9297 24.7205 19.1094 25.9862 17.9375 27.1229C17.5742 27.4744 17.4512 27.6326 17.5039 27.6619C17.5449 27.6912 17.8555 27.7791 18.1953 27.8553C20.498 28.4061 22.8535 27.9901 24.8398 26.6776C25.543 26.2147 26.6973 25.0897 27.1133 24.4569C27.9219 23.2381 28.3496 22.1131 28.5371 20.742C28.8477 18.492 28.1914 16.201 26.7207 14.3729C26.3691 13.9334 25.5488 13.1248 25.4551 13.1248C25.4316 13.1248 25.332 13.3709 25.2324 13.6639Z" fill="white"/>
</g>
</g>
</svg>
