<svg width="31" height="30" viewBox="0 0 31 30" fill="none" xmlns="http://www.w3.org/2000/svg">
<g id="flash 1" clip-path="url(#clip0_162_4700)">
<g id="Group">
<path id="Vector" d="M1.1387 0.134851C0.751977 0.33993 0.54104 0.679773 0.511743 1.1368C0.500024 1.34188 0.517602 1.61141 0.558618 1.74032C0.617211 1.92196 3.10745 4.44149 14.4688 15.8087C22.0742 23.42 28.4082 29.7247 28.5313 29.8126C28.7188 29.9415 28.836 29.9708 29.1758 29.9884C29.5274 30.0059 29.6328 29.9884 29.8555 29.8653C30.2481 29.6602 30.459 29.3204 30.4883 28.8634C30.5 28.6583 30.4824 28.3888 30.4414 28.2599C30.3828 28.0782 29.5098 27.1759 25.918 23.5782L21.4707 19.1251L23.4102 16.3536C24.4824 14.8302 25.3906 13.4766 25.4375 13.3477C25.5664 12.9845 25.543 12.4981 25.3789 12.1583C25.2149 11.8067 24.7989 11.4141 24.4766 11.3204C24.3125 11.2677 23.252 11.2501 20.7266 11.2501H17.2051L17.2344 11.0567C17.3926 9.98446 18.3125 1.84579 18.3125 1.5411C18.3067 0.61532 17.6856 8.58307e-05 16.7656 8.58307e-05C16.3145 8.58307e-05 16.0098 0.105555 15.7051 0.363367C15.6055 0.445398 14.3809 2.21493 12.9805 4.29501L10.4317 8.08016L6.47659 4.13095C3.72854 1.38876 2.45706 0.15243 2.30471 0.0879765C1.97073 -0.0467892 1.44924 -0.029211 1.1387 0.134851Z" fill="white"/>
<path id="Vector_2" d="M6.72268 13.582C5.4512 15.4746 5.4219 15.5391 5.49807 16.1895C5.56253 16.7344 6.06057 17.3145 6.58206 17.4609C6.71682 17.4961 7.87698 17.5195 9.68753 17.5195H12.5703L12.541 17.6484C12.5293 17.7246 12.2598 20.209 11.9492 23.1738C11.3926 28.4707 11.3867 28.5703 11.4746 28.8867C11.6739 29.5781 12.2598 30 13.0098 30C13.4903 30 13.8067 29.877 14.0996 29.5781C14.211 29.4668 15.336 27.8906 16.6074 26.0801L18.916 22.7812L13.4434 17.3086C10.4317 14.2969 7.95315 11.8359 7.93557 11.8359C7.91214 11.8359 7.36721 12.6211 6.72268 13.582Z" fill="white"/>
</g>
</g>
<defs>
<clipPath id="clip0_162_4700">
<rect width="30" height="30" fill="white" transform="translate(0.5)"/>
</clipPath>
</defs>
</svg>
