<svg width="20" height="20" viewBox="0 0 20 20" fill="none" xmlns="http://www.w3.org/2000/svg">
<g clip-path="url(#clip0_167_3329)">
<path d="M9.47266 0.0546875C8.98828 0.214844 9.08203 0.125 4.65625 4.54297C2.32813 6.86719 0.367189 8.85938 0.29297 8.96875C-0.00390467 9.41016 -0.0898422 10.082 0.0781266 10.5898C0.332033 11.3438 0.933595 11.7891 1.79688 11.8594L2.10547 11.8867L2.11719 15.0742C2.12891 18.1992 2.13281 18.2656 2.21094 18.4766C2.50391 19.25 2.99219 19.7266 3.70703 19.9375C3.89063 19.9922 4.1836 20 5.79688 20C7.60156 20 7.67969 19.9961 7.80469 19.9219C7.875 19.8789 7.96485 19.7891 8.00781 19.7188C8.08203 19.5938 8.08594 19.5156 8.08594 17.1094C8.08594 15.418 8.10156 14.5781 8.12891 14.4727C8.19531 14.2383 8.37891 14 8.58594 13.8789L8.76953 13.7695H10.0039H11.2383L11.4297 13.8867C11.6445 14.0195 11.8477 14.3203 11.8906 14.5586C11.9023 14.6406 11.9141 15.8008 11.9141 17.1406C11.9141 19.7773 11.9063 19.6758 12.1289 19.8828L12.2344 19.9805L14.1133 19.9922C15.3711 20 16.0625 19.9883 16.1992 19.9609C16.7383 19.8477 17.3633 19.3711 17.6094 18.8867C17.8828 18.3398 17.8672 18.5625 17.8828 15.0547L17.8945 11.8828L18.2148 11.8555C19 11.7891 19.5156 11.4453 19.8398 10.7812C19.9766 10.4922 19.9805 10.4805 19.9805 10C19.9805 9.51562 19.9805 9.50781 19.832 9.19922C19.6836 8.88672 19.6797 8.88281 15.3984 4.60156C11.1133 0.316406 11.1133 0.316406 10.8008 0.167969C10.5039 0.0273438 10.4648 0.0195312 10.0586 0.0117188C9.78125 0.00390625 9.57422 0.0195312 9.47266 0.0546875Z" fill="#EA4359"/>
</g>
<defs>
<clipPath id="clip0_167_3329">
<rect width="20" height="20" fill="white"/>
</clipPath>
</defs>
</svg>
