<svg width="20" height="20" viewBox="0 0 20 20" fill="none" xmlns="http://www.w3.org/2000/svg">
<g clip-path="url(#clip0_167_3344)">
<path d="M8.52283 0.755894C6.09669 1.08714 3.93912 2.11221 2.359 3.6789C1.19517 4.83826 0.438675 6.20352 0.0984781 7.77469C0.00895255 8.17308 0 8.36109 0 9.2832C0 10.4649 0.049239 10.8186 0.358102 11.7049C0.823635 13.0657 1.58013 14.1802 2.78424 15.2859L3.07073 15.5455L2.59624 16.969C2.08147 18.5133 2.04566 18.7102 2.21128 18.9878C2.34557 19.2071 2.547 19.3101 2.83796 19.3101C3.06177 19.3056 3.2453 19.2295 5.00895 18.3969L6.92928 17.4927L7.35452 17.5956C8.14682 17.7836 8.64369 17.8418 9.7359 17.8642C10.5685 17.8821 10.9221 17.8732 11.3921 17.8105C13.9123 17.4972 16.0654 16.4766 17.6858 14.8293C18.6213 13.8803 19.2211 12.9314 19.624 11.7675C19.9508 10.8141 20 10.4828 20 9.2832C20 8.36556 19.991 8.17308 19.9015 7.77917C19.436 5.63951 18.1737 3.84005 16.2175 2.51507C14.9776 1.66905 13.5586 1.114 11.8935 0.818562C11.1952 0.693226 9.24799 0.657415 8.52283 0.755894ZM11.3205 2.23754C13.3975 2.48821 15.3089 3.41928 16.6831 4.85169C17.3948 5.59475 17.9096 6.41391 18.2274 7.32259C18.6616 8.54461 18.6616 10.0218 18.2274 11.2438C17.4082 13.567 15.2462 15.4023 12.5067 16.105C11.692 16.311 10.9266 16.405 10.0045 16.405C8.97046 16.405 8.28111 16.3154 7.31871 16.0603C7.05013 15.9887 6.84423 15.9573 6.75022 15.9752C6.66965 15.9887 6.04745 16.2617 5.36705 16.5795C4.69114 16.9018 4.12713 17.1614 4.11817 17.1614C4.10474 17.1614 4.2256 16.7765 4.38675 16.302C4.68666 15.4023 4.72695 15.1561 4.60609 14.9233C4.57028 14.8517 4.35094 14.6458 4.12265 14.4578C2.69472 13.3118 1.78603 11.8436 1.51298 10.2456C1.4145 9.65025 1.44136 8.52671 1.57565 7.98508C1.86661 6.79439 2.43509 5.7738 3.31692 4.85169C5.27305 2.8105 8.17816 1.86153 11.3205 2.23754Z" fill="white"/>
<path d="M5.84602 7.94491C4.93286 8.29853 4.68219 9.60113 5.38944 10.3129C6.10564 11.0246 7.41271 10.7694 7.75739 9.84285C8.04387 9.07741 7.68577 8.20901 6.97852 7.94491C6.64727 7.81957 6.17279 7.81957 5.84602 7.94491Z" fill="white"/>
<path d="M9.42707 7.94491C8.51391 8.29853 8.26324 9.60113 8.97049 10.3129C9.6867 11.0246 10.9938 10.7694 11.3384 9.84285C11.5488 9.28779 11.4235 8.65216 11.0296 8.25377C10.6312 7.85986 9.97765 7.73452 9.42707 7.94491Z" fill="white"/>
<path d="M13.0081 7.94491C12.0949 8.29853 11.8442 9.60113 12.5515 10.3129C13.2677 11.0246 14.5748 10.7694 14.9194 9.84285C15.1298 9.28779 15.0045 8.65216 14.6106 8.25377C14.2122 7.85986 13.5586 7.73452 13.0081 7.94491Z" fill="white"/>
</g>
<defs>
<clipPath id="clip0_167_3344">
<rect width="20" height="20" fill="white"/>
</clipPath>
</defs>
</svg>
