<svg width="59" height="59" viewBox="0 0 59 59" fill="none" xmlns="http://www.w3.org/2000/svg">
<g id="Instagram Logo">
<circle id="Ellipse 6" cx="29.5" cy="29.5" r="29.5" fill="url(#paint0_radial_148_5171)"/>
<path id="Shape" fill-rule="evenodd" clip-rule="evenodd" d="M29.4988 10.8368C24.4328 10.8368 23.7966 10.859 21.8062 10.9495C19.8193 11.0405 18.4631 11.3551 17.2764 11.8166C16.0489 12.2933 15.0076 12.931 13.9702 13.9687C12.9321 15.0061 12.2944 16.0473 11.8162 17.2745C11.3535 18.4615 11.0385 19.8181 10.9491 21.8042C10.8601 23.7949 10.8367 24.4314 10.8367 29.5001C10.8367 34.5687 10.8593 35.2029 10.9495 37.1936C11.0409 39.1805 11.3554 40.5367 11.8166 41.7233C12.2936 42.9508 12.9313 43.9921 13.9691 45.0294C15.0061 46.0676 16.0473 46.7068 17.2741 47.1835C18.4615 47.645 19.8181 47.9596 21.8046 48.0506C23.7954 48.1412 24.4311 48.1633 29.4994 48.1633C34.5685 48.1633 35.2027 48.1412 37.1934 48.0506C39.1803 47.9596 40.5381 47.645 41.7255 47.1835C42.9527 46.7068 43.9924 46.0676 45.0294 45.0294C46.0675 43.9921 46.7052 42.9508 47.1834 41.7237C47.6422 40.5367 47.9572 39.1801 48.0505 37.194C48.1399 35.2032 48.1633 34.5687 48.1633 29.5001C48.1633 24.4314 48.1399 23.7953 48.0505 21.8046C47.9572 19.8177 47.6422 18.4615 47.1834 17.2748C46.7052 16.0473 46.0675 15.0061 45.0294 13.9687C43.9912 12.9306 42.953 12.2929 41.7244 11.8166C40.5346 11.3551 39.1776 11.0405 37.1907 10.9495C35.2003 10.859 34.5664 10.8368 29.4988 10.8368ZM27.8275 14.2001C28.1526 14.1996 28.5023 14.1997 28.8797 14.1999C29.0792 14.2 29.2864 14.2001 29.5017 14.2001C34.4849 14.2001 35.0755 14.2179 37.0433 14.3074C38.863 14.3906 39.8506 14.6946 40.5085 14.9501C41.3795 15.2884 42.0004 15.6927 42.6533 16.3459C43.3065 16.9992 43.7109 17.6213 44.0499 18.4922C44.3054 19.1493 44.6098 20.1369 44.6926 21.9566C44.7821 23.924 44.8015 24.515 44.8015 29.4958C44.8015 34.4765 44.7821 35.0675 44.6926 37.035C44.6094 38.8546 44.3054 39.8422 44.0499 40.4993C43.7116 41.3703 43.3065 41.9904 42.6533 42.6433C42 43.2965 41.3799 43.7008 40.5085 44.0391C39.8514 44.2957 38.863 44.599 37.0433 44.6822C35.0759 44.7717 34.4849 44.7911 29.5017 44.7911C24.5182 44.7911 23.9276 44.7717 21.9602 44.6822C20.1405 44.5982 19.1529 44.2942 18.4946 44.0387C17.6236 43.7005 17.0015 43.2961 16.3483 42.6429C15.6951 41.9897 15.2907 41.3691 14.9516 40.4978C14.6962 39.8407 14.3917 38.8531 14.3089 37.0334C14.2195 35.066 14.2016 34.475 14.2016 29.4911C14.2016 24.5072 14.2195 23.9193 14.3089 21.9519C14.3921 20.1323 14.6962 19.1447 14.9516 18.4868C15.2899 17.6158 15.6951 16.9937 16.3483 16.3405C17.0015 15.6873 17.6236 15.2829 18.4946 14.9439C19.1525 14.6872 20.1405 14.384 21.9602 14.3004C23.6819 14.2226 24.3491 14.1993 27.8275 14.1954V14.2001ZM37.2245 19.5378C37.2245 18.301 38.2277 17.299 39.4641 17.299C40.7006 17.299 41.7038 18.3014 41.7038 19.5378C41.7038 20.7742 40.7006 21.7774 39.4641 21.7774C38.2277 21.7774 37.2245 20.7742 37.2245 19.5378ZM29.5015 19.9157C24.2086 19.9158 19.9173 24.2071 19.9173 29.5C19.9173 34.793 24.2087 39.0825 29.5017 39.0825C34.7948 39.0825 39.0847 34.793 39.0847 29.5C39.0847 24.2071 34.7945 19.9158 29.5015 19.9157ZM35.7229 29.5001C35.7229 26.0641 32.9374 23.279 29.5017 23.279C26.0657 23.279 23.2806 26.0641 23.2806 29.5001C23.2806 32.9357 26.0657 35.7211 29.5017 35.7211C32.9374 35.7211 35.7229 32.9357 35.7229 29.5001Z" fill="white"/>
</g>
<defs>
<radialGradient id="paint0_radial_148_5171" cx="0" cy="0" r="1" gradientUnits="userSpaceOnUse" gradientTransform="translate(18.0612 57.7959) rotate(-90) scale(55.9898)">
<stop stop-color="#FFDD55"/>
<stop offset="0.1" stop-color="#FFDD55"/>
<stop offset="0.5" stop-color="#FF543E"/>
<stop offset="1" stop-color="#C837AB"/>
</radialGradient>
</defs>
</svg>
