<svg width="59" height="59" viewBox="0 0 59 59" fill="none" xmlns="http://www.w3.org/2000/svg">
<g id="Messenger Logo">
<circle id="Ellipse 6" cx="29.5" cy="29.5" r="29.5" fill="#2D67F6"/>
<g id="Facebook_Messenger_4_Logo">
<path id="Bubble_Solid_3_" fill-rule="evenodd" clip-rule="evenodd" d="M29.5 10.0426C18.538 10.0426 10.0425 17.8133 10.0425 28.3081C10.0425 33.798 12.368 38.5415 16.1538 41.8187C16.4709 42.0953 16.6628 42.478 16.6784 42.891L16.7841 46.2402C16.8194 47.3086 17.9586 48.002 18.9687 47.5738L22.8289 45.9257C23.1577 45.7856 23.5218 45.759 23.8663 45.85C25.6398 46.3236 27.5308 46.5736 29.5 46.5736C40.4619 46.5736 48.9574 38.8029 48.9574 28.3081C48.9574 17.8133 40.4619 10.0426 29.5 10.0426Z" fill="white"/>
<path id="Bolt_4_" fill-rule="evenodd" clip-rule="evenodd" d="M17.8162 33.8369L23.5326 25.0745C24.4409 23.6822 26.3908 23.3341 27.7533 24.3216L32.299 27.6169C32.718 27.9196 33.2896 27.9158 33.7046 27.6132L39.8439 23.1109C40.6622 22.5093 41.735 23.4589 41.1829 24.2989L35.4704 33.0575C34.5621 34.4498 32.6122 34.7979 31.2497 33.8104L26.704 30.5151C26.2851 30.2124 25.7134 30.2162 25.2984 30.5188L19.1553 35.0249C18.3369 35.6265 17.2641 34.6768 17.8162 33.8369Z" fill="#2D67F6"/>
</g>
</g>
</svg>
