<svg width="24" height="24" viewBox="0 0 24 24" fill="none" xmlns="http://www.w3.org/2000/svg">
<g id="share" clip-path="url(#clip0_142_3517)">
<g id="Group">
<path id="Vector" d="M16.0922 1.96412C15.5953 2.09068 15.2297 2.52662 15.0984 3.13131C15.0703 3.27662 15.0469 3.84381 15.0469 4.47193V5.56412L14.5922 5.59693C11.7141 5.79849 8.8125 6.85787 6.49688 8.55006C5.41875 9.33756 4.21406 10.4907 3.40313 11.5079C1.25625 14.2032 0 17.6907 0 20.9485C0 21.6938 0.0515625 21.8344 0.389063 21.9844C0.829688 22.186 1.05 22.0782 1.58906 21.4079C3.37031 19.1719 5.53125 17.4516 8.03438 16.2657C10.0172 15.3282 12.3281 14.7282 14.4938 14.5876L15.0422 14.5547L15.0563 15.7735C15.075 17.1563 15.1125 17.3251 15.4688 17.7329C15.7406 18.0376 16.0453 18.1594 16.5 18.1313C17.175 18.0938 17.0906 18.1641 20.4234 14.8407C22.5 12.7641 23.4375 11.7938 23.5688 11.5876C23.8641 11.1329 23.9625 10.7954 23.9859 10.1719C24.0141 9.53912 23.9438 9.20631 23.6813 8.69537C23.5312 8.39537 23.2453 8.09537 20.4656 5.31568C17.6906 2.53599 17.3859 2.25006 17.1094 2.11412C16.7812 1.95943 16.3594 1.89381 16.0922 1.96412Z" fill="#EA4359"/>
</g>
</g>
<defs>
<clipPath id="clip0_142_3517">
<rect width="24" height="24" fill="white"/>
</clipPath>
</defs>
</svg>
