<svg width="25" height="25" viewBox="0 0 25 25" fill="none" xmlns="http://www.w3.org/2000/svg">
<g id="play-button 1" clip-path="url(#clip0_143_3779)">
<g id="Group">
<path id="Vector" d="M11.2549 24.9658C7.97851 24.6143 5.00977 23.0469 2.91992 20.5566C1.4502 18.8086 0.537109 16.8262 0.131836 14.502C0.0390625 13.9697 0.0292969 13.7109 0.0292969 12.5C0.0292969 11.2891 0.0390625 11.0303 0.131836 10.498C0.59082 7.86133 1.69434 5.67871 3.51562 3.78906C5.38574 1.8457 7.74414 0.615234 10.498 0.131836C11.0303 0.0390625 11.2891 0.0292969 12.5 0.0292969C14.0283 0.0292969 14.4873 0.078125 15.6885 0.385742C19.9951 1.49902 23.501 5.00488 24.6143 9.31152C24.9219 10.5127 24.9707 10.9717 24.9707 12.5C24.9707 14.0283 24.9219 14.4873 24.6143 15.6885C23.501 19.9902 19.9951 23.501 15.6885 24.6143C14.5801 24.8975 14.0576 24.9609 12.6953 24.9756C12.0117 24.9854 11.3623 24.9805 11.2549 24.9658ZM13.8232 15.2441C17.5684 12.8369 17.6758 12.7588 17.6758 12.5C17.6758 12.2412 17.5684 12.1631 13.8232 9.75586C10.332 7.50977 10.0684 7.34863 9.86816 7.34863C9.60449 7.35352 9.44336 7.51465 9.39941 7.82227C9.38476 7.93945 9.375 10.1221 9.38476 12.6709C9.39941 17.0557 9.4043 17.3193 9.4873 17.4463C9.59473 17.6074 9.73633 17.6758 9.93652 17.6611C10.0342 17.6514 11.3281 16.8506 13.8232 15.2441Z" fill="white"/>
</g>
</g>
<defs>
<clipPath id="clip0_143_3779">
<rect width="25" height="25" fill="white" transform="matrix(1 0 0 -1 0 25)"/>
</clipPath>
</defs>
</svg>
