<svg width="24" height="24" viewBox="0 0 24 24" fill="none" xmlns="http://www.w3.org/2000/svg">
<g id="whatsapp 1" clip-path="url(#clip0_81_4488)">
<g id="Group">
<path id="Vector" d="M11.3907 0.731354C9.05168 0.932917 7.097 1.65479 5.34387 2.97198C4.79075 3.38448 3.85325 4.29385 3.39856 4.85167C2.13293 6.40792 1.31262 8.30167 0.998557 10.3595C0.90012 11.0251 0.890745 12.6095 0.979807 13.2657C1.16731 14.6485 1.57043 15.9376 2.15168 17.0485L2.38137 17.4751L1.59387 20.3532C1.15793 21.9329 0.811057 23.236 0.82512 23.2454C0.834495 23.2548 2.16574 22.9173 3.78293 22.4907L6.722 21.7173L7.29856 21.9939C9.56262 23.0767 12.3048 23.3485 14.7657 22.7345C16.3173 22.3454 17.8689 21.5767 19.1111 20.5782C20.3204 19.5985 21.4876 18.1173 22.1486 16.711C23.1564 14.5876 23.4704 12.3048 23.0814 9.98448C22.2892 5.26885 18.4736 1.54229 13.7251 0.843855C13.1439 0.75948 11.822 0.693855 11.3907 0.731354ZM13.3782 2.74698C15.3564 3.01885 17.1376 3.91417 18.5907 5.3626C20.8173 7.59385 21.7454 10.6735 21.1173 13.7439C20.8173 15.2017 20.1236 16.6407 19.1626 17.7892C17.7095 19.5329 15.7595 20.6392 13.4767 21.0329C12.8204 21.1407 11.3064 21.1407 10.6642 21.0329C9.46887 20.822 8.41418 20.447 7.4345 19.8798L7.01731 19.6407L5.31106 20.0907C4.36887 20.3345 3.59074 20.5267 3.58137 20.5173C3.572 20.5079 3.76418 19.7485 4.01731 18.8298L4.472 17.161L4.23293 16.772C2.96731 14.7001 2.55481 12.3892 3.02356 10.0548C3.6845 6.77823 6.13137 4.07354 9.33293 3.0751C10.6876 2.65323 11.9486 2.5501 13.3782 2.74698Z" fill="#EA4359"/>
<path id="Vector_2" d="M7.86559 6.74526C7.34059 6.9187 6.65621 7.82339 6.4734 8.58276C6.19215 9.78276 6.55778 10.9874 7.68278 12.5343C8.70465 13.9406 9.8109 15.0328 11.025 15.8296C11.8125 16.3453 13.1812 16.9406 14.0859 17.1609C14.5593 17.2734 15.4171 17.2828 15.8156 17.1796C16.4343 17.0156 17.2078 16.4906 17.4562 16.064C17.6203 15.7874 17.7281 15.3187 17.7375 14.8921C17.7421 14.5593 17.7328 14.5171 17.6297 14.4421C17.4046 14.2687 15.2296 13.2656 15.0281 13.2374C14.7843 13.1999 14.775 13.2093 14.3015 13.8234C13.814 14.4515 13.5843 14.6718 13.4297 14.6718C13.2328 14.6718 12.0375 14.0624 11.5453 13.7062C11.3109 13.5374 10.9406 13.2281 10.725 13.0171C10.0734 12.3749 9.32809 11.3484 9.32809 11.0906C9.32809 11.0062 9.41715 10.8515 9.58121 10.6453C10.0921 10.0078 10.2187 9.79682 10.2187 9.59058C10.2187 9.34683 9.30465 7.12495 9.10777 6.89526C8.97653 6.74057 8.97653 6.74057 8.48434 6.72183C8.21246 6.71245 7.9359 6.72183 7.86559 6.74526Z" fill="#EA4359"/>
</g>
</g>
<defs>
<clipPath id="clip0_81_4488">
<rect width="24" height="24" fill="white"/>
</clipPath>
</defs>
</svg>
