<svg width="26" height="26" viewBox="0 0 26 26" fill="none" xmlns="http://www.w3.org/2000/svg">
<g id="location">
<g id="Group">
<path id="Vector" d="M14.9768 21.9992C17.0573 20.1464 18.4309 18.7248 19.3534 17.4709C20.8308 15.4623 21.5736 13.6055 21.6534 11.7207C21.7333 9.71611 21.1144 7.77141 19.8565 6.11024C19.5211 5.67098 18.6905 4.84838 18.2313 4.50896M14.9768 21.9992L15.0766 22.1112M14.9768 21.9992C13.6471 23.1852 13.6151 23.2012 13.0002 23.2012C12.3852 23.2012 12.3533 23.1852 11.0235 21.9992C8.94306 20.1464 7.5694 18.7248 6.64696 17.4709M14.9768 21.9992L5.69259 6.74915C5.18146 7.52783 4.71425 8.68186 4.51858 9.64423C3.98349 12.2997 4.65036 14.7595 6.64696 17.4709M15.0766 22.1112C17.1598 20.2559 18.5425 18.8262 19.4742 17.5598L19.4742 17.5598C20.9637 15.5348 21.7218 13.6498 21.8033 11.727L21.8033 11.7267C21.8846 9.68624 21.2542 7.70764 19.9761 6.01969L19.9757 6.0192C19.6319 5.56903 18.7916 4.73668 18.3207 4.38857M15.0766 22.1112C14.4178 22.6988 14.0643 23.0119 13.7982 23.1732C13.6593 23.2574 13.539 23.304 13.4083 23.3277C13.2824 23.3506 13.1514 23.3512 13.0002 23.3512C12.8489 23.3512 12.7179 23.3506 12.5921 23.3277C12.4613 23.304 12.341 23.2574 12.2021 23.1732C11.9361 23.0119 11.5826 22.6988 10.9238 22.1112M15.0766 22.1112L10.9238 22.1112M18.3207 4.38857C18.3208 4.38865 18.3209 4.38873 18.3211 4.38881L18.2313 4.50896M18.3207 4.38857C18.3206 4.38849 18.3205 4.38841 18.3204 4.38833L18.2313 4.50896M18.3207 4.38857C17.1965 3.54847 15.9334 2.99608 14.5652 2.74427C14.565 2.74425 14.5648 2.74422 14.5647 2.74419L14.5375 2.89171C15.8833 3.13929 17.1251 3.68237 18.2313 4.50896M6.64696 17.4709L6.52614 17.5598L6.64696 17.4709ZM10.9238 22.1112C8.84059 20.256 7.45783 18.8263 6.52618 17.5599L10.9238 22.1112ZM11.6709 2.70762C11.671 2.7076 11.6712 2.70758 11.6713 2.70756L11.6944 2.85577L11.6706 2.70767C11.6707 2.70765 11.6708 2.70764 11.6709 2.70762ZM14.0312 4.2259L14.0311 4.22588C13.4881 4.14056 12.4065 4.14844 11.8677 4.24148L11.867 4.2416C11.3285 4.332 11.0337 4.40964 10.5553 4.58218L10.5552 4.58221C8.06665 5.47825 6.2432 7.66973 5.82069 10.2752C5.51274 12.1815 5.98049 13.9646 7.33886 16.0101C8.33873 17.5119 9.4858 18.7479 11.8662 20.873L11.8664 20.8732C12.3282 21.287 12.6097 21.534 12.7874 21.6773C12.8766 21.7494 12.935 21.7915 12.9741 21.8151C12.9856 21.822 12.9942 21.8265 13.0002 21.8294C13.0061 21.8265 13.0147 21.822 13.0262 21.8151C13.0653 21.7915 13.1237 21.7494 13.2129 21.6773C13.3906 21.534 13.6722 21.287 14.134 20.8732L14.1342 20.873C16.5144 18.7479 17.6615 17.512 18.6614 16.0103C20.0198 13.9647 20.4876 12.1816 20.1796 10.2753C19.9331 8.76101 19.2331 7.39205 18.1412 6.30016C17.01 5.16901 15.6376 4.47665 14.0312 4.2259Z" fill="#EA4359" stroke="#EA4359" stroke-width="0.3"/>
<path id="Vector_2" d="M10.5234 7.9853L10.5232 7.9854C8.68475 9.44207 8.50963 12.2136 10.1585 13.875L10.5234 7.9853ZM10.5234 7.9853C11.1363 7.50076 11.8831 7.20109 12.6256 7.14677C13.7404 7.06013 14.6523 7.33445 15.509 8.00908L15.5098 8.00969C16.7652 9.01154 17.2826 10.7417 16.7892 12.301C16.3861 13.5847 15.3361 14.5836 14.0187 14.9481L14.0185 14.9482M10.5234 7.9853L14.0185 14.9482M14.0185 14.9482C13.7673 15.0175 13.3778 15.0494 13.0003 15.0494C12.6229 15.0494 12.2335 15.0175 11.9822 14.9482M14.0185 14.9482L11.9822 14.9482M11.9822 14.9482C11.3013 14.7614 10.6636 14.3842 10.1585 13.875L11.9822 14.9482ZM13.5846 8.73609L13.5844 8.73602C12.4361 8.46118 11.3087 9.00538 10.7998 10.0761L10.7996 10.0765C10.4654 10.775 10.4827 11.5163 10.8496 12.2312C10.9376 12.4017 11.1075 12.6167 11.304 12.8132C11.5009 13.0102 11.7098 13.1737 11.868 13.2511C12.1197 13.373 12.2592 13.4325 12.404 13.4647C12.5495 13.4971 12.7077 13.5035 13.0003 13.5035C13.293 13.5035 13.4511 13.4971 13.5967 13.4647C13.7413 13.4325 13.8807 13.3731 14.132 13.2514C14.2952 13.1697 14.4576 13.0463 14.6956 12.8123C15.1784 12.3294 15.3888 11.8799 15.4302 11.2321L15.4303 11.2312C15.509 10.1032 14.6919 8.99884 13.5846 8.73609Z" fill="#EA4359" stroke="#EA4359" stroke-width="0.3"/>
</g>
</g>
</svg>
