<svg width="24" height="24" viewBox="0 0 24 24" fill="none" xmlns="http://www.w3.org/2000/svg">
<g id="facebook 1">
<g id="Group">
<path id="Vector" d="M13.8094 0.0750008C12.6 0.295315 11.5219 0.909376 10.8328 1.76719C10.4813 2.20781 10.0828 3 9.91406 3.59063C9.69375 4.36406 9.65625 4.86094 9.65625 7.01719V9H7.89844H6.14062V11.1328V13.2656H7.89844H9.65625V18.6328V24H11.8125H13.9688V18.6328V13.2656L15.6422 13.2563L17.3203 13.2422L17.5594 11.2969C17.6953 10.2281 17.8125 9.27188 17.8266 9.17344L17.85 9H15.9094H13.9688V7.32188C13.9688 5.48438 14.0016 5.20781 14.2359 4.77188C14.3859 4.49063 14.6813 4.26094 15.0234 4.14844C15.3609 4.03594 16.0031 3.98906 17.1938 3.98438H18.2344V2.06719V0.150002L17.9672 0.121876C16.6922 -0.014061 14.4469 -0.0421867 13.8094 0.0750008Z" fill="#EA4359"/>
</g>
</g>
</svg>
