<svg width="26" height="26" viewBox="0 0 26 26" fill="none" xmlns="http://www.w3.org/2000/svg">
<g id="profile (1) 1">
<g id="Group">
<path id="Vector" d="M12.1116 2.51385C8.7296 3.13846 6.93702 6.78963 8.51124 9.85174C9.44054 11.6646 11.4819 12.7666 13.503 12.5431C14.1886 12.467 14.6558 12.3349 15.2601 12.0353C16.6667 11.3396 17.6417 10.0599 17.987 8.45526C18.0835 7.99823 18.0683 6.91151 17.9566 6.42401C17.53 4.55526 16.1132 3.0826 14.2952 2.61033C13.6503 2.44276 12.7159 2.40213 12.1116 2.51385ZM13.6859 4.18963C14.671 4.39276 15.5749 5.09862 16.0167 6.00252C16.5448 7.07908 16.5042 8.24705 15.9101 9.23221C14.7573 11.1365 12.1675 11.4564 10.6085 9.88221C9.81124 9.07479 9.46085 7.96268 9.66906 6.90135C10.0347 5.0326 11.8476 3.80369 13.6859 4.18963Z" fill="#EA4359"/>
<path id="Vector_2" d="M9.2475 13.4622C7.96781 13.6095 6.6932 14.3153 5.90609 15.3056C4.89554 16.5853 4.55023 18.195 4.94632 19.7591C5.17992 20.6935 5.6014 21.4146 6.31742 22.1153C7.07406 22.8567 7.95765 23.3087 8.98343 23.4813C9.69945 23.6032 16.301 23.6032 17.017 23.4813C18.9721 23.1513 20.5666 21.6786 21.0541 19.7642C21.8209 16.7478 19.7846 13.8075 16.6819 13.4571C16.1284 13.3962 9.79086 13.4013 9.2475 13.4622ZM16.9866 15.1989C18.2662 15.5747 19.2108 16.5751 19.4698 17.8345C19.6272 18.5962 19.5358 19.2563 19.1651 20.0028C18.7639 20.8153 18.0834 21.3993 17.1694 21.7243L16.7834 21.8614H13.0002H9.21703L8.78031 21.704C7.15531 21.1251 6.19554 19.4899 6.52054 17.8751C6.81507 16.4329 7.93734 15.3513 9.36937 15.138C9.53695 15.1126 11.2534 15.0974 13.178 15.1024C16.3518 15.1126 16.7123 15.1177 16.9866 15.1989Z" fill="#EA4359"/>
</g>
</g>
</svg>
