<svg width="24" height="24" viewBox="0 0 24 24" fill="none" xmlns="http://www.w3.org/2000/svg">
<g id="twitter 1" clip-path="url(#clip0_81_4519)">
<g id="Group">
<path id="Vector" d="M15.6328 2.32476C14.1375 2.65757 12.9516 3.54819 12.2437 4.87476C11.7562 5.78413 11.5687 7.01695 11.7469 8.07163L11.7797 8.24976H11.5969C11.4937 8.24976 11.1469 8.21695 10.8281 8.17945C7.78125 7.80445 4.99219 6.46382 2.79844 4.31695C2.49375 4.02163 2.12812 3.63257 1.98281 3.45913C1.83281 3.2857 1.69687 3.14038 1.67812 3.14038C1.55625 3.14038 1.1625 4.1857 1.05937 4.77632C0.740625 6.63257 1.45781 8.44195 2.97187 9.59976L3.10781 9.70288L2.87812 9.67476C2.28281 9.60913 1.62656 9.41695 1.17187 9.18726C1.06875 9.1357 0.975 9.09351 0.95625 9.09351C0.9375 9.09351 0.9375 9.28101 0.951562 9.50601C1.05469 10.9685 1.76719 12.2716 2.92969 13.1388C3.37969 13.4763 3.82969 13.706 4.35469 13.8794L4.74844 14.006L4.47656 14.0623C4.15781 14.1279 3.21094 14.1466 2.89687 14.0951C2.7375 14.0669 2.67187 14.0716 2.67187 14.1091C2.67187 14.2451 2.99062 14.9107 3.24375 15.2904C4.04531 16.5138 5.41406 17.3529 6.85312 17.5076L7.17187 17.5404L6.96094 17.7044C6.04687 18.3982 4.63594 19.0404 3.35156 19.3357C2.52187 19.5279 1.15312 19.631 0.4125 19.5607C0.182812 19.5373 0 19.5326 0 19.5513C0 19.5701 0.239062 19.7201 0.529687 19.8888C2.31562 20.9201 4.06875 21.4826 6.225 21.7076C6.89062 21.7779 8.98594 21.7357 9.60937 21.6419C12.3047 21.2248 14.4375 20.3107 16.3641 18.7404C19.5609 16.1388 21.5578 11.9435 21.5625 7.81851V7.13413L21.9797 6.80132C22.5094 6.37476 23.3437 5.50757 23.7187 4.99195C23.8781 4.77163 24 4.57944 23.9859 4.56538C23.9766 4.55132 23.8078 4.60288 23.6203 4.67788C23.2359 4.83257 22.6031 5.02945 22.2422 5.10913C21.8344 5.20288 21.3187 5.28726 21.3609 5.25445C21.3797 5.23569 21.5203 5.13257 21.6656 5.02007C22.0078 4.76226 22.5187 4.2232 22.7484 3.87632C22.9453 3.5857 23.2687 2.92007 23.3203 2.70913C23.3531 2.58257 23.3391 2.58726 22.725 2.89663C22.1062 3.2107 21.2578 3.52476 20.5687 3.69351L20.2125 3.78726L20.0062 3.57632C19.5469 3.10757 18.6141 2.58726 17.8828 2.39038C17.3719 2.25444 16.1203 2.21694 15.6328 2.32476Z" fill="#EA4359"/>
</g>
</g>
<defs>
<clipPath id="clip0_81_4519">
<rect width="24" height="24" fill="white"/>
</clipPath>
</defs>
</svg>
