<svg width="19" height="19" viewBox="0 0 19 19" fill="none" xmlns="http://www.w3.org/2000/svg">
<g id="send 1">
<path id="Vector" d="M1.312 3.9209C0.870701 4.39257 0.90095 5.1086 1.38107 5.64828C1.47514 5.75579 2.41515 6.58063 3.4704 7.48704C4.52864 8.39155 5.45424 9.20046 5.53118 9.28122L5.67744 9.43086L8.93426 7.36797C11.1393 5.97126 12.2375 5.29236 12.3286 5.26396C12.4907 5.21553 12.7818 5.25676 12.9351 5.35181C13.0816 5.44282 13.2415 5.69242 13.2625 5.86291C13.2843 6.04124 13.1989 6.32093 13.0862 6.44662C13.0218 6.51663 11.9388 7.2193 9.73374 8.61601L6.47691 10.6789L6.54955 10.871C6.59254 10.9774 6.93848 12.1535 7.31548 13.4895C7.69546 14.8236 8.04984 16.0194 8.10805 16.1496C8.3575 16.7226 8.87936 17.0521 9.4339 16.9932C9.60725 16.9753 9.66674 16.9502 9.95765 16.7618C10.2266 16.5914 10.3116 16.5209 10.4129 16.3774C10.7001 15.9865 17.7879 4.18702 17.8793 3.94947C17.9946 3.65085 18.0241 3.41496 17.9813 3.11207C17.9587 2.92591 17.9249 2.84703 17.7898 2.63605C17.6547 2.42507 17.597 2.36132 17.4369 2.26222C17.179 2.0956 16.9515 2.02246 16.6306 2.00016C16.3676 1.98296 2.59396 3.3846 2.15274 3.47609C1.9218 3.52211 1.44778 3.77223 1.312 3.9209Z" fill="white"/>
</g>
</svg>
