<svg width="26" height="26" viewBox="0 0 26 26" fill="none" xmlns="http://www.w3.org/2000/svg">
<g id="chat-comment-oval-speech-bubble-with-text-lines">
<g id="Group">
<path id="Vector" d="M22.4004 15.2532C21.9655 16.1429 21.4828 16.8172 20.7287 17.5832C19.9228 18.4011 19.1089 18.9796 18.0077 19.5222L22.4004 15.2532ZM22.4004 15.2532C22.9749 14.0683 23.2143 13.0389 23.2143 11.7223M22.4004 15.2532L23.2143 11.7223M23.2143 11.7223C23.2143 10.4057 22.9749 9.37636 22.4004 8.19141L23.2143 11.7223ZM2.72347 10.7893L2.72349 10.7892C2.8973 9.29354 3.5514 7.74803 4.54003 6.5132C4.83979 6.13651 5.59456 5.37767 5.97571 5.07344C7.02397 4.22677 8.43248 3.50264 9.80109 3.10816C10.2894 2.96692 11.0527 2.81431 11.6044 2.74986C12.2386 2.67314 13.6985 2.66912 14.3448 2.74585C15.7163 2.90673 16.8365 3.23304 18.052 3.83272C19.1624 4.37987 19.9856 4.96476 20.8 5.79122L20.8 5.79126C21.561 6.56438 22.0503 7.24738 22.4903 8.1475L22.4904 8.14778C23.0714 9.34618 23.3143 10.3904 23.3143 11.7223C23.3143 13.0542 23.0714 14.0985 22.4904 15.2969L22.4903 15.2971C22.0503 16.1973 21.561 16.8803 20.8 17.6534L20.8 17.6534C19.9856 18.4799 19.1623 19.0648 18.0519 19.6119C16.8365 20.2116 15.7163 20.5379 14.3448 20.6988L14.3448 20.6988C13.655 20.7795 12.3702 20.7795 11.6955 20.6947L11.6954 20.6947C11.5552 20.6769 11.4182 20.6631 11.3112 20.6548C11.2576 20.6506 11.2122 20.6478 11.178 20.6466C11.1559 20.6458 11.1419 20.6458 11.1344 20.6459C11.1255 20.6504 11.1129 20.6571 11.0961 20.6662C11.0627 20.6845 11.0156 20.7111 10.956 20.7453C10.837 20.8137 10.6703 20.9113 10.4677 21.0311C10.0626 21.2708 9.51537 21.5988 8.92314 21.9577C8.33062 22.3188 7.78594 22.649 7.38634 22.8899C7.18655 23.0104 7.02292 23.1086 6.90768 23.1773C6.85009 23.2116 6.80439 23.2386 6.77222 23.2574C6.75619 23.2667 6.74319 23.2742 6.73363 23.2796L6.72083 23.2867L6.7208 23.2867C6.72026 23.287 6.71384 23.2905 6.70606 23.2936L6.70606 23.2936C6.68333 23.3027 6.65587 23.3044 6.62915 23.2941C6.60526 23.2848 6.59048 23.2692 6.58266 23.2591C6.56823 23.2405 6.56191 23.2201 6.55904 23.21C6.55228 23.1862 6.5479 23.1549 6.54446 23.1196C6.53734 23.0467 6.53205 22.9315 6.52805 22.7633C6.52004 22.4258 6.51705 21.864 6.51705 20.9745V18.7746L6.18642 18.5293L6.18642 18.5293L6.18543 18.5286C5.96249 18.3588 5.60056 18.0258 5.25647 17.6847C4.91265 17.3439 4.57898 16.9874 4.4147 16.7697L4.41466 16.7697C3.57557 15.6563 3.03864 14.4412 2.78044 13.0776C2.73684 12.8492 2.70789 12.4079 2.69692 11.9637C2.68593 11.5185 2.69272 11.0579 2.72347 10.7893ZM11.7079 20.5955C12.3742 20.6793 13.6509 20.6793 14.3332 20.5995L11.7079 20.5955ZM7.96334 20.4689C7.96276 20.5729 7.96272 20.661 7.96323 20.7295C8.03796 20.6855 8.13941 20.6253 8.26147 20.5525C8.53059 20.392 8.89948 20.1707 9.30231 19.9274L10.7665 19.0417L10.7982 19.0225L10.8348 19.0286L11.2375 19.0964C11.2375 19.0964 11.2375 19.0964 11.2376 19.0964C15.0707 19.7293 18.7593 18.2803 20.6694 15.4093L20.6695 15.4091C21.1692 14.6617 21.4914 13.9033 21.6883 12.9977L21.6886 12.9966C21.7656 12.6613 21.7778 12.4995 21.7778 11.7223C21.7778 10.9451 21.7656 10.7833 21.6885 10.4481L21.6883 10.4469C21.4914 9.54133 21.1692 8.78299 20.6695 8.03553L20.6694 8.03528C19.3149 5.99566 17.064 4.66045 14.3275 4.27681C13.6102 4.17828 12.3311 4.17839 11.6388 4.28066L11.6384 4.28071C8.9177 4.67221 6.67853 6.00743 5.33188 8.03528L5.33158 8.03573C4.83201 8.77917 4.50584 9.54936 4.31699 10.4268L4.31691 10.4271C4.25906 10.6913 4.22238 11.0979 4.21147 11.5175C4.20057 11.9364 4.21559 12.36 4.25832 12.6574C4.41543 13.7097 4.81986 14.6966 5.50193 15.6665C5.73956 16.0034 6.15076 16.4448 6.58584 16.8486C7.02142 17.2529 7.47208 17.6113 7.7866 17.787C7.7867 17.7871 7.78681 17.7871 7.78691 17.7872L7.95377 17.8785L8.00687 17.9076L8.00572 17.9682L7.97779 19.4324L7.97779 19.4325C7.96982 19.8371 7.96484 20.2037 7.96334 20.4689Z" fill="#EA4359" stroke="#EA4359" stroke-width="0.2"/>
<path id="Vector_2" d="M7.79404 10.4456C7.79404 10.3036 7.8203 10.1774 7.8771 10.0679C7.93417 9.95794 8.01924 9.87043 8.1283 9.80227C8.14763 9.79018 8.17071 9.7768 8.20515 9.76562C8.23757 9.75509 8.27665 9.74757 8.32881 9.74159C8.4322 9.72972 8.60336 9.72224 8.9093 9.71726C9.52303 9.70727 10.6965 9.70727 12.9982 9.70727H13.0009H13.0036C15.3053 9.70727 16.4788 9.70727 17.0925 9.71726C17.3984 9.72224 17.5696 9.72972 17.673 9.74159C17.7251 9.74757 17.7642 9.75509 17.7966 9.76562C17.8311 9.7768 17.8542 9.79018 17.8735 9.80227C17.9826 9.87043 18.0676 9.95794 18.1247 10.0679C18.1815 10.1774 18.2078 10.3036 18.2078 10.4456C18.2078 10.5876 18.1815 10.7139 18.1247 10.8233C18.0676 10.9333 17.9826 11.0208 17.8735 11.089C17.8542 11.1011 17.8311 11.1144 17.7966 11.1256C17.7642 11.1362 17.7251 11.1437 17.673 11.1497C17.5696 11.1615 17.3984 11.169 17.0925 11.174C16.4788 11.184 15.3053 11.184 13.0036 11.184H13.0009H12.9982C10.6965 11.184 9.52303 11.184 8.9093 11.174C8.60336 11.169 8.4322 11.1615 8.32881 11.1497C8.27665 11.1437 8.23757 11.1362 8.20515 11.1256C8.17071 11.1144 8.14763 11.1011 8.1283 11.089C8.01924 11.0208 7.93417 10.9333 7.8771 10.8233C7.8203 10.7139 7.79404 10.5876 7.79404 10.4456Z" fill="#EA4359" stroke="#EA4359" stroke-width="0.2"/>
<path id="Vector_3" d="M9.40467 13.6323L9.40466 13.6323L9.40662 13.6312C9.44988 13.6055 9.49137 13.5866 9.58198 13.5737C9.66609 13.5617 9.79771 13.5541 10.0239 13.5488C10.4782 13.5383 11.3336 13.5373 13.0006 13.5373C14.6675 13.5373 15.5229 13.5383 15.9772 13.5488C16.2034 13.5541 16.335 13.5617 16.4191 13.5737C16.5097 13.5866 16.5512 13.6055 16.5945 13.6312L16.5945 13.6311L16.5964 13.6323C16.7055 13.7005 16.7906 13.788 16.8476 13.898C16.9044 14.0075 16.9307 14.1337 16.9307 14.2757C16.9307 14.4177 16.9044 14.544 16.8476 14.6534C16.7906 14.7634 16.7055 14.8509 16.5964 14.9191L16.5964 14.9191L16.5945 14.9203C16.5512 14.9459 16.5097 14.9648 16.4191 14.9777C16.335 14.9897 16.2034 14.9973 15.9772 15.0026C15.5229 15.0131 14.6675 15.0141 13.0006 15.0141C11.3336 15.0141 10.4782 15.0131 10.0239 15.0026C9.79771 14.9973 9.66609 14.9897 9.58198 14.9777C9.49137 14.9648 9.44988 14.9459 9.40662 14.9203L9.4066 14.9203L9.40467 14.9191C9.2956 14.8509 9.21054 14.7634 9.15346 14.6534C9.09666 14.544 9.07041 14.4177 9.07041 14.2757C9.07041 14.1337 9.09666 14.0075 9.15346 13.898C9.21054 13.788 9.2956 13.7005 9.40467 13.6323Z" fill="#EA4359" stroke="#EA4359" stroke-width="0.2"/>
</g>
</g>
</svg>
