<svg width="26" height="26" viewBox="0 0 26 26" fill="none" xmlns="http://www.w3.org/2000/svg">
<g id="link">
<g id="Group">
<path id="Vector" d="M18.157 2.84684C17.8337 2.91867 17.3668 3.11821 17.0555 3.32174C16.8001 3.48536 13.4838 6.75382 13.2044 7.11299C12.941 7.45221 12.7814 7.75152 12.6457 8.15858C12.534 8.49381 12.51 8.62151 12.4941 9.05252C12.4821 9.42366 12.4941 9.63517 12.542 9.87861C12.6098 10.2138 12.7774 10.6728 12.9131 10.8803L12.9889 11.004L13.5436 10.4453L14.0944 9.89058L14.0385 9.65912C13.9148 9.15229 14.0106 8.60954 14.3019 8.19051C14.3777 8.07876 15.2078 7.22473 16.1456 6.29089C17.6741 4.7704 17.8816 4.57485 18.1131 4.4671C18.6439 4.21169 19.1747 4.21568 19.7094 4.4671C19.9209 4.57086 20.0925 4.71453 20.6393 5.25328C21.3656 5.96764 21.5332 6.18314 21.6649 6.57823C21.7367 6.78974 21.7487 6.90148 21.7367 7.21675C21.7248 7.56395 21.7088 7.6318 21.5691 7.91514C21.4215 8.21844 21.3456 8.30225 19.6735 9.9704C18.0253 11.6186 17.9176 11.7184 17.6342 11.8541C17.1673 12.0815 16.6684 12.1174 16.2494 11.9578C16.1456 11.9179 16.1177 11.9419 15.5909 12.4846L15.0402 13.0513L15.1479 13.1271C15.3515 13.2588 15.8144 13.4304 16.1536 13.4983C16.6126 13.594 17.3788 13.5621 17.7739 13.4384C18.1131 13.3346 18.5401 13.1231 18.8115 12.9276C19.0469 12.76 21.9363 9.90256 22.3713 9.4077C22.7145 9.02059 22.926 8.67738 23.0856 8.25037C23.1894 7.97101 23.1974 7.90317 23.2133 7.20877L23.2293 6.46648L23.1016 6.09135C22.8861 5.43686 22.6985 5.17347 21.8245 4.29549C20.8268 3.28981 20.4597 3.04637 19.6974 2.8628C19.3063 2.76702 18.5521 2.75904 18.157 2.84684Z" fill="#EA4359"/>
<path id="Vector_2" d="M12.478 12.4687C10.8817 14.065 9.54482 15.4299 9.5089 15.5057C9.41312 15.7092 9.48495 15.8529 9.86807 16.224C10.1833 16.5313 10.2113 16.5513 10.3749 16.5513H10.5505L13.5117 13.5861C17.0036 10.0982 16.6963 10.5292 16.1057 9.93853C15.7505 9.58334 15.7266 9.56738 15.5589 9.56738H15.3833L12.478 12.4687Z" fill="#EA4359"/>
<path id="Vector_3" d="M8.43548 12.5247C8.00448 12.6325 7.52558 12.8679 7.1704 13.1553C6.78729 13.4625 3.55475 16.715 3.39112 16.9625C3.19956 17.2458 3.00002 17.6928 2.90425 18.048C2.78452 18.4949 2.78452 19.2372 2.90425 19.6842C3.00002 20.0434 3.19956 20.4863 3.39112 20.7697C3.56273 21.0211 4.85973 22.3341 5.16303 22.5655C5.45436 22.785 5.8295 22.9766 6.20064 23.0963C6.41215 23.1642 6.61169 23.1921 7.02274 23.2041C7.64132 23.228 7.97654 23.1761 8.45943 22.9726C9.03011 22.7371 9.22566 22.5735 11.0734 20.7258C13.1007 18.6985 13.2165 18.5548 13.4719 17.7207C13.5637 17.4174 13.5796 17.2977 13.5796 16.8308C13.5836 16.1803 13.5158 15.849 13.2723 15.3422L13.1047 14.991L12.538 15.5617L11.9713 16.1324L12.0312 16.3479C12.0791 16.4995 12.0911 16.6672 12.0791 16.9106C12.0631 17.2179 12.0432 17.3017 11.9115 17.5771C11.7638 17.8724 11.68 17.9642 10.0358 19.6084C9.08997 20.5582 8.23594 21.3803 8.14017 21.4401C7.73311 21.6916 7.27017 21.7754 6.83518 21.6876C6.33234 21.5798 6.18867 21.48 5.37455 20.6659C4.73203 20.0274 4.61231 19.8877 4.50455 19.6563C4.33295 19.2891 4.28107 18.9379 4.34093 18.5827C4.44469 18.0081 4.47263 17.9721 6.29642 16.1364C7.21031 15.2185 8.06035 14.3884 8.18406 14.2966C8.61108 13.9774 9.24961 13.8616 9.73648 14.0093L9.92405 14.0652L10.4748 13.5104L11.0295 12.9557L10.9297 12.8799C10.794 12.7721 10.2513 12.5646 9.93203 12.4968C9.54892 12.417 8.82259 12.4289 8.43548 12.5247Z" fill="#EA4359"/>
</g>
</g>
</svg>
