<svg width="24" height="24" viewBox="0 0 24 24" fill="none" xmlns="http://www.w3.org/2000/svg">
<g id="instagram 1">
<g id="Group">
<path id="Vector" d="M7.43005 1.04082C5.58993 1.13971 4.18834 1.63843 3.16939 2.5456C1.8065 3.76231 1.20889 5.1725 1.07991 7.48555C0.963826 9.57933 0.993922 16.0713 1.1272 17.2451C1.30777 18.8874 1.86669 20.1686 2.81255 21.1231C3.57783 21.8927 4.31732 22.3269 5.40075 22.6408C6.56158 22.9761 7.42145 23.0191 12.6667 22.9933C16.88 22.9761 17.2197 22.9632 18.0838 22.7869C20.6205 22.2753 22.3402 20.5427 22.8303 18.0104C23.0023 17.1247 23.0109 16.6561 22.998 11.5914L22.9808 6.73316L22.8819 6.19574C22.6239 4.78985 22.1166 3.75371 21.274 2.89384C20.083 1.67713 18.7545 1.1655 16.4716 1.03652C15.5472 0.984932 8.3845 0.989231 7.43005 1.04082ZM16.8585 3.10021C18.1397 3.22489 19.0254 3.56454 19.6832 4.18795C20.1733 4.64798 20.4872 5.1596 20.7021 5.84749C20.8655 6.36342 20.9386 6.84064 20.9859 7.72201C21.0418 8.72376 21.0418 15.319 20.9859 16.3035C20.887 18.0877 20.5603 18.9691 19.7047 19.7903C19.0254 20.4352 18.2429 20.7662 17.052 20.8995C15.9858 21.0199 8.03626 21.0199 7.03451 20.8995C6.20043 20.8006 5.51254 20.5943 5.00951 20.2933C4.72146 20.1256 4.15394 19.6011 3.94328 19.3131C3.60363 18.853 3.33707 18.1565 3.21239 17.417C3.0963 16.7206 3.05761 15.3276 3.05761 11.9784C3.05761 8.68507 3.0963 7.33077 3.20809 6.64717C3.39726 5.46915 3.84009 4.63938 4.59248 4.03317C4.98802 3.71502 5.27607 3.56024 5.80919 3.38397C6.37241 3.1991 7.00441 3.10451 8.01046 3.05722C9.15409 3.00562 16.2523 3.04002 16.8585 3.10021Z" fill="#EA4359"/>
<path id="Vector_2" d="M17.5381 4.83304C16.8932 5.01792 16.502 5.65852 16.6095 6.35072C16.6568 6.65167 16.76 6.85804 16.9749 7.06871C17.2372 7.33527 17.4264 7.41265 17.8606 7.43415C18.2174 7.45135 18.2518 7.44705 18.5141 7.31807C18.8108 7.17189 18.9956 6.98272 19.1504 6.66887C19.2794 6.39801 19.2837 5.86919 19.1547 5.58973C18.8709 4.97922 18.1788 4.65677 17.5381 4.83304Z" fill="#EA4359"/>
<path id="Vector_3" d="M11.2953 6.37202C10.4311 6.4881 9.57556 6.81915 8.81888 7.32648C8.41474 7.59734 7.61506 8.39701 7.3442 8.80545C6.91856 9.45036 6.59611 10.2328 6.44994 10.9895C6.35965 11.441 6.37255 12.6577 6.47143 13.1091C6.96586 15.405 8.63401 17.0774 10.9342 17.5761C11.4329 17.6836 12.6539 17.6836 13.1526 17.5761C14.3134 17.3225 15.1905 16.8495 16.0246 16.0198C16.8716 15.1814 17.366 14.2656 17.6196 13.0747C17.7271 12.5674 17.7271 11.4324 17.6196 10.925C17.1295 8.61628 15.427 6.90514 13.1397 6.43221C12.7313 6.34623 11.7123 6.31183 11.2953 6.37202ZM12.9291 8.4744C14.2232 8.80545 15.2206 9.8029 15.5732 11.1185C15.6462 11.3851 15.6677 11.5871 15.6677 11.9999C15.6677 12.619 15.5775 13.0188 15.3324 13.5347C14.5499 15.1857 12.6582 16.0284 10.9686 15.478C9.73034 15.0782 8.83178 14.1109 8.48783 12.8167C8.38464 12.4298 8.38894 11.5742 8.49213 11.1615C8.93066 9.45465 10.487 8.28523 12.1982 8.37122C12.4174 8.37982 12.7442 8.42711 12.9291 8.4744Z" fill="#EA4359"/>
</g>
</g>
</svg>
