<svg width="26" height="26" viewBox="0 0 26 26" fill="none" xmlns="http://www.w3.org/2000/svg">
<g id="unlock">
<g id="Group">
<path id="Vector" d="M12.1583 1.39466C10.233 1.74058 8.68541 3.14703 8.21659 4.97224C8.08004 5.49112 8.03908 6.22393 8.03908 8.11741V9.9062H7.03317C5.89981 9.9062 5.69044 9.93806 5.15334 10.2112C4.71639 10.4296 4.23847 10.9076 4.01999 11.3445C3.69682 11.9817 3.71503 11.6631 3.71503 17.2798C3.71503 22.8965 3.69682 22.5779 4.01999 23.2152C4.23847 23.6521 4.71639 24.13 5.15334 24.3485C5.79968 24.6762 5.26258 24.6535 13.0003 24.6535C20.7381 24.6535 20.201 24.6762 20.8474 24.3485C21.2843 24.13 21.7622 23.6521 21.9807 23.2152C22.3039 22.5779 22.2857 22.8965 22.2857 17.2798C22.2857 12.8283 22.2766 12.1866 22.2128 11.9408C21.9671 10.994 21.1978 10.2248 20.2511 9.97902C20.0053 9.9153 19.3681 9.9062 14.9348 9.9062H9.89614L9.91435 7.82155C9.9371 5.50933 9.9371 5.49567 10.2557 4.8539C10.4833 4.39418 11.0659 3.80702 11.5302 3.56578C12.4359 3.09241 13.5739 3.09241 14.4751 3.56578C14.9439 3.81612 15.5219 4.40328 15.7404 4.8539C16.0181 5.4274 16.0499 5.61857 16.0499 6.8293V7.90348H16.9876H17.9252L17.907 6.61537C17.8888 5.48202 17.8751 5.29085 17.7887 4.98134C17.4063 3.58854 16.4823 2.46884 15.2079 1.84527C14.4796 1.49024 14.0336 1.39011 13.1369 1.3719C12.7227 1.3628 12.2857 1.3719 12.1583 1.39466ZM19.9734 11.8771C20.1145 11.959 20.2329 12.0773 20.3148 12.2184L20.4423 12.4324V17.2798V22.1273L20.3148 22.3412C20.2329 22.4823 20.1145 22.6007 19.9734 22.6826L19.7595 22.8101H13.0003H6.24118L6.02726 22.6826C5.88616 22.6007 5.76781 22.4823 5.68588 22.3412L5.55844 22.1273V17.2798V12.4324L5.68133 12.2184C5.81788 11.9863 6.05457 11.8179 6.30491 11.7678C6.39594 11.7496 9.45918 11.7405 13.1141 11.7451L19.7595 11.7496L19.9734 11.8771Z" fill="#EA4359"/>
<path id="Vector_2" d="M12.4041 14.4531C12.0718 14.5851 11.7805 14.8173 11.5939 15.0995C11.3663 15.4408 11.3026 15.6866 11.3208 16.1509C11.3436 16.6152 11.4892 16.9474 11.8169 17.2752L12.0354 17.4936L12.0536 18.5815C12.0673 19.6192 12.0718 19.6784 12.1765 19.8878C12.2448 20.0243 12.3495 20.1518 12.4678 20.2292C12.6271 20.3338 12.6999 20.3521 13.0004 20.3521C13.3963 20.3521 13.5784 20.261 13.7787 19.9743C13.8879 19.815 13.8879 19.7922 13.9016 18.6771L13.9152 17.5391L14.1565 17.2979C14.293 17.1705 14.4569 16.9429 14.5297 16.7927C14.648 16.5514 14.6617 16.4832 14.6617 16.0508C14.6617 15.6184 14.648 15.5455 14.5342 15.3134C14.3704 14.9766 14.0745 14.6807 13.7377 14.5169C13.5192 14.4076 13.4145 14.3894 13.0459 14.3803C12.709 14.3712 12.5679 14.3849 12.4041 14.4531Z" fill="#EA4359"/>
</g>
</g>
</svg>
