<svg width="24" height="24" viewBox="0 0 24 24" fill="none" xmlns="http://www.w3.org/2000/svg">
<path d="M4.4625 21.9325C3.25313 21.7216 2.45156 21.0044 2.12344 19.8279C2.04844 19.556 2.03906 19.3216 2.03906 17.7185C2.03906 16.1154 2.04844 15.881 2.12344 15.6091C2.44219 14.4654 3.18281 13.7763 4.34531 13.5419C4.7625 13.4529 4.94531 13.4482 6.44531 13.4669C8.27344 13.4857 8.38594 13.4997 9.04688 13.8185C9.72188 14.1466 10.2141 14.7888 10.4391 15.6325C10.5141 15.9232 10.5234 16.1622 10.5234 17.7419C10.5234 19.4622 10.5188 19.5372 10.4156 19.8982C10.2609 20.4325 10.0547 20.7935 9.70313 21.1404C9.36094 21.4872 9 21.6935 8.48438 21.8482C8.15156 21.9466 8.04375 21.956 6.42188 21.9654C5.47969 21.97 4.59844 21.956 4.4625 21.9325Z" fill="#EA4359"/>
<path d="M16.0078 21.9513C14.6625 21.7497 13.8047 20.9529 13.5422 19.6544C13.4531 19.2372 13.4484 19.0544 13.4672 17.5544C13.4859 15.7263 13.5 15.6138 13.8187 14.9529C14.0484 14.4747 14.475 14.0482 14.9531 13.8185C15.614 13.4997 15.7265 13.4857 17.5547 13.4669C19.0547 13.4482 19.2375 13.4529 19.6547 13.5419C20.8172 13.7763 21.5578 14.4654 21.8765 15.6091C21.9515 15.881 21.9609 16.1154 21.9609 17.7185C21.9609 19.3216 21.9515 19.556 21.8765 19.8279C21.5765 20.9013 20.9156 21.5622 19.8515 21.8716C19.6125 21.9419 19.3219 21.956 17.8594 21.9607C16.9172 21.97 16.0875 21.9654 16.0078 21.9513Z" fill="#EA4359"/>
<path d="M4.35938 10.4766C3.20156 10.2422 2.47031 9.57656 2.14688 8.46094C2.04375 8.1 2.03906 8.025 2.03906 6.28125C2.03906 4.67813 2.04844 4.44375 2.12344 4.17188C2.42344 3.09844 3.09844 2.42813 4.17188 2.12344C4.44375 2.04844 4.67813 2.03906 6.28125 2.03906C7.88438 2.03906 8.11875 2.04844 8.39063 2.12344C9.53438 2.44219 10.2234 3.18281 10.4578 4.34531C10.5469 4.76719 10.5516 4.94531 10.5328 6.46875C10.5188 8.02969 10.5094 8.15625 10.4109 8.48438C10.1625 9.30938 9.7125 9.8625 9.02813 10.1953C8.35313 10.5188 8.13281 10.5469 6.27188 10.5422C5.14688 10.5375 4.57031 10.5188 4.35938 10.4766Z" fill="#EA4359"/>
<path d="M15.7734 10.4766C14.8266 10.2656 14.1609 9.77344 13.8047 9.02813C13.5 8.38594 13.4859 8.29688 13.4672 6.51562C13.4438 4.76719 13.4672 4.44375 13.6734 3.86719C13.9219 3.16875 14.3672 2.67656 15.0188 2.3625C15.6328 2.06719 15.8578 2.03906 17.7188 2.03906C19.1484 2.03906 19.4344 2.05313 19.7344 2.12344C20.8734 2.39062 21.5672 3.06094 21.8719 4.2C21.9516 4.49063 21.9609 4.71094 21.9609 6.30469C21.9609 8.025 21.9563 8.1 21.8531 8.46094C21.5578 9.48281 20.8922 10.1391 19.8516 10.4391C19.6125 10.5094 19.3125 10.5188 17.8125 10.5281C16.4766 10.5375 15.9891 10.5234 15.7734 10.4766Z" fill="#EA4359"/>
</svg>
