<svg width="24" height="24" viewBox="0 0 24 24" fill="none" xmlns="http://www.w3.org/2000/svg">
<g clip-path="url(#clip0_115_3332)">
<path d="M11.3437 0.0279007C10.3687 0.154463 9.43589 0.501337 8.62495 1.04509C8.17495 1.34509 7.34526 2.17477 7.04526 2.62477C6.61401 3.26696 6.3187 3.94665 6.1312 4.73415C6.04214 5.09509 6.03276 5.32009 6.01401 7.06384L5.99058 8.99977H5.48901C5.18901 8.99977 4.87495 9.0279 4.71089 9.07009C3.90464 9.28102 3.2812 9.90915 3.07026 10.7201C2.96714 11.1232 2.96714 21.8763 3.07026 22.2795C3.2812 23.0904 3.90464 23.7185 4.71089 23.9295C4.95464 23.9904 5.85464 23.9998 12 23.9998C19.7156 23.9998 19.2609 24.0185 19.8328 23.7138C20.3718 23.4232 20.8359 22.7904 20.9531 22.1763C20.9812 22.0123 21 19.9779 21 16.4576C21 10.5045 21.0093 10.7482 20.7375 10.2091C20.5687 9.87634 20.1609 9.46384 19.8328 9.28571C19.439 9.07477 19.0875 8.99977 18.5109 8.99977H18.0093L17.9859 7.06384C17.9671 5.32009 17.9578 5.09509 17.8687 4.73415C17.5781 3.52946 17.0718 2.62477 16.2234 1.77634C15.3562 0.909149 14.4421 0.402901 13.2656 0.135712C12.8765 0.0466499 11.714 -0.0189762 11.3437 0.0279007ZM12.7968 2.08102C13.2375 2.17477 13.8046 2.40446 14.1515 2.63415C15.0609 3.22946 15.7406 4.23727 15.9328 5.27321C15.9656 5.43727 15.9843 6.23415 15.9843 7.27477V8.99977H12H8.01558V7.25134C8.01558 5.34821 8.03433 5.18884 8.29214 4.52321C8.76089 3.30446 9.86714 2.37165 11.1796 2.08571C11.5546 2.00134 12.4171 2.00134 12.7968 2.08102ZM12.6843 13.1295C13.3781 13.392 13.8515 13.9732 13.9734 14.7138C14.0812 15.3935 13.7765 16.1388 13.2187 16.5654L12.989 16.7388L12.975 18.0466L12.9609 19.3498L12.8203 19.556C12.3656 20.2029 11.3859 20.1091 11.0859 19.3966C11.0296 19.2513 11.0156 18.9935 11.0156 17.981V16.7435L10.7765 16.5654C10.2234 16.1435 9.9187 15.3935 10.0265 14.7232C10.1953 13.6638 11.1234 12.9232 12.164 13.017C12.3187 13.031 12.5531 13.0826 12.6843 13.1295Z" fill="#9E9E9E"/>
</g>
<defs>
<clipPath id="clip0_115_3332">
<rect width="24" height="24" fill="white"/>
</clipPath>
</defs>
</svg>
