<svg width="24" height="24" viewBox="0 0 24 24" fill="none" xmlns="http://www.w3.org/2000/svg">
<path d="M6.35156 2.15142C5.24531 2.42798 4.41094 3.2436 4.09219 4.36392C4.0125 4.64985 4.00781 5.06236 4.00781 12.4452C4.00781 19.7061 4.0125 20.2452 4.0875 20.4889C4.27031 21.0749 4.80469 21.6374 5.35781 21.8249C5.89687 22.0124 6.62812 21.9045 7.11562 21.5717C7.21875 21.5014 8.34844 20.4889 9.62812 19.3217C10.9078 18.1592 11.9766 17.203 12 17.203C12.0281 17.203 13.1391 18.192 14.4703 19.4061C16.2 20.9858 16.9547 21.642 17.1328 21.7311C18.3328 22.317 19.7344 21.5624 19.9687 20.203C20.0062 19.9874 20.0156 17.7139 20.0062 12.2577C19.9922 5.06236 19.9828 4.60298 19.9031 4.34048C19.5609 3.20142 18.7078 2.39048 17.5922 2.13735C17.2922 2.07173 16.6922 2.06236 11.9672 2.06704C7.10156 2.06704 6.65156 2.07642 6.35156 2.15142Z" fill="#9E9E9E"/>
</svg>
