<svg width="24" height="24" viewBox="0 0 24 24" fill="none" xmlns="http://www.w3.org/2000/svg">
<path d="M5.91562 1.35938C4.4203 1.54688 3.16874 2.16094 2.10937 3.22969C1.1578 4.18594 0.585929 5.19844 0.257804 6.51562C-0.323446 8.79844 0.0984291 11.0484 1.4953 13.1625C2.39062 14.5172 3.54843 15.7594 5.67187 17.6531C7.02187 18.8578 11.1422 22.3734 11.3437 22.4906C11.5312 22.6031 11.6016 22.6172 12 22.6172C12.3984 22.6172 12.4687 22.6031 12.6562 22.4906C12.8578 22.3734 16.9875 18.8531 18.3281 17.6531C20.4609 15.75 21.6094 14.5125 22.5047 13.1625C23.9016 11.0484 24.3234 8.79844 23.7422 6.51562C23.4141 5.19844 22.8422 4.18594 21.8906 3.22969C20.9437 2.27812 19.9312 1.72969 18.6047 1.44844C17.9391 1.30781 16.7109 1.29375 16.1297 1.425C14.5078 1.77656 13.2656 2.5875 12.1312 4.03125L12 4.19531L11.8734 4.03125C10.7531 2.61562 9.52968 1.80469 7.96874 1.44844C7.50468 1.34062 6.43593 1.29375 5.91562 1.35938Z" fill="#9E9E9E"/>
</svg>
