<svg width="20" height="20" viewBox="0 0 20 20" fill="none" xmlns="http://www.w3.org/2000/svg">
<path d="M9.17971 0.0272436C8.49612 0.136619 7.90237 0.339744 7.44534 0.613181C6.73831 1.03506 6.09377 1.67568 5.6719 2.37099C5.45315 2.73037 5.25784 3.23037 5.14846 3.69131C5.03518 4.17959 5.00784 5.15615 5.09377 5.64834C5.34377 7.08584 6.20706 8.30459 7.50784 9.05068C8.78909 9.78506 10.4961 9.84756 11.8985 9.21474C12.3672 9.00381 12.8086 8.67959 13.2656 8.22646C14.2891 7.20302 14.7383 6.03896 14.6758 4.60146C14.6172 3.32412 14.1836 2.32021 13.293 1.41787C12.5821 0.695212 11.6953 0.230369 10.7149 0.0584936C10.4063 0.00380611 9.43752 -0.0157251 9.17971 0.0272436ZM10.8516 1.32412C11.4375 1.49599 11.9688 1.82021 12.4336 2.29287C12.8985 2.76552 13.1563 3.19912 13.3477 3.81631C13.4453 4.13271 13.4531 4.21084 13.4531 4.82412C13.4492 5.42959 13.4414 5.51943 13.3477 5.83193C13.168 6.42177 12.9063 6.85927 12.4453 7.33584C11.7578 8.05068 10.8438 8.4374 9.86721 8.4374C8.89846 8.43349 8.10159 8.11709 7.41018 7.46084C6.87112 6.94912 6.54299 6.42959 6.3594 5.79287C6.28127 5.52724 6.26956 5.40224 6.27346 4.80459C6.27346 4.17177 6.28127 4.09365 6.38284 3.76943C6.64846 2.90615 7.26174 2.14443 8.08596 1.65615C8.39065 1.47646 8.68752 1.36318 9.10549 1.26943C9.4844 1.18349 10.4766 1.21474 10.8516 1.32412Z" fill="white"/>
<path d="M5.50781 9.67185C4.60547 9.80466 3.92188 10.1406 3.34766 10.7304C2.25391 11.8554 1.64062 13.8515 1.64062 16.2929C1.64062 17.3242 1.71484 17.6914 2.04297 18.3398C2.16406 18.5781 2.28906 18.7383 2.55859 19.0078C2.94141 19.3945 3.27344 19.6133 3.73828 19.7773C4.38281 20.0117 4.16797 20.0039 10.1406 19.9922L15.6055 19.9804L15.9375 19.8789C16.3594 19.7461 16.582 19.6484 16.8633 19.4687C17.5156 19.0547 17.9961 18.3984 18.2031 17.6562C18.3281 17.1914 18.3633 16.6367 18.3203 15.7812C18.125 11.9531 16.6719 9.79685 14.1992 9.66013C13.668 9.63279 13.6602 9.63279 12.75 10.2187C12.0469 10.6679 11.5586 10.8906 10.9102 11.0586C10.4219 11.1875 9.54688 11.1875 9.0625 11.0625C8.37109 10.8828 7.90625 10.6679 7.20312 10.2109C6.94531 10.0429 6.62891 9.84763 6.49219 9.77732C6.26562 9.66013 6.21484 9.64841 5.92578 9.65232C5.75 9.65623 5.5625 9.66404 5.50781 9.67185ZM6.54297 11.2383C7.24219 11.6875 7.76172 11.9414 8.36719 12.125C9.54688 12.4804 10.6641 12.457 11.8398 12.0469C12.375 11.8633 12.7578 11.664 13.4492 11.2187L14.0273 10.8515L14.2656 10.875C15.707 11.039 16.582 12.2187 16.9727 14.5117C17.0898 15.1914 17.1602 16.4609 17.1094 16.9179C17.0039 17.8633 16.4141 18.5195 15.4766 18.7383C15.1953 18.8047 14.8555 18.8086 9.96094 18.8086C4.16406 18.8086 4.53125 18.8242 3.94922 18.5469C3.62891 18.3945 3.22656 18 3.07812 17.6953C2.89062 17.3047 2.85156 17.0625 2.85156 16.3047C2.85547 14.2461 3.33594 12.5508 4.1875 11.6211C4.51562 11.2617 4.92578 11.0312 5.44922 10.9179C5.89062 10.8203 5.90234 10.8242 6.54297 11.2383Z" fill="white"/>
</svg>
