<svg width="250" height="250" viewBox="0 0 250 250" fill="none" xmlns="http://www.w3.org/2000/svg">
<g id="qr-code 2">
<g clip-path="url(#clip0_126_4898)">
<g id="Group">
<g id="Group_2">
<g id="Group_3">
<path id="Vector" d="M78.1246 -0.000976562H-0.000366211V78.124H78.1246V-0.000976562ZM62.4996 62.499H15.6246V15.624H62.4996V62.499Z" fill="#171D33"/>
<path id="Vector_2" d="M46.8773 31.252H31.2523V46.877H46.8773V31.252Z" fill="#171D33"/>
<path id="Vector_3" d="M171.876 -0.000976562V78.124H250.001V-0.000976562H171.876ZM234.376 62.499H187.501V15.624H234.376V62.499Z" fill="#171D33"/>
<path id="Vector_4" d="M218.753 31.252H203.128V46.877H218.753V31.252Z" fill="#171D33"/>
<path id="Vector_5" d="M-0.000244141 249.998H78.1248V171.873H-0.000244141V249.998ZM15.6248 187.498H62.4998V234.373H15.6248V187.498Z" fill="#171D33"/>
<path id="Vector_6" d="M46.8773 203.126H31.2523V218.751H46.8773V203.126Z" fill="#171D33"/>
<path id="Vector_7" d="M156.254 -0.000976562H125.004V15.624H156.254V-0.000976562Z" fill="#171D33"/>
<path id="Vector_8" d="M125.003 62.5024H140.628V46.8774H156.253V31.2524H109.378V15.6274H93.7532V31.2524V39.0649V46.8774H125.003V62.5024Z" fill="#171D33"/>
<path id="Vector_9" d="M109.378 62.5H93.7532V78.125H109.378V62.5Z" fill="#171D33"/>
<path id="Vector_10" d="M156.253 78.1265H140.628V93.7515H93.7532V109.376H156.253V78.1265Z" fill="#171D33"/>
<path id="Vector_11" d="M15.6248 140.628H31.2498V125.003H15.6248V93.7529H-0.000244141V156.253H15.6248V140.628Z" fill="#171D33"/>
<path id="Vector_12" d="M46.8774 93.7529H31.2524V109.378H46.8774V93.7529Z" fill="#171D33"/>
<path id="Vector_13" d="M93.7515 156.253H125.001V140.628H109.376V125.003H78.1265V93.7529H62.5015V125.003H46.8765V156.253H62.5015V140.628H70.314H78.1265H93.7515V156.253Z" fill="#171D33"/>
<path id="Vector_14" d="M156.25 124.999H140.625V156.249H156.25V124.999Z" fill="#171D33"/>
<path id="Vector_15" d="M140.628 171.873H93.7533V187.498H125.003V234.373H93.7533V249.998H140.628V234.373H171.878V218.748H140.628V171.873Z" fill="#171D33"/>
<path id="Vector_16" d="M109.378 203.126H93.7532V218.751H109.378V203.126Z" fill="#171D33"/>
<path id="Vector_17" d="M171.877 171.873H156.252V203.123H171.877V171.873Z" fill="#171D33"/>
<path id="Vector_18" d="M234.377 203.126H187.502V250.001H203.127V218.751H234.377V203.126Z" fill="#171D33"/>
<path id="Vector_19" d="M250 234.376H218.75V250.001H250V234.376Z" fill="#171D33"/>
<path id="Vector_20" d="M250.002 171.873H234.377V187.498H250.002V171.873Z" fill="#171D33"/>
<path id="Vector_21" d="M187.501 187.502H203.126V140.627H171.876V156.252H187.501V187.502Z" fill="#171D33"/>
<path id="Vector_22" d="M218.751 109.378H203.126V93.7529H187.501V109.378H171.876V125.003H234.376V109.378H250.001V93.7529H218.751V109.378Z" fill="#171D33"/>
<path id="Vector_23" d="M250 140.627H218.75V156.252H250V140.627Z" fill="#171D33"/>
</g>
</g>
</g>
</g>
</g>
<defs>
<clipPath id="clip0_126_4898">
<rect width="250" height="250" rx="12" fill="white"/>
</clipPath>
</defs>
</svg>
