<svg width="20" height="20" viewBox="0 0 20 20" fill="none" xmlns="http://www.w3.org/2000/svg">
<g id="heart 2">
<g id="Group">
<path id="Vector" d="M4.9297 1.13281C3.68361 1.28906 2.64064 1.80078 1.75783 2.69141C0.964857 3.48828 0.488295 4.33203 0.214857 5.42969C-0.269518 7.33203 0.0820446 9.20703 1.24611 10.9688C1.9922 12.0977 2.95704 13.1328 4.72658 14.7109C5.85158 15.7148 9.28517 18.6445 9.45314 18.7422C9.60939 18.8359 9.66798 18.8477 10 18.8477C10.332 18.8477 10.3906 18.8359 10.5469 18.7422C10.7149 18.6445 14.1563 15.7109 15.2735 14.7109C17.0508 13.125 18.0078 12.0938 18.7539 10.9688C19.918 9.20703 20.2695 7.33203 19.7852 5.42969C19.5117 4.33203 19.0352 3.48828 18.2422 2.69141C17.4531 1.89844 16.6094 1.44141 15.5039 1.20703C14.9492 1.08984 13.9258 1.07812 13.4414 1.1875C12.0899 1.48047 11.0547 2.15625 10.1094 3.35938L10 3.49609L9.89455 3.35938C8.96095 2.17969 7.94142 1.50391 6.64064 1.20703C6.25392 1.11719 5.3633 1.07812 4.9297 1.13281Z" fill="#EA4359"/>
</g>
</g>
</svg>
