<svg width="31" height="30" viewBox="0 0 31 30" fill="none" xmlns="http://www.w3.org/2000/svg">
<g id="retouch 1" clip-path="url(#clip0_162_4685)">
<g id="Group">
<path id="Vector" d="M4.34961 0.111328C4.12109 0.263672 4.05664 0.369141 3.78125 1.06055C3.35352 2.13867 2.96094 2.68945 2.24023 3.25781C1.70117 3.67969 1.61328 3.81445 1.61328 4.21875C1.61328 4.62305 1.70703 4.76953 2.21094 5.15039C2.87891 5.66016 3.35938 6.30469 3.72266 7.19531C4.15039 8.24414 4.2793 8.37891 4.83594 8.37891C5.39258 8.37891 5.52148 8.24414 5.94922 7.19531C6.3125 6.30469 6.79297 5.66016 7.46094 5.15039C7.96484 4.76953 8.05859 4.62305 8.05859 4.21875C8.05859 3.81445 7.9707 3.67969 7.43164 3.25781C6.70508 2.68945 6.3418 2.17383 5.91406 1.10742C5.76758 0.744141 5.60938 0.392578 5.56836 0.333984C5.41016 0.111328 5.16992 0 4.83594 0C4.61914 0 4.46094 0.0351562 4.34961 0.111328Z" fill="white"/>
<path id="Vector_2" d="M18.4063 0.345919C18.3125 0.410372 18.1836 0.545138 18.1133 0.656466C17.9961 0.838107 17.9902 0.931857 17.9727 2.78342C17.9434 5.23264 17.9609 5.39084 18.248 5.70139C18.4414 5.90647 18.5059 5.94162 18.793 5.96506C19.1504 5.99436 19.3613 5.91233 19.6016 5.65451L19.748 5.49631L19.7656 3.176C19.7891 0.592013 19.7891 0.592013 19.3965 0.351779C19.1445 0.193575 18.6406 0.193575 18.4063 0.345919Z" fill="white"/>
<path id="Vector_3" d="M10.9062 3.45117C10.6367 3.63281 10.5195 3.85547 10.5195 4.21875C10.5195 4.42383 10.5547 4.59961 10.6133 4.6875C10.7539 4.89844 13.3789 7.54102 13.6484 7.74023C13.8359 7.88086 13.9355 7.91016 14.2051 7.91016C14.7734 7.91016 15.0898 7.59375 15.0898 7.02539C15.0898 6.75586 15.0605 6.65625 14.9199 6.46875C14.7207 6.19922 12.0781 3.57422 11.8672 3.43359C11.6621 3.29883 11.123 3.31055 10.9062 3.45117Z" fill="white"/>
<path id="Vector_4" d="M25.8359 3.50977C25.5664 3.70898 22.9414 6.35156 22.8008 6.5625C22.666 6.76758 22.6777 7.30664 22.8183 7.52344C23 7.79883 23.2226 7.91016 23.5918 7.91016C23.8613 7.91016 23.9609 7.88086 24.1484 7.74023C24.418 7.54102 27.043 4.89844 27.1836 4.6875C27.3183 4.48242 27.3066 3.94336 27.166 3.72656C26.9844 3.45117 26.7617 3.33984 26.3926 3.33984C26.123 3.33984 26.0234 3.36914 25.8359 3.50977Z" fill="white"/>
<path id="Vector_5" d="M18.1367 8.12109C17.2871 8.34961 16.9062 8.63086 15.3418 10.207L14.1523 11.3965L16.6895 13.9336L19.2266 16.4648L20.5215 15.1641C22.2969 13.3711 22.5195 13.002 22.5723 11.7188C22.5957 11.2031 22.5781 10.957 22.502 10.6641C22.1914 9.45703 21.1719 8.42578 19.9766 8.12109C19.5195 8.00391 18.5703 8.00391 18.1367 8.12109Z" fill="white"/>
<path id="Vector_6" d="M24.916 11.0688C24.6699 11.2973 24.6699 11.3032 24.6699 11.7133C24.6699 12.1118 24.6758 12.1352 24.8926 12.3462L25.1094 12.5688L27.4414 12.5864C29.5566 12.604 29.7852 12.5981 29.9609 12.5044C30.2422 12.3579 30.3828 12.0883 30.3828 11.7133C30.3828 11.3618 30.2656 11.1333 29.9961 10.9516C29.8379 10.8462 29.6797 10.8403 27.4941 10.8403H25.1621L24.916 11.0688Z" fill="white"/>
<path id="Vector_7" d="M11.9082 13.6406L10.8711 14.6777L13.4082 17.2148L15.9395 19.7461L16.9824 18.7031L18.0195 17.666L15.4824 15.1289L12.9512 12.5977L11.9082 13.6406Z" fill="white"/>
<path id="Vector_8" d="M23.0938 15.6387C22.8242 15.8203 22.707 16.043 22.707 16.4062C22.707 16.6113 22.7422 16.7871 22.8008 16.875C22.9414 17.0859 25.5664 19.7285 25.8359 19.9277C26.0234 20.0684 26.123 20.0977 26.3926 20.0977C26.9609 20.0977 27.2773 19.7812 27.2773 19.2129C27.2773 18.9434 27.248 18.8438 27.1074 18.6562C26.9082 18.3867 24.2656 15.7617 24.0547 15.6211C23.8496 15.4863 23.3105 15.498 23.0938 15.6387Z" fill="white"/>
<path id="Vector_9" d="M5.56251 19.9688C3.30665 22.2129 1.39063 24.1465 1.3086 24.2578C0.541022 25.2832 0.388678 26.8008 0.9336 27.9785C1.13868 28.4238 1.57813 28.9688 1.98243 29.2734C2.66212 29.7891 3.30665 30 4.17969 30C5.06446 30 5.84376 29.7305 6.46485 29.2148C6.62305 29.0859 8.55079 27.1641 10.7422 24.9551L14.7324 20.9414L12.2012 18.416L9.66993 15.8906L5.56251 19.9688Z" fill="white"/>
<path id="Vector_10" d="M20.7324 21.7444C20.5391 21.8674 20.4453 22.0315 20.1289 22.8049C19.7656 23.6956 19.2852 24.3401 18.6172 24.8498C18.1133 25.2307 18.0195 25.3772 18.0195 25.7815C18.0195 26.1858 18.1074 26.3206 18.6465 26.7424C19.3672 27.3108 19.7598 27.8616 20.1875 28.9397C20.3223 29.2737 20.4629 29.6018 20.5098 29.6663C20.8262 30.1174 21.6582 30.1233 21.9746 29.6663C22.0156 29.6077 22.1738 29.2561 22.3203 28.8928C22.748 27.8264 23.1113 27.3108 23.8379 26.7424C24.377 26.3206 24.4648 26.1858 24.4648 25.7815C24.4648 25.3772 24.3711 25.2307 23.8672 24.8498C23.1992 24.3401 22.7188 23.6956 22.3555 22.8049C22.0332 22.0256 21.9395 21.8616 21.7461 21.7385C21.4824 21.5803 20.9902 21.5803 20.7324 21.7444Z" fill="white"/>
</g>
</g>
<defs>
<clipPath id="clip0_162_4685">
<rect width="30" height="30" fill="white" transform="translate(0.5)"/>
</clipPath>
</defs>
</svg>
