<svg width="17" height="22" viewBox="0 0 17 22" fill="none" xmlns="http://www.w3.org/2000/svg">
<g id="Vector">
<path d="M2.4207 1.8916C1.94961 2.01817 1.57344 2.32403 1.36602 2.7459L1.23242 3.01309L1.22187 11.0111C1.21484 19.8072 1.19727 19.2025 1.42578 19.5189C1.55586 19.6982 1.83008 19.8389 2.04805 19.8389C2.24844 19.8389 2.51562 19.7334 2.73711 19.5646C2.83906 19.4873 3.95703 18.5451 5.22266 17.4658C6.48828 16.39 7.57461 15.483 7.63086 15.4514C7.77852 15.3705 8.2918 15.3705 8.43945 15.4514C8.49922 15.483 9.59609 16.4076 10.8828 17.5045C12.1695 18.5979 13.291 19.5506 13.3789 19.6139C13.8852 19.9865 14.4477 19.874 14.6938 19.3467L14.7676 19.1885L14.7781 11.1904C14.7887 2.25371 14.8098 2.96387 14.5391 2.54903C14.3246 2.21504 13.9695 1.96543 13.5863 1.87754C13.4844 1.85293 11.5473 1.84238 8.01758 1.84238C3.47187 1.84238 2.57539 1.85293 2.4207 1.8916Z" fill="#EA4359"/>
<path fill-rule="evenodd" clip-rule="evenodd" d="M0 3.58887C0 2.07008 1.23122 0.838867 2.75 0.838867H13.75C15.2688 0.838867 16.5 2.07008 16.5 3.58887V19.9939C16.5 21.065 15.2408 21.64 14.4313 20.9385L9.06866 16.2908C8.59883 15.8837 7.90117 15.8837 7.43134 16.2908L2.06866 20.9385C1.2592 21.64 0 21.065 0 19.9939V3.58887ZM9.25725 14.1155C9.5 14.8389 7 10.3389 1.5 3.58887C2.5 3.83887 9.01744 14.2615 10.0511 15.1573L9.25725 14.1155L10.6215 10.3389C10.6215 9.64851 13.2731 3.58887 13.75 2.33887L11.2863 8.33887L9.25725 14.1155Z" fill="#EA4359"/>
</g>
</svg>
