<svg width="32" height="38" viewBox="0 0 32 38" fill="none" xmlns="http://www.w3.org/2000/svg">
<g id="Message Icon" filter="url(#filter0_d_165_5014)">
<path id="Vector" d="M8.32017 4.0491C7.34323 4.1788 6.46735 4.60888 5.78687 5.3052C5.24786 5.85133 4.94468 6.3292 4.68191 7.05965L4.5 7.558V19.1702V30.7755L4.74929 31.2875C5.05921 31.9292 5.55105 32.4412 6.13722 32.7279C6.97267 33.1443 8.23932 33.0488 8.98045 32.5026C9.14215 32.3797 10.7861 30.8915 12.6322 29.1849L15.9875 26.0856L19.464 29.3009C23.2236 32.7689 23.3448 32.8576 24.1938 32.9737C25.703 33.1785 27.1246 32.1681 27.4412 30.6663C27.4951 30.3864 27.5086 27.3758 27.4951 18.9244L27.4749 7.558L27.293 7.05965C26.8888 5.92643 26.1005 5.00483 25.137 4.52696C24.0253 3.974 24.6789 4.01496 16.257 4.00131C12.1269 3.99448 8.54925 4.01496 8.32017 4.0491Z" fill="white"/>
</g>
<defs>
<filter id="filter0_d_165_5014" x="0.5" y="0.33" width="31" height="37" filterUnits="userSpaceOnUse" color-interpolation-filters="sRGB">
<feFlood flood-opacity="0" result="BackgroundImageFix"/>
<feColorMatrix in="SourceAlpha" type="matrix" values="0 0 0 0 0 0 0 0 0 0 0 0 0 0 0 0 0 0 127 0" result="hardAlpha"/>
<feOffset dy="0.33"/>
<feGaussianBlur stdDeviation="2"/>
<feColorMatrix type="matrix" values="0 0 0 0 0 0 0 0 0 0 0 0 0 0 0 0 0 0 0.1 0"/>
<feBlend mode="normal" in2="BackgroundImageFix" result="effect1_dropShadow_165_5014"/>
<feBlend mode="normal" in="SourceGraphic" in2="effect1_dropShadow_165_5014" result="shape"/>
</filter>
</defs>
</svg>
