<svg width="40" height="40" viewBox="0 0 40 40" fill="none" xmlns="http://www.w3.org/2000/svg">
<g id="Share Icon" filter="url(#filter0_d_55_3466)">
<path id="Vector" d="M26.7956 4.65117L11.9729 9.57727C2.00903 12.9106 2.00903 18.3457 11.9729 21.6626L16.3721 23.124L17.833 27.5247C21.1489 37.4918 26.5986 37.4918 29.9144 27.5247L34.8553 12.7135C37.0549 6.06332 33.4436 2.43443 26.7956 4.65117ZM27.3209 13.4853L21.0832 19.7579C20.837 20.0042 20.5251 20.1191 20.2132 20.1191C19.9013 20.1191 19.5894 20.0042 19.3432 19.7579C18.8672 19.2817 18.8672 18.4935 19.3432 18.0173L25.5809 11.7447C26.0569 11.2686 26.8448 11.2686 27.3209 11.7447C27.7969 12.2209 27.7969 13.0091 27.3209 13.4853Z" fill="white"/>
</g>
<defs>
<filter id="filter0_d_55_3466" x="0.5" y="0.33" width="39" height="39" filterUnits="userSpaceOnUse" color-interpolation-filters="sRGB">
<feFlood flood-opacity="0" result="BackgroundImageFix"/>
<feColorMatrix in="SourceAlpha" type="matrix" values="0 0 0 0 0 0 0 0 0 0 0 0 0 0 0 0 0 0 127 0" result="hardAlpha"/>
<feOffset dy="0.33"/>
<feGaussianBlur stdDeviation="2"/>
<feColorMatrix type="matrix" values="0 0 0 0 0 0 0 0 0 0 0 0 0 0 0 0 0 0 0.1 0"/>
<feBlend mode="normal" in2="BackgroundImageFix" result="effect1_dropShadow_55_3466"/>
<feBlend mode="normal" in="SourceGraphic" in2="effect1_dropShadow_55_3466" result="shape"/>
</filter>
</defs>
</svg>
