<svg width="31" height="30" viewBox="0 0 31 30" fill="none" xmlns="http://www.w3.org/2000/svg">
<g id="dashboard 1">
<g id="Group">
<path id="Vector" d="M14.5918 3.75591C11.2871 3.96685 8.29299 5.30865 5.90237 7.64654C4.69533 8.81841 3.89846 9.90825 3.16604 11.3965C1.24416 15.2872 1.26174 19.7461 3.20705 23.6719C3.65823 24.5801 3.71682 24.668 4.19143 25.1426C4.57229 25.5293 4.78908 25.6934 5.12893 25.8575C5.99026 26.2793 5.26955 26.2501 15.5 26.2501C25.7305 26.2501 25.0098 26.2793 25.8711 25.8575C26.211 25.6934 26.4278 25.5293 26.8145 25.1368C27.2949 24.6622 27.3477 24.5801 27.793 23.6661C28.4317 22.3653 28.7715 21.3633 29.0293 20.0391C29.7442 16.2891 28.8184 12.3047 26.4981 9.19927C26.0176 8.5606 24.9336 7.42388 24.2891 6.88482C21.6055 4.6524 18.1192 3.5274 14.5918 3.75591ZM21.043 11.5137C21.6289 11.8594 21.8164 12.6036 21.4649 13.1778C21.3887 13.295 20.5567 14.3614 19.6074 15.5567C18.6582 16.7461 17.8613 17.754 17.8379 17.7891C17.8086 17.8184 17.8321 17.9766 17.8789 18.1407C17.9961 18.5215 17.961 19.2012 17.791 19.629C17.4102 20.6133 16.3965 21.2696 15.3653 21.1993C14.3047 21.1231 13.4551 20.4493 13.1446 19.4356C12.6758 17.8829 13.8887 16.2891 15.5293 16.2891H15.8985L17.7149 14.0157C18.7168 12.7676 19.5957 11.6836 19.6778 11.6133C20.0293 11.2852 20.5801 11.2442 21.043 11.5137Z" fill="white"/>
</g>
</g>
</svg>
