<svg width="31" height="30" viewBox="0 0 31 30" fill="none" xmlns="http://www.w3.org/2000/svg">
<g id="stopwatch 1">
<g id="Group">
<path id="Vector" d="M11.1934 0.0997353C10.3086 0.562626 10.2266 1.74036 11.0352 2.31458L11.293 2.49036L12.752 2.50794L14.2109 2.52552V3.15833V3.79114L13.8477 3.83216C13.6426 3.85559 13.2149 3.92591 12.8926 3.99036C7.32032 5.10364 3.07813 9.73255 2.42774 15.4044C2.33399 16.2247 2.38673 18.3107 2.52149 19.0431C2.91407 21.2286 3.72267 23.0919 5.02931 24.838C5.56837 25.5587 6.81642 26.8068 7.53712 27.3458C9.47071 28.7931 11.668 29.672 14.0293 29.9415C14.8496 30.0411 16.9297 29.9884 17.668 29.8536C19.8535 29.4611 21.7168 28.6525 23.4629 27.3458C24.1836 26.8068 25.4317 25.5587 25.9707 24.838C27.2832 23.0802 28.0742 21.2462 28.4844 19.0138C28.6426 18.17 28.6426 15.5802 28.4844 14.7365C28.0859 12.5626 27.2774 10.6525 26.0762 9.05872L25.6836 8.54309L26.7383 7.47669C27.3184 6.89661 27.8399 6.32239 27.8984 6.21106C27.9688 6.0763 28.0039 5.87708 28.0098 5.62513C28.0098 5.31458 27.9805 5.19739 27.8457 4.96888C27.6113 4.56458 27.2481 4.36536 26.75 4.36536C26.4981 4.37122 26.2988 4.40638 26.1641 4.47669C26.0527 4.53528 25.4844 5.05677 24.8984 5.63684L23.8379 6.68567L23.375 6.33997C21.7754 5.13294 19.8184 4.28919 17.791 3.92591C17.4219 3.86145 17.0469 3.80872 16.9531 3.80872H16.7891V3.16419V2.52552L18.2481 2.50794L19.707 2.49036L19.9649 2.31458C20.7617 1.74622 20.6914 0.550907 19.8301 0.111454C19.6133 0.00598526 19.4492 0.000125885 15.4883 0.000125885C11.8555 0.00598526 11.3457 0.017704 11.1934 0.0997353ZM16.0039 8.90052C16.291 9.02942 16.5723 9.35755 16.666 9.66224C16.7129 9.82044 16.7305 10.8868 16.7305 13.1954V16.506L18.5469 18.9259C20.252 21.1993 20.4805 21.545 20.4805 21.879C20.4805 22.3126 20.0586 22.8868 19.6309 23.0275C19.332 23.1271 18.8984 23.0743 18.6348 22.9103C18.3418 22.7286 14.4219 17.5138 14.334 17.1857C14.2402 16.8634 14.2461 9.96106 14.334 9.66224C14.4863 9.16419 14.9844 8.78919 15.5 8.78919C15.6465 8.78919 15.8692 8.84192 16.0039 8.90052Z" fill="white"/>
</g>
</g>
</svg>
