<svg width="77" height="19" viewBox="0 0 77 19" fill="none" xmlns="http://www.w3.org/2000/svg">
<g id="TokTik">
<path d="M7.42151 18.6734V1.93267H13.2834V0.517192H0V1.93267H5.86192V18.6734H7.42151Z" fill="#161722"/>
<path d="M18.6509 19C22.4961 19 24.9162 15.9241 24.9162 12.086C24.9162 8.24785 22.4961 5.19914 18.6509 5.19914C14.8595 5.19914 12.4394 8.24785 12.4394 12.086C12.4394 15.9241 14.8595 19 18.6509 19ZM18.6509 17.7206C15.6393 17.7206 13.9183 15.0258 13.9183 12.086C13.9183 9.17335 15.6393 6.47851 18.6509 6.47851C21.7163 6.47851 23.4103 9.17335 23.4103 12.086C23.4103 15.0258 21.7163 17.7206 18.6509 17.7206Z" fill="#161722"/>
<path d="M39.4767 18.6734L33.4535 11.4599L39.5036 5.52579H37.6213L29.9847 13.0387V0.517192H28.5864V18.6734H29.9847V14.7264L32.4048 12.4126L37.5944 18.6734H39.4767Z" fill="#161722"/>
<path d="M49.8047 18.6734V3.91977H55.0212V0.517192H40.716V3.91977H45.9595V18.6734H49.8047Z" fill="#161722"/>
<path d="M59.1417 4.11032C60.2711 4.11032 61.1853 3.18481 61.1853 2.04155C61.1853 0.898281 60.2711 0 59.1417 0C58.0392 0 57.125 0.898281 57.125 2.04155C57.125 3.18481 58.0392 4.11032 59.1417 4.11032ZM60.8626 18.6734V5.52579H57.4477V18.6734H60.8626Z" fill="#161722"/>
<path d="M77 18.6734L71.7028 11.4871L76.8387 5.52579H72.6439L67.7231 11.3782V0.517192H64.3081V18.6734H67.7231V15.298L69.2827 13.6103L72.7246 18.6734H77Z" fill="#161722"/>
</g>
</svg>
