<svg width="58" height="69" viewBox="0 0 58 69" fill="none" xmlns="http://www.w3.org/2000/svg">
<g id="Floating Tones">
<path id="Floating Double Tone" opacity="0.6" d="M36.6066 43.2675C36.2284 42.1662 35.2062 41.7162 34.4135 42.1159C33.2682 42.6933 32.1972 43.4723 31.4064 44.1594C30.9164 44.5851 30.747 45.3058 30.9836 46.04L32.6579 51.2348C33.152 52.1782 32.819 53.5959 31.7785 54.6586C30.5627 55.9001 28.8422 56.1867 27.9355 55.2988C27.0285 54.4108 27.2787 52.6847 28.4946 51.4431C29.175 50.7482 30.0134 50.3525 30.7787 50.2944L29.5558 46.5002C29.174 45.3149 29.3905 43.924 30.4228 43.027C31.2843 42.2785 32.4577 41.4223 33.7382 40.7765C35.58 39.8478 37.4452 41.091 38.0253 42.7802L39.4694 46.9863C39.8996 47.9282 39.5558 49.2922 38.547 50.3222C37.3312 51.5637 35.6108 51.8503 34.704 50.9623C33.797 50.0744 34.0473 48.3483 35.2631 47.1066C35.9386 46.4167 36.7699 46.0217 37.5309 45.9592L36.6066 43.2675Z" fill="white"/>
<path id="Floating Double Tone_2" opacity="0.2" d="M15.7148 7.36048C15.6946 5.93009 14.7063 5.03803 13.6633 5.22736C12.1564 5.5009 10.6588 6.03811 9.51181 6.56636C8.80106 6.89379 8.34338 7.68201 8.33931 8.62999L8.31088 15.3382C8.52042 16.6238 7.62044 18.1744 6.0525 19.0564C4.22054 20.0865 2.17142 19.8138 1.47538 18.4472C0.779073 17.0805 1.69951 15.1375 3.53157 14.1071C4.55682 13.5305 5.64998 13.362 6.53593 13.565L6.55668 8.66543C6.56339 7.13489 7.32191 5.57457 8.81922 4.8848C10.0689 4.30923 11.7106 3.71748 13.3955 3.41145C15.8189 2.97137 17.4663 5.09599 17.4973 7.28994L17.5742 12.7527C17.712 14.0138 16.8197 15.4975 15.2997 16.3522C13.4678 17.3823 11.4187 17.1096 10.7226 15.743C10.0263 14.3763 10.9467 12.4333 12.7788 11.4029C13.7967 10.8303 14.8816 10.6601 15.7642 10.8564L15.7148 7.36048Z" fill="white"/>
<path id="Floating Tone" opacity="0.3" d="M53.8035 59.9601C53.9872 59.7474 54.2944 59.6996 54.5186 59.7158C54.5353 59.717 54.5502 59.7209 54.5643 59.7267C54.7378 59.7973 55.1468 59.8786 55.6213 59.9183C56.0946 59.958 56.6245 59.9553 57.0389 59.8624C57.127 59.8426 57.2245 59.904 57.2204 60.0059C57.2078 60.3237 57.0692 60.7375 56.6829 61.0528C56.3073 61.3595 55.7034 61.568 54.7684 61.5122L56.0918 65.2589C56.2855 65.5076 56.4151 65.804 56.4563 66.1311C56.5886 67.1822 55.7586 68.1523 54.6024 68.2978C53.4462 68.4434 52.4016 67.7093 52.2693 66.6583C52.137 65.6072 52.967 64.6371 54.1232 64.4916C54.4471 64.4508 54.7622 64.479 55.0509 64.5639L53.84 61.1355L53.8345 61.1234C53.5743 60.5437 53.6159 60.1771 53.8035 59.9601Z" fill="white"/>
</g>
</svg>
