<svg width="30" height="30" viewBox="0 0 30 30" fill="none" xmlns="http://www.w3.org/2000/svg">
<g id="text-font" clip-path="url(#clip0_74_4078)">
<g id="Group">
<path id="Vector" d="M6.49219 4.97461C5.92383 5.11524 5.26172 5.64844 5.00977 6.16406C4.94531 6.31055 3.78516 10.0078 2.44336 14.3906C0.00585938 22.3418 0 22.3535 0 22.8809C0 23.332 0.0175781 23.4551 0.152344 23.748C0.357422 24.1875 0.814453 24.6621 1.23633 24.8789C1.54688 25.0371 1.62891 25.0488 2.19727 25.0488C2.7832 25.0488 2.83008 25.0371 3.21094 24.8496C3.66211 24.6152 4.01367 24.2578 4.21875 23.8184C4.29492 23.6543 4.57617 22.7227 4.8457 21.7383L5.33789 19.9512L8.23828 19.9336L11.1387 19.9219L11.6777 21.7207C11.9766 22.7109 12.2871 23.6602 12.3691 23.8301C12.5625 24.2227 13.0488 24.6855 13.4824 24.8906C13.7871 25.0313 13.8926 25.0488 14.4375 25.0488C15.0176 25.0488 15.082 25.0371 15.4453 24.8555C15.9434 24.6152 16.4238 24.1055 16.6113 23.6309C16.7168 23.3672 16.7461 23.1797 16.7402 22.7637V22.2363L14.2969 14.3848C12.9551 10.0664 11.7773 6.375 11.6836 6.17578C11.4727 5.74219 11.0391 5.32031 10.582 5.10938L10.248 4.95117L8.46094 4.93946C7.47656 4.9336 6.5918 4.95117 6.49219 4.97461ZM8.36719 9.00586C8.63086 10.0898 9.23438 12.2754 9.86719 14.4316C10.1895 15.5156 10.4531 16.4355 10.4531 16.4648C10.4531 16.5 9.67383 16.5234 8.25586 16.5234C6.25781 16.5234 6.05859 16.5117 6.05859 16.4297C6.05859 16.377 6.32227 15.3926 6.64453 14.2441C7.25391 12.0586 7.54102 10.9336 7.91016 9.29883C8.0332 8.75977 8.15039 8.32031 8.16797 8.32031C8.18555 8.32031 8.2793 8.63086 8.36719 9.00586Z" fill="white"/>
<path id="Vector_2" d="M24.0761 12.5742C22.6815 12.6504 21.0643 13.0195 20.6249 13.3652C20.2147 13.6875 20.0917 14.3965 20.3612 14.8828C20.6776 15.4629 21.2577 15.6445 22.0253 15.416C23.6308 14.9414 25.1659 15.0527 25.7518 15.6856C25.9745 15.9199 26.0858 16.166 26.1327 16.5059L26.1679 16.7988L25.4179 16.8399C24.0409 16.916 22.8573 17.1387 21.9491 17.4961C20.6308 18.0176 19.6522 18.9727 19.2948 20.0977C19.119 20.6426 19.078 21.8027 19.2128 22.3184C19.4179 23.1211 19.8983 23.8477 20.5311 24.3223C20.9472 24.6387 21.3339 24.8145 21.9433 24.9668C22.3593 25.0723 22.5409 25.0899 23.1972 25.0606C24.4452 25.0137 25.2948 24.6856 26.0507 23.9707C26.3143 23.7246 26.455 23.625 26.4784 23.6777C26.4901 23.7246 26.5311 23.8887 26.5663 24.0469C26.7186 24.7324 26.9589 24.8438 28.3124 24.8438C29.3847 24.8438 29.5663 24.7969 29.8124 24.4688C29.9296 24.3164 29.9296 24.2285 29.9179 20.8418C29.9061 18.9375 29.871 17.127 29.8417 16.8223C29.619 14.7656 28.5585 13.4063 26.7421 12.8438C26.0975 12.6445 24.9433 12.5332 24.0761 12.5742ZM26.2675 20.0801C26.244 20.9531 26.2323 21.0234 26.08 21.3399C25.7401 22.0313 25.0487 22.4473 24.246 22.4473C23.5722 22.4473 23.1561 22.207 22.9159 21.6797C22.7694 21.3516 22.7577 20.7539 22.8983 20.4199C23.2265 19.6465 24.2811 19.2012 25.8573 19.166L26.285 19.1602L26.2675 20.0801Z" fill="white"/>
</g>
</g>
<defs>
<clipPath id="clip0_74_4078">
<rect width="30" height="30" fill="white"/>
</clipPath>
</defs>
</svg>
