<svg width="30" height="30" viewBox="0 0 30 30" fill="none" xmlns="http://www.w3.org/2000/svg">
<g id="sticker">
<g id="Group">
<path id="Vector" d="M10.0373 2.08797C8.7617 2.22101 7.86171 2.46362 6.89128 2.94884C4.83303 3.98187 3.12695 5.93838 2.44608 8.03576C2.01565 9.34271 2 9.63228 2 15.1183C2 20.5574 2.00783 20.6826 2.39913 21.8644C3.27565 24.4783 5.3965 26.6304 7.98692 27.5226C9.16866 27.9296 9.27822 27.9374 13.2304 27.9687L16.9477 28L16.9712 25.0026C16.979 23.3513 17.0104 21.8331 17.0338 21.6218C17.0808 21.2774 17.0651 21.2461 16.9477 21.2931C16.5095 21.4574 15.3356 21.5905 14.7017 21.5435C12.4869 21.3792 10.6321 20.2679 9.40344 18.3661C9.09822 17.9044 9.07474 17.8183 9.10605 17.4818C9.153 16.9809 9.45822 16.6522 9.94343 16.5896C10.4052 16.527 10.6947 16.6992 11.0547 17.2548C11.673 18.2018 12.6043 18.9531 13.6217 19.3131C14.3651 19.5792 15.7817 19.5792 16.533 19.3209C17.2608 19.0705 17.8477 18.6635 18.6695 17.8496C19.7964 16.7383 20.7669 16.2766 22.3712 16.1044C22.8094 16.0575 24.2494 16.0183 25.5642 16.0183H27.959L27.9199 12.7862C27.8964 10.2427 27.8651 9.45228 27.7633 9.05315C26.9416 5.57839 24.3903 3.03492 20.8999 2.18188C20.4695 2.08014 19.6477 2.05667 15.5391 2.04101C12.8704 2.03319 10.3973 2.05667 10.0373 2.08797ZM11.4147 10.1097C11.9704 10.3444 12.3695 10.9157 12.3695 11.4792C12.3695 12.2305 11.6339 12.9662 10.8826 12.9662C10.6165 12.9662 10.1704 12.794 9.93561 12.5983C9.10605 11.894 9.29387 10.6027 10.2956 10.141C10.6791 9.96097 11.0313 9.95314 11.4147 10.1097ZM19.8669 10.1566C20.4538 10.4462 20.7669 11.1271 20.6338 11.8314C20.5634 12.207 20.1173 12.6923 19.6869 12.8566C18.6225 13.2557 17.5269 12.2775 17.7851 11.1505C17.9886 10.2114 18.9903 9.73401 19.8669 10.1566Z" fill="white"/>
<path id="Vector_2" d="M23.2086 18.0607C21.8782 18.1311 21.2677 18.3033 20.6025 18.7964C20.086 19.172 19.5851 19.7824 19.3425 20.3303C19.0608 20.9642 19.006 21.6059 18.9669 24.7676L18.9277 27.8433L19.1469 27.7885C21.0095 27.3659 22.2068 26.8181 23.7173 25.6989C25.5486 24.3372 26.7616 22.7172 27.4268 20.7059C27.7007 19.892 27.9433 18.7337 27.9433 18.2407V17.9746L26.1277 17.9903C25.126 17.9903 23.8112 18.0216 23.2086 18.0607Z" fill="white"/>
</g>
</g>
</svg>
