<svg width="30" height="30" viewBox="0 0 30 30" fill="none" xmlns="http://www.w3.org/2000/svg">
<g id="effect" clip-path="url(#clip0_74_4090)">
<g id="Group">
<path id="Vector" d="M15.5391 0.0996075C15.2812 0.228514 15.2344 0.304686 14.8594 1.24804C14.6836 1.6875 14.4375 2.22656 14.3203 2.44336C13.6641 3.62695 12.6973 4.74609 11.6426 5.53125C10.998 6.00586 10.8398 6.21094 10.8398 6.55664C10.8398 6.89648 11.0156 7.13672 11.5371 7.51172C13.0312 8.5957 14.2324 10.1719 14.9062 11.9355C15.1992 12.7031 15.2695 12.8145 15.5273 12.9492C15.8203 13.0957 16.0547 13.0957 16.3477 12.9492C16.6055 12.8145 16.6758 12.7031 16.9688 11.9355C17.6426 10.1719 18.8438 8.5957 20.3379 7.51172C20.8594 7.13672 21.0352 6.89648 21.0352 6.5625C21.0352 6.22266 20.8594 6 20.2266 5.52539C19.1602 4.72851 18.1758 3.59179 17.5312 2.40234C17.4023 2.16211 17.1738 1.64648 17.0215 1.25976C16.6523 0.310545 16.6172 0.251951 16.3477 0.117186C16.0723 -0.0234394 15.8027 -0.0292988 15.5391 0.0996075Z" fill="white"/>
<path id="Vector_2" d="M21.1406 1.58789C20.8887 1.7168 20.6836 2.0625 20.6836 2.34375C20.6836 2.77734 21.1289 3.22266 21.5566 3.22266C22.0078 3.22266 22.4414 2.78906 22.4414 2.34375C22.4414 2.05078 22.2363 1.7168 21.9727 1.58203C21.6855 1.43555 21.4219 1.43555 21.1406 1.58789Z" fill="white"/>
<path id="Vector_3" d="M8.03331 7.65821C7.92784 7.71094 7.78722 7.83985 7.72862 7.9336C7.66417 8.03321 7.42979 8.6836 7.19542 9.375C6.52159 11.4023 6.12901 12.2578 5.30284 13.5059C4.19542 15.1758 2.82432 16.4883 0.955184 17.6602C0.568465 17.9063 0.199325 18.1758 0.14659 18.2637C-0.0174724 18.5098 -0.0350505 18.8672 0.111434 19.1426C0.211043 19.3477 0.345809 19.4531 0.920028 19.793C1.92784 20.3906 2.74229 21.0234 3.58018 21.8555C4.40636 22.6699 4.7755 23.127 5.37315 24.0352C6.17589 25.248 6.60948 26.2324 7.24229 28.2422C7.45909 28.9336 7.67589 29.5605 7.72276 29.6367C7.83409 29.8125 8.20909 30 8.43761 30C8.69542 30 9.06456 29.7949 9.17003 29.584C9.22276 29.4902 9.44542 28.8281 9.67393 28.125C10.1603 26.584 10.3302 26.1445 10.7931 25.2305C11.9767 22.9102 13.8282 20.9824 16.1603 19.6348C16.7755 19.2773 16.9571 18.8672 16.7169 18.3633C16.629 18.1875 16.4298 18.0293 15.6915 17.543C13.4708 16.0781 11.9767 14.4609 10.8458 12.3047C10.4239 11.4902 10.1544 10.8106 9.66807 9.34571C9.463 8.73047 9.25206 8.13282 9.18761 8.01563C8.98839 7.61719 8.45518 7.45313 8.03331 7.65821Z" fill="white"/>
<path id="Vector_4" d="M23.4905 7.67578C23.2034 7.82812 23.1448 7.93945 22.8635 8.81836C22.137 11.1152 20.7659 12.8262 18.7092 14.0098C18.2698 14.2617 18.1057 14.3965 18.0061 14.5664C17.7366 15.0293 17.9065 15.5391 18.4104 15.8086C19.219 16.2363 19.969 16.7988 20.6253 17.4551C21.6975 18.5332 22.3362 19.582 22.8342 21.0879C23.1624 22.0781 23.2151 22.1777 23.4963 22.3242C23.7893 22.4707 24.0237 22.4707 24.3167 22.3242C24.5979 22.1777 24.6506 22.0781 24.9846 21.0645C25.4651 19.623 26.1272 18.5215 27.1585 17.4902C27.8088 16.8457 28.4065 16.3945 29.2092 15.9551C29.7893 15.6328 30.0003 15.3809 30.0003 15C30.0003 14.6191 29.7893 14.3672 29.2092 14.0449C28.4065 13.6055 27.8088 13.1543 27.1585 12.5098C26.1272 11.4785 25.4651 10.377 24.9846 8.93555C24.6506 7.92188 24.5979 7.82227 24.3167 7.67578C24.0296 7.5293 23.7659 7.5293 23.4905 7.67578Z" fill="white"/>
<path id="Vector_5" d="M2.85938 8.15039C2.60742 8.2793 2.40234 8.625 2.40234 8.90625C2.40234 9.33984 2.84766 9.78516 3.27539 9.78516C3.72656 9.78516 4.16016 9.35156 4.16016 8.90625C4.16016 8.61328 3.95508 8.2793 3.69141 8.14453C3.4043 7.99805 3.14062 7.99805 2.85938 8.15039Z" fill="white"/>
<path id="Vector_6" d="M16.4531 24.0879C16.2012 24.2168 15.9961 24.5625 15.9961 24.8438C15.9961 25.2773 16.4414 25.7227 16.8691 25.7227C17.3203 25.7227 17.7539 25.2891 17.7539 24.8438C17.7539 24.5508 17.5488 24.2168 17.2852 24.082C16.998 23.9355 16.7344 23.9355 16.4531 24.0879Z" fill="white"/>
</g>
</g>
<defs>
<clipPath id="clip0_74_4090">
<rect width="30" height="30" fill="white"/>
</clipPath>
</defs>
</svg>
