<svg width="30" height="30" viewBox="0 0 30 30" fill="none" xmlns="http://www.w3.org/2000/svg">
<g id="filter">
<g id="Group">
<path id="Vector" d="M13.9162 1.93941C9.39278 2.54878 6.12324 6.69136 6.61543 11.1914C7.02559 14.9296 9.79707 17.9179 13.5061 18.6093C14.2912 18.7558 15.8088 18.7617 16.5412 18.6152C18.258 18.2695 19.7287 17.4902 20.9475 16.2656C22.1662 15.0468 22.8928 13.705 23.2736 11.9648C23.4553 11.1445 23.4553 9.48042 23.2736 8.66011C22.8928 6.91988 22.1604 5.57222 20.9533 4.35933C19.7346 3.14644 18.4045 2.42574 16.6701 2.04488C16.0549 1.91011 14.5549 1.85152 13.9162 1.93941Z" fill="white"/>
<path id="Vector_2" d="M4.58226 13.5116C3.18773 14.7831 2.26195 16.5643 1.96312 18.5448C1.44164 22.0194 3.32836 25.617 6.50414 27.2167C7.11351 27.5272 7.92211 27.8085 8.62523 27.9608C9.42797 28.1307 11.0627 28.1483 11.8596 27.9901C13.5823 27.6444 15.0354 26.871 16.26 25.6346C17.7248 24.1698 18.4983 22.4764 18.7209 20.2792C18.7502 19.9745 18.7444 19.91 18.6741 19.9393C18.3518 20.0624 17.5432 20.2909 17.0393 20.4022C16.512 20.5135 16.26 20.5311 15.0588 20.537C13.512 20.537 13.0139 20.4667 11.7893 20.0624C8.72484 19.0604 6.23461 16.5819 5.22094 13.5174C5.14476 13.3006 5.06859 13.1249 5.04515 13.1249C5.02172 13.1249 4.81664 13.3006 4.58226 13.5116Z" fill="white"/>
<path id="Vector_3" d="M24.7328 13.6639C24.0649 15.6092 22.7641 17.3787 21.1059 18.6033L20.602 18.9783L20.6196 19.494C20.6489 20.5955 20.3969 22.1366 19.9985 23.203C19.4301 24.7205 18.6098 25.9862 17.4379 27.1229C17.0746 27.4744 16.9516 27.6326 17.0043 27.6619C17.0453 27.6912 17.3559 27.7791 17.6957 27.8553C19.9985 28.4061 22.3539 27.9901 24.3403 26.6776C25.0434 26.2147 26.1977 25.0897 26.6137 24.4569C27.4223 23.2381 27.85 22.1131 28.0375 20.742C28.3481 18.492 27.6918 16.201 26.2211 14.3729C25.8696 13.9334 25.0493 13.1248 24.9555 13.1248C24.9321 13.1248 24.8325 13.3709 24.7328 13.6639Z" fill="white"/>
</g>
</g>
</svg>
