<svg width="30" height="30" viewBox="0 0 30 30" fill="none" xmlns="http://www.w3.org/2000/svg">
<g id="caption">
<g id="Group">
<path id="Vector" d="M4.62915 5.01562C4.10766 5.09765 3.77954 5.19726 3.34008 5.40234C2.63696 5.74218 1.98657 6.38671 1.65258 7.08984C1.23657 7.96875 1.26001 7.51172 1.26001 15C1.26001 22.4883 1.23657 22.0312 1.65258 22.9102C1.84594 23.3145 1.98071 23.4961 2.36743 23.877C2.88891 24.3926 3.29907 24.6387 3.98462 24.8555L4.42407 24.9902H15.0295H25.635L26.1038 24.832C26.7717 24.6035 27.2581 24.293 27.7092 23.8125C28.1545 23.3379 28.4065 22.9043 28.6057 22.2656L28.7405 21.8262V14.9707V8.11523L28.5823 7.64648C28.1545 6.39843 27.2346 5.50781 25.9573 5.10937C25.6584 5.02148 24.8381 5.00976 15.2053 5.0039C9.46899 4.99804 4.71118 5.0039 4.62915 5.01562ZM16.5706 12.5508C16.9573 12.6445 17.3616 13.0605 17.4553 13.4531C17.5959 14.0273 17.3381 14.584 16.8108 14.8477L16.5002 15H11.8831C7.84008 15 7.23657 14.9883 7.04321 14.9062C6.58032 14.7129 6.26977 14.2617 6.26977 13.7695C6.26977 13.1543 6.5979 12.7207 7.20727 12.5332C7.46508 12.457 16.26 12.4687 16.5706 12.5508ZM23.0569 12.6387C23.4963 12.873 23.7307 13.2539 23.7307 13.7402C23.7307 14.2383 23.4495 14.6777 22.9983 14.8887C22.8049 14.9766 22.6174 15 21.8791 15C21.0413 15 20.9827 14.9941 20.6897 14.8477C19.9045 14.4551 19.7639 13.418 20.426 12.8437C20.5666 12.7148 20.7834 12.5801 20.9065 12.5449C21.0237 12.5156 21.5041 12.4922 21.9729 12.498C22.7112 12.5098 22.8518 12.5273 23.0569 12.6387ZM10.5354 17.6309C11.3498 18.0469 11.4905 19.084 10.8225 19.6699C10.4827 19.9687 10.3245 19.9922 8.60766 19.9687C7.06079 19.9512 7.04907 19.9512 6.83813 19.8047C6.71508 19.7227 6.54516 19.5527 6.45727 19.4297C6.31665 19.2246 6.29907 19.1426 6.29907 18.7441C6.29907 18.334 6.31665 18.2695 6.47485 18.041C6.57446 17.9062 6.76782 17.7305 6.90844 17.6543C7.1604 17.5254 7.20727 17.5195 8.74243 17.5195C10.178 17.5195 10.3362 17.5312 10.5354 17.6309ZM23.1623 17.6953C23.2854 17.7773 23.4553 17.9473 23.5432 18.0703C23.6838 18.2754 23.7014 18.3574 23.7014 18.75C23.7014 19.1426 23.6838 19.2246 23.5432 19.4297C23.4553 19.5527 23.2854 19.7227 23.1623 19.8047L22.9456 19.9512H18.7502H14.5549L14.3381 19.8047C14.2151 19.7227 14.0452 19.5527 13.9573 19.4297C13.8166 19.2246 13.7991 19.1426 13.7991 18.7441C13.7991 18.334 13.8166 18.2695 13.9748 18.041C14.0745 17.9062 14.2678 17.7305 14.4084 17.6543L14.6721 17.5195L18.8088 17.5312L22.9456 17.5488L23.1623 17.6953Z" fill="white"/>
</g>
</g>
</svg>
