<svg width="30" height="30" viewBox="0 0 30 30" fill="none" xmlns="http://www.w3.org/2000/svg">
<g id="lock" clip-path="url(#clip0_74_4112)">
<g id="Group">
<path id="Vector" d="M14.0037 0.0585938C10.1307 0.533203 7.04277 3.46875 6.38652 7.29492C6.28691 7.86914 6.26933 8.24414 6.26933 9.61523V11.25H5.27324C4.49394 11.25 4.23613 11.2676 4.10136 11.3379C3.72636 11.5312 3.7498 10.9922 3.7498 19.7051C3.7498 24.791 3.77324 27.75 3.80839 27.9492C3.99589 28.9453 4.80449 29.7539 5.79472 29.9414C6.22832 30.0234 23.7771 30.0234 24.199 29.9414C25.1951 29.7539 26.0037 28.9453 26.1912 27.9551C26.2264 27.7559 26.2498 24.7734 26.2498 19.7051C26.2498 10.9922 26.2732 11.5312 25.8982 11.3379C25.7635 11.2676 25.5057 11.25 24.7264 11.25H23.7303V9.61523C23.7303 8.24414 23.7127 7.86914 23.6131 7.29492C23.1385 4.51758 21.3865 2.17969 18.8025 0.878906C18.2928 0.621094 17.1736 0.257812 16.5525 0.146484C15.9021 0.0351562 14.5955 -0.0117188 14.0037 0.0585938ZM16.3768 3.95508C17.7478 4.35352 18.8611 5.29688 19.4822 6.58008C19.9158 7.49414 19.9393 7.59961 19.9627 9.5332L19.992 11.25H14.9998H10.0076L10.0369 9.5332C10.0603 7.59961 10.0838 7.49414 10.5174 6.58008C11.2264 5.11523 12.5682 4.10742 14.2205 3.80859C14.742 3.71484 15.7967 3.78516 16.3768 3.95508ZM15.7029 16.3594C16.8807 16.7109 17.6541 17.9355 17.4607 19.1309C17.3787 19.623 17.1033 20.1738 16.7693 20.502L16.4764 20.7832L16.6814 22.6113C16.9041 24.6035 16.9041 24.6738 16.5877 24.8848C16.4529 24.9785 16.283 24.9902 14.9998 24.9902C13.7166 24.9902 13.5467 24.9785 13.4119 24.8848C13.0955 24.6738 13.0955 24.6035 13.3182 22.6113L13.5232 20.7832L13.2303 20.502C12.7029 19.9863 12.4334 19.1602 12.5389 18.416C12.7498 16.916 14.2674 15.9316 15.7029 16.3594Z" fill="white"/>
</g>
</g>
<defs>
<clipPath id="clip0_74_4112">
<rect width="30" height="30" fill="white"/>
</clipPath>
</defs>
</svg>
