<svg width="30" height="30" viewBox="0 0 30 30" fill="none" xmlns="http://www.w3.org/2000/svg">
<g id="radio">
<g id="Group">
<path id="Vector" d="M14.0332 0.0822144C11.8359 0.509949 10.1426 2.1037 9.59766 4.25409C9.46289 4.77557 9.46289 4.78143 9.46289 9.66815V14.5607L9.60352 15.1174C9.7793 15.8264 10.2598 16.7697 10.7285 17.3322C11.7129 18.5217 13.166 19.2424 14.707 19.3185C16.1367 19.3889 17.4199 18.9728 18.5156 18.0881C19.377 17.3849 20.1211 16.2072 20.4023 15.0881C20.5371 14.5607 20.5371 14.5549 20.5371 9.66815C20.5371 4.78143 20.5371 4.77557 20.4023 4.25409C19.8926 2.25604 18.3457 0.68573 16.377 0.170105C15.7734 0.0119019 14.6133 -0.0291138 14.0332 0.0822144Z" fill="white"/>
<path id="Vector_2" d="M6.97276 9.79102C6.17003 9.92578 5.40245 10.5117 5.04503 11.2676C4.76378 11.8535 4.70518 12.5098 4.79307 14.0566C4.89268 15.8262 5.12706 16.7871 5.78331 18.1641C6.13487 18.9023 6.31065 19.207 6.79112 19.8633C7.16026 20.3789 8.08018 21.334 8.58409 21.7383C9.72667 22.6406 11.1036 23.332 12.4689 23.6777L13.0079 23.8184V25.3711V26.9297L12.7442 27.0234C12.3517 27.1699 11.8771 27.5039 11.5431 27.873C11.0919 28.3652 10.7228 29.2441 10.7228 29.8242V30H15.0001H19.2774V29.8242C19.2774 29.2207 18.9083 28.3594 18.422 27.8379C18.088 27.4746 17.6075 27.1465 17.2149 27.0059L16.9923 26.9297V25.3711V23.8066L17.3321 23.7305C19.172 23.3262 20.9239 22.3242 22.3302 20.8828C23.1915 19.998 23.7189 19.2305 24.2521 18.0938C24.8731 16.7695 25.1075 15.7852 25.2071 14.0566C25.3243 11.9941 25.1661 11.2676 24.4337 10.541C23.9767 10.0781 23.5255 9.86719 22.8106 9.76172L22.5646 9.72656L22.5411 12.3164C22.5118 15.1348 22.5118 15.1523 22.1485 16.2363C21.1407 19.2539 18.2286 21.3281 15.0001 21.3281C11.7716 21.3281 8.85948 19.2539 7.85167 16.2363C7.48839 15.1523 7.48839 15.1348 7.45909 12.3164C7.44151 10.377 7.41807 9.72656 7.36534 9.73242C7.32432 9.73828 7.14854 9.76172 6.97276 9.79102Z" fill="white"/>
</g>
</g>
</svg>
