<svg width="30" height="30" viewBox="0 0 30 30" fill="none" xmlns="http://www.w3.org/2000/svg">
<g id="sound-waves">
<g id="Group">
<path id="Vector" d="M14.4315 0.105469C14.0097 0.257812 13.6815 0.498047 13.4765 0.814453C13.0956 1.38281 13.1249 0.357422 13.1366 15.1172L13.1542 28.5645L13.3065 28.8926C13.6288 29.5781 14.244 29.9707 14.9999 29.9707C15.7557 29.9707 16.371 29.5781 16.6932 28.8926L16.8456 28.5645V15V1.43555L16.6932 1.10742C16.289 0.251953 15.2811 -0.199219 14.4315 0.105469Z" fill="white"/>
<path id="Vector_2" d="M20.0568 4.79297C19.6349 4.94531 19.3068 5.18555 19.1017 5.50195C18.7267 6.06445 18.7443 5.50781 18.7618 15.123L18.7794 23.877L18.9318 24.2051C19.254 24.8906 19.8693 25.2832 20.6251 25.2832C21.381 25.2832 21.9962 24.8906 22.3185 24.2051L22.4708 23.877V15V6.12305L22.3185 5.79492C21.9142 4.93945 20.9064 4.48828 20.0568 4.79297Z" fill="white"/>
<path id="Vector_3" d="M3.18176 5.73047C2.75988 5.88281 2.43176 6.12305 2.22668 6.43945C1.85168 6.99609 1.86926 6.5332 1.88683 15.123L1.90441 22.9395L2.05676 23.2676C2.37902 23.9531 2.99426 24.3457 3.75012 24.3457C4.50597 24.3457 5.12121 23.9531 5.44347 23.2676L5.59582 22.9395V15V7.06055L5.44347 6.73242C5.03918 5.87695 4.03137 5.42578 3.18176 5.73047Z" fill="white"/>
<path id="Vector_4" d="M8.80659 9.48047C8.38472 9.63281 8.05659 9.87304 7.85151 10.1895C7.48823 10.7285 7.49409 10.6523 7.51167 15.123L7.52925 19.1895L7.68159 19.5176C8.00386 20.2031 8.61909 20.5957 9.37495 20.5957C10.1308 20.5957 10.746 20.2031 11.0683 19.5176L11.2207 19.1895V15V10.8105L11.0683 10.4824C10.664 9.62695 9.6562 9.17578 8.80659 9.48047Z" fill="white"/>
<path id="Vector_5" d="M25.6816 9.48047C25.2597 9.63281 24.9316 9.87304 24.7265 10.1895C24.3632 10.7285 24.3691 10.6523 24.3867 15.123L24.4042 19.1895L24.5566 19.5176C24.8789 20.2031 25.4941 20.5957 26.25 20.5957C27.0058 20.5957 27.621 20.2031 27.9433 19.5176L28.0957 19.1895V15V10.8105L27.9433 10.4824C27.539 9.62695 26.5312 9.17578 25.6816 9.48047Z" fill="white"/>
</g>
</g>
</svg>
