<svg width="30" height="30" viewBox="0 0 30 30" fill="none" xmlns="http://www.w3.org/2000/svg">
<g id="video-editing">
<g id="Group">
<path id="Vector" d="M11.4845 0.826164C9.56263 0.908195 6.60364 1.16015 5.9181 1.29491C5.2677 1.42382 4.48255 1.92187 4.00208 2.51366C3.49231 3.14062 3.38685 3.45116 3.14075 5.12695C2.63099 8.57812 2.66614 12.1582 3.25208 15.6445C3.36927 16.3125 3.43958 16.582 3.60364 16.916C3.95521 17.6309 4.76966 18.3457 5.52552 18.5976C5.97669 18.75 11.1329 19.2246 11.1329 19.1191C11.1329 19.1016 10.7521 18.375 10.295 17.4961C9.36927 15.75 9.35755 15.7207 9.22864 15.1758C9.04114 14.3613 9.15833 13.4766 9.55677 12.6562C9.87903 12 10.6115 11.2559 11.2091 10.9687L11.6017 10.7812V8.65429C11.6017 6.7207 11.6134 6.50976 11.713 6.29882C11.9767 5.71288 12.7384 5.40234 13.3185 5.64843C13.5177 5.73046 18.2638 8.94726 18.5099 9.16405C18.9376 9.54491 18.9786 10.4238 18.5861 10.8574C18.5333 10.9219 17.5665 11.5898 16.4357 12.3516C15.3107 13.1074 14.3615 13.7461 14.338 13.7695C14.297 13.8047 16.9806 18.9434 17.0978 19.0488C17.1505 19.0957 19.1075 19.0137 20.5958 18.8965C22.799 18.7266 24.1115 18.5801 24.4454 18.4629C25.2599 18.1816 26.0333 17.4785 26.4025 16.6699C26.6251 16.1894 26.9415 14.3027 27.0997 12.4805C27.2052 11.3437 27.2169 8.64257 27.129 7.52929C26.9474 5.32616 26.6779 3.65624 26.4025 3.11718C26.045 2.4082 25.2423 1.70507 24.5333 1.4707C23.8068 1.23046 20.9122 0.95507 17.8126 0.820305C16.254 0.755852 13.0197 0.755852 11.4845 0.826164Z" fill="white"/>
<path id="Vector_2" d="M11.5664 12.1877C11.1738 12.4103 10.8047 12.8205 10.5879 13.2892C10.3535 13.7873 10.2949 14.5783 10.459 15.0705C10.5117 15.2345 11.2734 16.6994 12.1465 18.3283L13.7344 21.2873L13.5 21.7209C13.377 21.9611 13.2539 22.1662 13.2305 22.1838C13.2129 22.1955 13.0137 22.1193 12.791 22.008C12.2988 21.756 11.9941 21.6857 11.4023 21.6799C9.36328 21.674 7.54102 23.6076 7.54102 25.7814C7.54102 26.8009 7.85156 27.6037 8.49023 28.2482C9.5332 29.297 11.0156 29.4494 12.375 28.6466C13.2187 28.1486 13.6934 27.5744 14.5605 25.9865C14.8418 25.4709 15.1523 24.9084 15.2461 24.7384L15.4219 24.422L15.9199 25.3537C16.1953 25.8634 16.5234 26.4904 16.6523 26.7482C17.4023 28.2131 18.3984 28.9923 19.7988 29.1916C20.6719 29.3205 21.5156 29.0334 22.2129 28.3713C23.5488 27.1115 23.6016 24.9025 22.3301 23.3029C21.1816 21.8556 19.1719 21.3224 17.8535 22.1134L17.5254 22.3127L17.25 21.8439L16.9805 21.3693L17.1094 21.1291C17.1855 21.0002 17.3086 20.7775 17.3848 20.6369L17.5312 20.3908H17.0098H16.4941L16.0371 19.5236C13.9043 15.4748 12.0645 12.0998 11.9648 12.0646C11.8887 12.0353 11.7598 12.0763 11.5664 12.1877ZM15.5098 20.4318C16.1133 20.7131 16.0664 21.592 15.4395 21.8263C15.1758 21.9318 14.9238 21.8966 14.707 21.7209C14.3086 21.4103 14.3203 20.8127 14.7305 20.508C15 20.3088 15.2109 20.2853 15.5098 20.4318ZM11.8652 23.5548C12.2402 23.7365 12.6504 24.1466 12.8262 24.5216C13.0195 24.9259 13.0605 25.5998 12.9199 26.1095C12.7207 26.8478 12.0352 27.6388 11.3789 27.8966C10.9512 28.0666 10.2246 28.0783 9.87305 27.9259C9.08789 27.5861 8.61328 26.842 8.61328 25.9631C8.61914 24.8908 9.36328 23.8361 10.3711 23.4728C10.7695 23.3322 11.4902 23.3673 11.8652 23.5548ZM20.4609 23.6252C21.4453 24.0763 22.1426 25.342 21.9785 26.3732C21.8672 27.0588 21.4277 27.6623 20.8301 27.9494C20.5898 28.0607 20.4434 28.09 20.0332 28.09C19.5703 28.0959 19.5 28.0783 19.0898 27.8732C18.5039 27.5861 18.1406 27.1877 17.877 26.5666C17.3203 25.2482 17.7715 23.9533 18.9316 23.5314C19.3242 23.3849 20.0391 23.4318 20.4609 23.6252Z" fill="white"/>
</g>
</g>
</svg>
