<svg width="137" height="17" viewBox="0 0 137 17" fill="none" xmlns="http://www.w3.org/2000/svg">
<g id="Group 71">
<g id="Group 69">
<path id="Rectangle 1043" d="M0.0795898 6.94321C0.0795898 6.32602 0.579924 5.82568 1.19712 5.82568C1.81431 5.82568 2.31465 6.32602 2.31465 6.94321V10.1239C2.31465 10.7411 1.81431 11.2414 1.19712 11.2414C0.579924 11.2414 0.0795898 10.7411 0.0795898 10.1239V6.94321Z" fill="white"/>
<path id="Rectangle 1044" d="M6.78491 3.9354C6.78491 3.3182 7.28525 2.81787 7.90244 2.81787C8.51964 2.81787 9.01997 3.31821 9.01997 3.9354V13.7353C9.01997 14.3525 8.51964 14.8528 7.90244 14.8528C7.28525 14.8528 6.78491 14.3525 6.78491 13.7353V3.9354Z" fill="white"/>
<path id="Rectangle 1045" d="M13.4902 6.34214C13.4902 5.72494 13.9906 5.22461 14.6078 5.22461C15.225 5.22461 15.7253 5.72494 15.7253 6.34214V11.328C15.7253 11.9452 15.225 12.4456 14.6078 12.4456C13.9906 12.4456 13.4902 11.9452 13.4902 11.328V6.34214Z" fill="white"/>
<path id="Rectangle 1046" d="M20.1953 3.33091C20.1953 2.71371 20.6956 2.21338 21.3128 2.21338C21.93 2.21338 22.4304 2.71371 22.4304 3.33091V14.3343C22.4304 14.9515 21.93 15.4518 21.3128 15.4518C20.6956 15.4518 20.1953 14.9515 20.1953 14.3343V3.33091Z" fill="white"/>
<path id="Rectangle 1047" d="M26.9004 2.12827C26.9004 1.51108 27.4007 1.01074 28.0179 1.01074C28.6351 1.01074 29.1354 1.51108 29.1354 2.12827V14.9369C29.1354 15.5541 28.6351 16.0544 28.0179 16.0544C27.4007 16.0544 26.9004 15.5541 26.9004 14.9369V2.12827Z" fill="white"/>
<path id="Rectangle 1048" d="M33.6055 4.5355C33.6055 3.9183 34.1058 3.41797 34.723 3.41797C35.3402 3.41797 35.8405 3.9183 35.8405 4.5355V12.5301C35.8405 13.1473 35.3402 13.6477 34.723 13.6477C34.1058 13.6477 33.6055 13.1473 33.6055 12.5301V4.5355Z" fill="white"/>
<path id="Rectangle 1049" d="M40.3108 3.9354C40.3108 3.31821 40.8111 2.81787 41.4283 2.81787C42.0455 2.81787 42.5458 3.31821 42.5458 3.9354V13.1335C42.5458 13.7507 42.0455 14.2511 41.4283 14.2511C40.8111 14.2511 40.3108 13.7507 40.3108 13.1335V3.9354Z" fill="white"/>
<path id="Rectangle 1050" d="M47.0159 2.73032C47.0159 2.11313 47.5162 1.61279 48.1334 1.61279C48.7506 1.61279 49.2509 2.11313 49.2509 2.73032V14.3354C49.2509 14.9526 48.7506 15.453 48.1334 15.453C47.5162 15.453 47.0159 14.9526 47.0159 14.3354V2.73032Z" fill="white"/>
<path id="Rectangle 1051" d="M53.7209 4.5355C53.7209 3.9183 54.2213 3.41797 54.8385 3.41797C55.4557 3.41797 55.956 3.9183 55.956 4.5355V12.5301C55.956 13.1473 55.4557 13.6477 54.8385 13.6477C54.2213 13.6477 53.7209 13.1473 53.7209 12.5301V4.5355Z" fill="white"/>
<path id="Rectangle 1052" d="M60.4263 2.12827C60.4263 1.51108 60.9266 1.01074 61.5438 1.01074C62.161 1.01074 62.6613 1.51108 62.6613 2.12827V14.9369C62.6613 15.5541 62.161 16.0544 61.5438 16.0544C60.9266 16.0544 60.4263 15.5541 60.4263 14.9369V2.12827Z" fill="white"/>
<path id="Rectangle 1053" d="M67.1313 6.94321C67.1313 6.32602 67.6317 5.82568 68.2489 5.82568C68.8661 5.82568 69.3664 6.32602 69.3664 6.94321V10.1239C69.3664 10.7411 68.8661 11.2414 68.2489 11.2414C67.6317 11.2414 67.1313 10.7411 67.1313 10.1239V6.94321Z" fill="white"/>
<path id="Rectangle 1054" d="M73.8364 5.73813C73.8364 5.12094 74.3368 4.62061 74.954 4.62061C75.5711 4.62061 76.0715 5.12094 76.0715 5.73813V11.3258C76.0715 11.943 75.5711 12.4433 74.954 12.4433C74.3368 12.4433 73.8364 11.943 73.8364 11.3258V5.73813Z" fill="white"/>
</g>
<g id="Group 70">
<path id="Rectangle 1055" d="M80.5417 6.94321C80.5417 6.32602 81.0421 5.82568 81.6593 5.82568C82.2765 5.82568 82.7768 6.32602 82.7768 6.94321V10.1239C82.7768 10.7411 82.2765 11.2414 81.6593 11.2414C81.0421 11.2414 80.5417 10.7411 80.5417 10.1239V6.94321Z" fill="#FFF1F3" fill-opacity="0.58"/>
<path id="Rectangle 1056" d="M87.2471 5.74204C87.2471 5.12485 87.7474 4.62451 88.3646 4.62451C88.9818 4.62451 89.4821 5.12485 89.4821 5.74204V11.3297C89.4821 11.9469 88.9818 12.4472 88.3646 12.4472C87.7474 12.4472 87.2471 11.9469 87.2471 11.3297V5.74204Z" fill="#FFF1F3" fill-opacity="0.58"/>
<path id="Rectangle 1057" d="M93.9521 2.73032C93.9521 2.11313 94.4525 1.61279 95.0697 1.61279C95.6869 1.61279 96.1872 2.11313 96.1872 2.73032V14.3354C96.1872 14.9526 95.6869 15.453 95.0697 15.453C94.4525 15.453 93.9521 14.9526 93.9521 14.3354V2.73032Z" fill="#FFF1F3" fill-opacity="0.58"/>
<path id="Rectangle 1058" d="M100.657 4.5355C100.657 3.9183 101.158 3.41797 101.775 3.41797C102.392 3.41797 102.892 3.9183 102.892 4.5355V12.5301C102.892 13.1473 102.392 13.6477 101.775 13.6477C101.158 13.6477 100.657 13.1473 100.657 12.5301V4.5355Z" fill="#FFF1F3" fill-opacity="0.58"/>
<path id="Rectangle 1059" d="M107.363 3.9354C107.363 3.31821 107.863 2.81787 108.48 2.81787C109.097 2.81787 109.598 3.31821 109.598 3.9354V13.1335C109.598 13.7507 109.097 14.2511 108.48 14.2511C107.863 14.2511 107.363 13.7507 107.363 13.1335V3.9354Z" fill="#FFF1F3" fill-opacity="0.58"/>
<path id="Rectangle 1060" d="M114.068 1.52768C114.068 0.91049 114.568 0.410156 115.185 0.410156C115.802 0.410156 116.303 0.910491 116.303 1.52769V14.938C116.303 15.5552 115.802 16.0556 115.185 16.0556C114.568 16.0556 114.068 15.5552 114.068 14.938V1.52768Z" fill="#FFF1F3" fill-opacity="0.58"/>
<path id="Rectangle 1061" d="M120.773 4.5355C120.773 3.9183 121.273 3.41797 121.89 3.41797C122.508 3.41797 123.008 3.9183 123.008 4.5355V12.5301C123.008 13.1473 122.508 13.6477 121.89 13.6477C121.273 13.6477 120.773 13.1473 120.773 12.5301V4.5355Z" fill="#FFF1F3" fill-opacity="0.58"/>
<path id="Rectangle 1062" d="M127.478 6.94321C127.478 6.32602 127.978 5.82568 128.596 5.82568C129.213 5.82568 129.713 6.32602 129.713 6.94321V10.1239C129.713 10.7411 129.213 11.2414 128.596 11.2414C127.978 11.2414 127.478 10.7411 127.478 10.1239V6.94321Z" fill="#FFF1F3" fill-opacity="0.58"/>
<path id="Rectangle 1063" d="M134.183 5.74204C134.183 5.12485 134.683 4.62451 135.301 4.62451C135.918 4.62451 136.418 5.12485 136.418 5.74204V11.3297C136.418 11.9469 135.918 12.4472 135.301 12.4472C134.683 12.4472 134.183 11.9469 134.183 11.3297V5.74204Z" fill="#FFF1F3" fill-opacity="0.58"/>
</g>
</g>
</svg>
