<svg width="59" height="59" viewBox="0 0 59 59" fill="none" xmlns="http://www.w3.org/2000/svg">
<g id="WhatsApp Logo">
<circle id="Ellipse 6" cx="29.5" cy="29.5" r="29.5" fill="#65D072"/>
<path id="path54" fill-rule="evenodd" clip-rule="evenodd" d="M38.1115 31.6386C37.6968 31.431 35.6579 30.4281 35.2777 30.2898C34.8976 30.1514 34.6212 30.0822 34.3447 30.4973C34.0682 30.9123 33.2735 31.8461 33.0315 32.1228C32.7896 32.3994 32.5478 32.4341 32.1331 32.2265C31.7183 32.0191 30.3821 31.5812 28.7981 30.1688C27.5653 29.0696 26.733 27.7119 26.4911 27.2968C26.2492 26.8818 26.4653 26.6575 26.673 26.4508C26.8595 26.2651 27.0876 25.9666 27.295 25.7245C27.5023 25.4824 27.5715 25.3095 27.7097 25.0328C27.8479 24.7561 27.7788 24.514 27.6751 24.3065C27.5715 24.099 26.7421 22.0584 26.3965 21.2283C26.0599 20.42 25.718 20.5293 25.4635 20.5167C25.2218 20.5046 24.9451 20.5021 24.6686 20.5021C24.3922 20.5021 23.9429 20.6059 23.5627 21.0208C23.1826 21.4359 22.1113 22.4389 22.1113 24.4794C22.1113 26.52 23.5973 28.4913 23.8047 28.768C24.0121 29.0447 26.729 33.2322 30.889 35.0279C31.8784 35.4551 32.6509 35.7101 33.2532 35.9013C34.2466 36.2167 35.1507 36.1723 35.8652 36.0655C36.662 35.9465 38.3188 35.0625 38.6644 34.0941C39.0099 33.1258 39.0099 32.2957 38.9063 32.1228C38.8027 31.9499 38.5262 31.8461 38.1115 31.6386ZM30.5451 41.9663H30.5395C28.0642 41.9654 25.6363 41.3006 23.5184 40.0441L23.0146 39.7452L17.7936 41.1144L19.1872 36.0255L18.8591 35.5038C17.4783 33.3081 16.749 30.7704 16.75 28.1647C16.753 20.5611 22.9414 14.3751 30.5506 14.3751C34.2352 14.3765 37.6988 15.8129 40.3033 18.4195C42.9078 21.0261 44.3414 24.491 44.3399 28.1758C44.3368 35.7799 38.1485 41.9663 30.5451 41.9663ZM42.2856 16.4392C39.152 13.303 34.9848 11.575 30.545 11.5733C21.3969 11.5733 13.9515 19.0159 13.9478 28.164C13.9466 31.0883 14.7108 33.9428 16.1632 36.4588L13.8086 45.0566L22.607 42.7495C25.0312 44.0713 27.7605 44.7678 30.5384 44.769H30.5451H30.5452C39.6924 44.769 47.1385 37.3255 47.1422 28.1772C47.1439 23.7439 45.4192 19.5753 42.2856 16.4392Z" fill="white"/>
</g>
</svg>
