<svg width="364" height="358" viewBox="0 0 364 358" fill="none" xmlns="http://www.w3.org/2000/svg">
<path fill-rule="evenodd" clip-rule="evenodd" d="M168.595 1.10543e-05C75.5204 4.95165e-06 -5.15599e-06 78.6368 -1.17123e-05 178.63C-1.82685e-05 278.623 75.5204 357.26 168.595 357.26C183.106 357.26 194.869 277.285 194.869 178.63C194.869 79.9754 183.106 1.20057e-05 168.595 1.10543e-05ZM90.8338 25.1387C39.3519 54.2114 4.37907 111.494 4.37907 178.63C4.37907 245.766 39.352 303.049 90.8339 332.121C46.8602 301.131 17.5163 244.417 17.5163 178.63C17.5163 112.843 46.8601 56.1293 90.8338 25.1387ZM21.8954 178.63C21.8954 109.817 54.6597 51.5518 102.331 23.1859C62.0165 53.7573 35.0326 111.589 35.0326 178.63C35.0326 245.672 62.0166 303.503 102.331 334.074C54.6597 305.708 21.8954 247.443 21.8954 178.63ZM113.487 21.091C69.8403 48.5635 39.4117 107.906 39.4117 178.63C39.4117 249.354 69.8403 308.697 113.487 336.169C103.413 327.879 94.2569 317.382 86.2898 305.109C65.3964 272.925 52.549 228.371 52.549 178.63C52.549 128.889 65.3964 84.335 86.2898 52.1509C94.257 39.8784 103.413 29.3816 113.487 21.091ZM89.8826 54.8385C99.6999 39.716 111.279 27.5015 124.069 18.9157C114.544 27.564 105.951 38.8926 98.586 52.3009C80.9182 84.4645 70.0653 128.964 70.0653 178.63C70.0653 228.296 80.9182 272.796 98.586 304.959C105.951 318.367 114.544 329.696 124.069 338.344C111.279 329.759 99.6999 317.544 89.8825 302.422C69.5682 271.129 56.928 227.544 56.928 178.63C56.928 129.716 69.5682 86.1306 89.8826 54.8385ZM133.855 16.8237C122.05 25.4164 111.351 38.3176 102.358 54.6886C85.1578 86.0012 74.4444 129.642 74.4444 178.63C74.4444 227.618 85.1578 271.259 102.358 302.572C111.351 318.942 122.05 331.844 133.855 340.436C125.172 331.49 117.419 319.324 110.886 304.787C96.4478 272.662 87.5816 228.226 87.5816 178.63C87.5816 129.034 96.4478 84.5985 110.886 52.4734C117.419 37.9364 125.172 25.7697 133.855 16.8237ZM114.83 54.516C122.811 36.7593 132.375 23.195 142.865 14.7375C135.381 23.8363 128.738 36.8084 123.194 52.669C111.985 84.7362 105.098 129.1 105.098 178.63C105.098 228.16 111.984 272.524 123.194 304.591C128.738 320.452 135.381 333.424 142.865 342.523C132.375 334.065 122.811 320.501 114.83 302.744C100.74 271.393 91.9607 227.689 91.9607 178.63C91.9607 129.572 100.74 85.8671 114.83 54.516ZM151.012 12.6496C149.445 14.0997 147.895 15.7459 146.364 17.5861C139.274 26.1118 132.787 38.6076 127.294 54.3205C116.315 85.7295 109.477 129.506 109.477 178.63C109.477 227.754 116.315 271.531 127.294 302.94C132.787 318.653 139.274 331.148 146.364 339.674C147.895 341.514 149.445 343.16 151.012 344.61C150.57 343.93 150.133 343.227 149.703 342.503C144.293 333.397 139.504 320.352 135.515 304.374C127.527 272.384 122.614 228.099 122.614 178.63C122.614 129.161 127.527 84.8764 135.515 52.8862C139.504 36.9082 144.293 23.8631 149.703 14.757C150.133 14.0332 150.57 13.3302 151.012 12.6496ZM153.395 17.2846C155.864 13.1294 158.345 10.0603 160.799 7.99367C150.094 30.5731 142.32 98.4292 142.32 178.63C142.32 258.831 150.094 326.687 160.799 349.266C158.345 347.2 155.864 344.131 153.395 339.976C148.327 331.444 143.68 318.917 139.745 303.157C131.883 271.671 126.993 227.816 126.993 178.63C126.993 129.444 131.883 85.5892 139.745 54.1032C143.68 38.3432 148.327 25.8161 153.395 17.2846ZM170.423 350.759C169.369 352.226 168.746 352.503 168.595 352.552C168.443 352.503 167.82 352.226 166.766 350.759C165.442 348.917 163.975 345.907 162.47 341.578C159.478 332.974 156.701 320.253 154.341 304.207C149.632 272.191 146.699 227.79 146.699 178.63C146.699 129.47 149.632 85.0691 154.341 53.0527C156.701 37.0074 159.478 24.2865 162.47 15.6817C163.975 11.3529 165.442 8.34283 166.766 6.50083C167.82 5.03435 168.443 4.75694 168.595 4.70847C168.746 4.75694 169.369 5.03435 170.423 6.50083C171.747 8.34283 173.214 11.3529 174.719 15.6817C177.712 24.2865 180.488 37.0074 182.848 53.0527C187.557 85.0691 190.49 129.47 190.49 178.63C190.49 227.79 187.557 272.191 182.848 304.207C180.488 320.253 177.712 332.974 174.719 341.578C173.214 345.907 171.747 348.917 170.423 350.759Z" fill="url(#paint0_linear_13_185)"/>
<path fill-rule="evenodd" clip-rule="evenodd" d="M195.198 0.0038952C288.273 0.0039013 363.793 78.6407 363.793 178.634C363.793 278.627 288.273 357.264 195.198 357.264C180.687 357.264 168.924 277.289 168.924 178.634C168.924 79.9793 180.687 0.00389424 195.198 0.0038952ZM272.959 25.1426C324.441 54.2153 359.414 111.498 359.414 178.634C359.414 245.77 324.441 303.053 272.959 332.125C316.933 301.135 346.277 244.421 346.277 178.634C346.277 112.847 316.933 56.1332 272.959 25.1426ZM341.898 178.634C341.898 109.821 309.133 51.5557 261.462 23.1898C301.776 53.7612 328.76 111.592 328.76 178.634C328.76 245.675 301.776 303.507 261.462 334.078C309.133 305.712 341.898 247.447 341.898 178.634ZM250.306 21.0949C293.953 48.5674 324.381 107.91 324.381 178.634C324.381 249.358 293.953 308.701 250.306 336.173C260.38 327.883 269.536 317.386 277.503 305.113C298.397 272.929 311.244 228.375 311.244 178.634C311.244 128.893 298.397 84.3389 277.503 52.1548C269.536 39.8823 260.38 29.3855 250.306 21.0949ZM273.91 54.8424C264.093 39.7199 252.514 27.5054 239.724 18.9196C249.249 27.5679 257.842 38.8965 265.207 52.3048C282.875 84.4683 293.728 128.968 293.728 178.634C293.728 228.3 282.875 272.8 265.207 304.963C257.842 318.371 249.249 329.7 239.724 338.348C252.514 329.762 264.093 317.548 273.91 302.425C294.225 271.133 306.865 227.548 306.865 178.634C306.865 129.72 294.225 86.1345 273.91 54.8424ZM229.938 16.8276C241.743 25.4203 252.442 38.3215 261.435 54.6925C278.635 86.0051 289.349 129.646 289.349 178.634C289.349 227.622 278.635 271.263 261.435 302.575C252.442 318.946 241.743 331.848 229.938 340.44C238.621 331.494 246.374 319.328 252.907 304.791C267.345 272.665 276.211 228.23 276.211 178.634C276.211 129.038 267.345 84.6024 252.907 52.4773C246.374 37.9403 238.621 25.7736 229.938 16.8276ZM248.963 54.5199C240.982 36.7631 231.418 23.1989 220.928 14.7413C228.412 23.8402 235.055 36.8123 240.599 52.6729C251.808 84.7401 258.695 129.104 258.695 178.634C258.695 228.164 251.808 272.528 240.599 304.595C235.055 320.456 228.412 333.428 220.928 342.527C231.418 334.069 240.982 320.505 248.963 302.748C263.053 271.397 271.832 227.692 271.832 178.634C271.832 129.575 263.053 85.871 248.963 54.5199ZM212.781 12.6535C214.348 14.1036 215.898 15.7498 217.429 17.59C224.519 26.1157 231.006 38.6115 236.499 54.3244C247.478 85.7334 254.316 129.51 254.316 178.634C254.316 227.758 247.478 271.535 236.499 302.944C231.006 318.656 224.519 331.152 217.429 339.678C215.898 341.518 214.348 343.164 212.781 344.614C213.223 343.934 213.66 343.231 214.09 342.507C219.5 333.401 224.289 320.356 228.278 304.378C236.266 272.388 241.179 228.103 241.179 178.634C241.179 129.165 236.266 84.8803 228.278 52.8901C224.289 36.9121 219.5 23.867 214.09 14.7609C213.66 14.037 213.223 13.3341 212.781 12.6535ZM210.398 17.2885C207.929 13.1333 205.448 10.0641 202.994 7.99756C213.699 30.5769 221.473 98.4331 221.473 178.634C221.473 258.835 213.699 326.691 202.994 349.27C205.448 347.204 207.929 344.135 210.398 339.979C215.466 331.448 220.113 318.921 224.048 303.161C231.91 271.675 236.8 227.82 236.8 178.634C236.8 129.448 231.91 85.5931 224.048 54.1071C220.113 38.347 215.466 25.82 210.398 17.2885ZM193.37 350.763C194.424 352.23 195.047 352.507 195.198 352.556C195.35 352.507 195.972 352.23 197.027 350.763C198.351 348.921 199.818 345.911 201.323 341.582C204.315 332.977 207.092 320.257 209.452 304.211C214.161 272.195 217.094 227.794 217.094 178.634C217.094 129.474 214.161 85.0729 209.452 53.0566C207.092 37.0113 204.315 24.2904 201.323 15.6855C199.818 11.3568 198.351 8.34671 197.027 6.50471C195.973 5.03823 195.35 4.76082 195.198 4.71235C195.047 4.76082 194.424 5.03823 193.37 6.50471C192.046 8.34671 190.579 11.3568 189.074 15.6855C186.081 24.2904 183.305 37.0113 180.945 53.0566C176.236 85.0729 173.303 129.474 173.303 178.634C173.303 227.794 176.236 272.195 180.945 304.211C183.305 320.257 186.081 332.977 189.074 341.582C190.579 345.911 192.046 348.921 193.37 350.763Z" fill="url(#paint1_linear_13_185)"/>
<defs>
<linearGradient id="paint0_linear_13_185" x1="-9.98988" y1="189.59" x2="204.026" y2="177.977" gradientUnits="userSpaceOnUse">
<stop stop-color="#D9D9D9"/>
<stop offset="1" stop-color="white" stop-opacity="0"/>
</linearGradient>
<linearGradient id="paint1_linear_13_185" x1="394.809" y1="176.322" x2="159.671" y2="178.318" gradientUnits="userSpaceOnUse">
<stop stop-color="#D9D9D9"/>
<stop offset="1" stop-color="white" stop-opacity="0"/>
</linearGradient>
</defs>
</svg>
