<svg width="22" height="22" viewBox="0 0 22 22" fill="none" xmlns="http://www.w3.org/2000/svg">
<g id="1828249 1" clip-path="url(#clip0_127_3492)">
<path id="Vector" d="M8.92323 17.8746C6.77547 17.8746 5.02734 16.1265 5.02734 13.9787V4.58301H3.42323C2.03262 4.58301 0.902344 5.71312 0.902344 7.10373V19.4787C0.902344 20.8693 2.03262 21.9996 3.42323 21.9996H14.8815C16.2721 21.9996 17.4023 20.8693 17.4023 19.4787V17.8746H8.92323Z" fill="#7D7E93"/>
<path id="Vector_2" d="M21.069 2.52089C21.069 1.12843 19.9405 0 18.5482 0H8.92323C7.53078 0 6.40234 1.12843 6.40234 2.52089V13.9791C6.40234 15.3716 7.53078 16.5 8.92323 16.5H18.5482C19.9405 16.5 21.069 15.3716 21.069 13.9791V2.52089Z" fill="#9B9CA8"/>
</g>
<defs>
<clipPath id="clip0_127_3492">
<rect width="22" height="22" fill="white"/>
</clipPath>
</defs>
</svg>
