<svg width="65" height="64" viewBox="0 0 65 64" fill="none" xmlns="http://www.w3.org/2000/svg">
<g id="Group 33440">
<g id="Rectangle 4256" filter="url(#filter0_d_127_3474)">
<rect x="12.5" y="6" width="40" height="40" rx="12" fill="url(#paint0_linear_127_3474)"/>
</g>
<path id="Page-1" d="M20.834 37.6667L22.5414 31.4559C21.2195 29.1716 20.6917 26.517 21.0397 23.9037C21.3877 21.2904 22.5921 18.8643 24.4661 17.0017C26.3402 15.1391 28.7792 13.9439 31.4051 13.6015C34.0309 13.2591 36.6969 13.7885 38.9897 15.1078C41.2825 16.427 43.074 18.4624 44.0865 20.8983C45.099 23.3342 45.2759 26.0345 44.5898 28.5807C43.9037 31.1269 42.3929 33.3766 40.2917 34.9811C38.1904 36.5856 35.6161 37.4552 32.9678 37.4552H32.9636C30.9547 37.4536 28.9781 36.9525 27.2133 35.9973L20.834 37.6667ZM27.5084 33.8328L27.8735 34.0485C29.9795 35.2894 32.4694 35.7187 34.872 35.2552C37.2747 34.7917 39.4232 33.4676 40.9111 31.5334C42.3989 29.5992 43.1229 27.1891 42.9458 24.7594C42.7688 22.3297 41.7031 20.0488 39.9504 18.3486C38.1977 16.6484 35.8797 15.6467 33.4351 15.5331C30.9904 15.4196 28.5887 16.2021 26.6847 17.7325C24.7806 19.263 23.5062 21.4351 23.1026 23.8379C22.6991 26.2407 23.1945 28.7073 24.495 30.771L24.7336 31.147L23.7218 34.8215L27.5067 33.8328H27.5084ZM36.095 31.231C35.7003 31.2331 35.3077 31.1736 34.9315 31.0547C34.3493 30.8749 33.7771 30.6645 33.2174 30.4244C31.1592 29.4154 29.4057 27.8825 28.1348 25.9812L28.0851 25.9081C27.3741 25.0208 26.9455 23.9425 26.8541 22.8112C26.8433 22.3594 26.9257 21.9103 27.0965 21.4916C27.2672 21.0729 27.5225 20.6936 27.8465 20.3772L27.9055 20.3134C28.0056 20.1989 28.1287 20.1065 28.2668 20.042C28.4048 19.9776 28.5549 19.9425 28.7073 19.9391C28.9004 19.9391 29.1045 19.9391 29.2832 19.95H29.3785C29.564 19.95 29.7613 19.9894 29.9603 20.4628C30.0446 20.655 30.1567 20.937 30.2807 21.2366V21.245C30.5395 21.8728 30.8329 22.5837 30.8835 22.6853C30.9316 22.7636 30.9591 22.8527 30.9635 22.9443C30.9679 23.036 30.9491 23.1273 30.9088 23.2098L30.8675 23.2937C30.8022 23.4454 30.715 23.5868 30.6087 23.7134C30.5581 23.7721 30.5058 23.8351 30.4535 23.8989C30.3523 24.0223 30.2478 24.1507 30.1576 24.2346C30.0125 24.379 29.8481 24.5426 30.0252 24.8456C30.4763 25.6155 31.0401 26.3142 31.698 26.9187C32.3538 27.5057 33.1047 27.9779 33.9189 28.3152C34.0032 28.3513 34.0673 28.379 34.1162 28.4034C34.2162 28.4603 34.3282 28.4934 34.4433 28.4999C34.5065 28.4979 34.5684 28.4817 34.6244 28.4527C34.6804 28.4236 34.7292 28.3824 34.7671 28.332C34.9054 28.1742 35.5099 27.4709 35.719 27.157C35.7525 27.0913 35.8029 27.0357 35.8652 26.9959C35.9274 26.9561 35.9992 26.9335 36.0731 26.9304C36.1844 26.938 36.2935 26.9641 36.3961 27.0076C36.6667 27.1067 38.1068 27.81 38.45 27.9812L38.6186 28.0651C38.7764 28.118 38.9178 28.2105 39.0292 28.3337C39.1124 28.8161 39.0514 29.3123 38.8538 29.7605C38.6333 30.1254 38.3389 30.4407 37.9894 30.6864C37.6398 30.932 37.2428 31.1026 36.8235 31.1873C36.5822 31.2207 36.3387 31.2361 36.095 31.2335V31.231Z" fill="#FDFDFD"/>
</g>
<defs>
<filter id="filter0_d_127_3474" x="0.5" y="0" width="64" height="64" filterUnits="userSpaceOnUse" color-interpolation-filters="sRGB">
<feFlood flood-opacity="0" result="BackgroundImageFix"/>
<feColorMatrix in="SourceAlpha" type="matrix" values="0 0 0 0 0 0 0 0 0 0 0 0 0 0 0 0 0 0 127 0" result="hardAlpha"/>
<feOffset dy="6"/>
<feGaussianBlur stdDeviation="6"/>
<feColorMatrix type="matrix" values="0 0 0 0 0.239216 0 0 0 0 0.752941 0 0 0 0 0.309804 0 0 0 0.2 0"/>
<feBlend mode="normal" in2="BackgroundImageFix" result="effect1_dropShadow_127_3474"/>
<feBlend mode="normal" in="SourceGraphic" in2="effect1_dropShadow_127_3474" result="shape"/>
</filter>
<linearGradient id="paint0_linear_127_3474" x1="50" y1="11" x2="12.5" y2="46" gradientUnits="userSpaceOnUse">
<stop stop-color="#5BD066"/>
<stop offset="1" stop-color="#27B43E"/>
</linearGradient>
</defs>
</svg>
