<svg width="65" height="64" viewBox="0 0 65 64" fill="none" xmlns="http://www.w3.org/2000/svg">
<g id="Group 33446">
<g id="Rectangle 4254" filter="url(#filter0_d_127_3453)">
<rect x="12.5" y="6" width="40" height="40" rx="12" fill="url(#paint0_linear_127_3453)"/>
</g>
<g id="Group 33445">
<path id="Subtract" fill-rule="evenodd" clip-rule="evenodd" d="M25.3808 38.303V34.0338C24.0338 33.0374 22.9369 31.7415 22.1766 30.2484C21.4163 28.7553 21.0135 27.106 21 25.4305C21 19.3013 26.325 14.333 32.8942 14.333C39.4633 14.333 44.7875 19.3022 44.7875 25.4305C44.7875 31.5588 39.4625 36.528 32.8933 36.528C31.7024 36.5291 30.5171 36.3628 29.3725 36.0338L25.3808 38.303ZM25.2092 29.1821L31.6259 22.3904L34.7017 25.5371L40.475 22.3904L34.0967 29.1813L31.0467 25.9788L25.2092 29.1821Z" fill="white"/>
</g>
</g>
<defs>
<filter id="filter0_d_127_3453" x="0.5" y="0" width="64" height="64" filterUnits="userSpaceOnUse" color-interpolation-filters="sRGB">
<feFlood flood-opacity="0" result="BackgroundImageFix"/>
<feColorMatrix in="SourceAlpha" type="matrix" values="0 0 0 0 0 0 0 0 0 0 0 0 0 0 0 0 0 0 127 0" result="hardAlpha"/>
<feOffset dy="6"/>
<feGaussianBlur stdDeviation="6"/>
<feColorMatrix type="matrix" values="0 0 0 0 0.482353 0 0 0 0 0.282353 0 0 0 0 1 0 0 0 0.2 0"/>
<feBlend mode="normal" in2="BackgroundImageFix" result="effect1_dropShadow_127_3453"/>
<feBlend mode="normal" in="SourceGraphic" in2="effect1_dropShadow_127_3453" result="shape"/>
</filter>
<linearGradient id="paint0_linear_127_3453" x1="45.3757" y1="8.20118" x2="23.1262" y2="45.6354" gradientUnits="userSpaceOnUse">
<stop stop-color="#FD607A"/>
<stop offset="0.463542" stop-color="#913BFF"/>
<stop offset="1" stop-color="#1A7BFF"/>
</linearGradient>
</defs>
</svg>
