<svg width="65" height="64" viewBox="0 0 65 64" fill="none" xmlns="http://www.w3.org/2000/svg">
<g id="Group 33449" filter="url(#filter0_d_127_3461)">
<g id="Group 33448">
<rect id="bg" x="12.5" y="6" width="40" height="40" rx="12" fill="url(#paint0_radial_127_3461)"/>
<rect id="bg_2" x="12.5" y="6" width="40" height="40" rx="12" fill="url(#paint1_radial_127_3461)"/>
<rect id="bg_3" x="12.5" y="6" width="40" height="40" rx="12" fill="url(#paint2_radial_127_3461)"/>
</g>
<path id="Shape" d="M32.4993 36.8337C29.5837 36.8337 29.1986 36.821 28.0323 36.7685C27.1337 36.7494 26.2447 36.5791 25.4027 36.2649C24.6796 35.9931 24.0247 35.5665 23.484 35.0148C22.9327 34.4737 22.5063 33.8186 22.2348 33.0953C21.9205 32.2532 21.7503 31.3643 21.7312 30.4657C21.6787 29.3011 21.666 28.9152 21.666 26.0003C21.666 23.1049 21.6787 22.7156 21.7312 21.5333C21.7493 20.6347 21.9193 19.7456 22.2339 18.9036C22.5067 18.1809 22.9335 17.5261 23.4848 16.985C24.0256 16.4336 24.6805 16.0072 25.4035 15.7357C26.2455 15.4213 27.1345 15.2511 28.0331 15.2322C29.1986 15.1797 29.5845 15.167 32.4993 15.167C35.4142 15.167 35.8001 15.1797 36.9639 15.2322C37.8633 15.2512 38.7531 15.4215 39.596 15.7357C40.3184 16.0075 40.9727 16.4339 41.513 16.985C42.0643 17.5261 42.4912 18.1809 42.7639 18.9036C43.0763 19.7462 43.2465 20.6349 43.2675 21.5333C43.32 22.6995 43.3327 23.0889 43.3327 26.0003C43.3327 28.9118 43.32 29.3011 43.2684 30.4674C43.2473 31.3655 43.0771 32.2538 42.7648 33.0962C42.4861 33.8157 42.0604 34.4691 41.5149 35.0149C40.9695 35.5606 40.3162 35.9867 39.5969 36.2658C38.7542 36.5799 37.8647 36.7501 36.9656 36.7693C35.8001 36.8218 35.4142 36.8337 32.4993 36.8337ZM31.5286 17.1136C29.5151 17.1136 29.1334 17.1288 28.1229 17.1745C27.4357 17.1824 26.7551 17.309 26.1111 17.5486C25.6404 17.7224 25.2147 17.9995 24.8652 18.3594C24.5053 18.7089 24.2282 19.1346 24.0544 19.6053C23.8154 20.2492 23.6892 20.9294 23.6812 21.6162C23.6296 22.7529 23.6186 23.0948 23.6186 25.9927C23.6186 28.8906 23.6296 29.2342 23.6812 30.3701C23.6892 31.0568 23.8154 31.7371 24.0544 32.381C24.2283 32.8514 24.5053 33.2768 24.8652 33.626C25.2147 33.9859 25.6404 34.263 26.1111 34.4368C26.7555 34.675 27.4359 34.8012 28.1229 34.81C29.273 34.8625 29.6167 34.8735 32.5002 34.8735C35.3837 34.8735 35.7265 34.8625 36.8775 34.81C37.5643 34.802 38.2446 34.6758 38.8885 34.4368C39.3554 34.2565 39.7795 33.9805 40.1336 33.6266C40.4876 33.2727 40.7638 32.8487 40.9443 32.3818C41.1832 31.7379 41.3095 31.0577 41.3175 30.3709C41.37 29.2207 41.381 28.8771 41.381 25.9952C41.381 23.1134 41.37 22.7698 41.3175 21.6196C41.3095 20.9328 41.1833 20.2526 40.9443 19.6087C40.7702 19.1381 40.4932 18.7125 40.1335 18.3628C39.7842 18.0028 39.3584 17.726 38.8876 17.5529C38.2437 17.3139 37.5635 17.1876 36.8767 17.1796C35.74 17.128 35.3981 17.117 32.4993 17.117H31.5286V17.1136ZM32.4993 31.5626C31.399 31.5626 30.3234 31.2363 29.4086 30.625C28.4937 30.0136 27.7807 29.1448 27.3596 28.1282C26.9386 27.1116 26.8285 25.993 27.0432 24.9139C27.2579 23.8347 27.7879 22.8435 28.566 22.0655C29.344 21.2875 30.3354 20.7577 31.4146 20.5432C32.4938 20.3286 33.6123 20.4389 34.6288 20.8601C35.6453 21.2813 36.5141 21.9945 37.1253 22.9094C37.7365 23.8244 38.0626 24.9 38.0624 26.0003C38.0604 27.4751 37.4736 28.8888 36.4308 29.9315C35.3879 30.9742 33.9741 31.5608 32.4993 31.5626ZM32.4993 22.3889C31.7854 22.3893 31.0875 22.6013 30.494 22.9982C29.9005 23.3951 29.438 23.959 29.1649 24.6188C28.8919 25.2785 28.8206 26.0043 28.96 26.7046C29.0995 27.4048 29.4434 28.048 29.9483 28.5528C30.4532 29.0576 31.0965 29.4014 31.7968 29.5407C32.497 29.6799 33.2229 29.6085 33.8825 29.3353C34.5422 29.0621 35.106 28.5994 35.5028 28.0058C35.8996 27.4122 36.1114 26.7143 36.1116 26.0003C36.1105 25.0428 35.7295 24.1248 35.0522 23.4479C34.375 22.771 33.4569 22.3905 32.4993 22.3898V22.3889ZM38.2825 21.5146C38.0253 21.5145 37.7739 21.438 37.5601 21.2949C37.3464 21.1518 37.1799 20.9485 37.0817 20.7108C36.9836 20.473 36.9581 20.2115 37.0087 19.9593C37.0592 19.7071 37.1834 19.4755 37.3656 19.2939C37.5478 19.1123 37.7797 18.9889 38.0321 18.9392C38.2845 18.8894 38.5459 18.9157 38.7834 19.0147C39.0208 19.1136 39.2235 19.2808 39.3659 19.495C39.5083 19.7092 39.584 19.9608 39.5833 20.218C39.5822 20.5623 39.4447 20.8921 39.2008 21.1351C38.957 21.3782 38.6268 21.5146 38.2825 21.5146Z" fill="white"/>
</g>
<defs>
<filter id="filter0_d_127_3461" x="0.5" y="0" width="64" height="64" filterUnits="userSpaceOnUse" color-interpolation-filters="sRGB">
<feFlood flood-opacity="0" result="BackgroundImageFix"/>
<feColorMatrix in="SourceAlpha" type="matrix" values="0 0 0 0 0 0 0 0 0 0 0 0 0 0 0 0 0 0 127 0" result="hardAlpha"/>
<feOffset dy="6"/>
<feGaussianBlur stdDeviation="6"/>
<feColorMatrix type="matrix" values="0 0 0 0 0.882353 0 0 0 0 0.258824 0 0 0 0 0.364706 0 0 0 0.2 0"/>
<feBlend mode="normal" in2="BackgroundImageFix" result="effect1_dropShadow_127_3461"/>
<feBlend mode="normal" in="SourceGraphic" in2="effect1_dropShadow_127_3461" result="shape"/>
</filter>
<radialGradient id="paint0_radial_127_3461" cx="0" cy="0" r="1" gradientUnits="userSpaceOnUse" gradientTransform="translate(26.7857 36) rotate(-55.3758) scale(36.4566)">
<stop stop-color="#B13589"/>
<stop offset="0.79309" stop-color="#C62F94"/>
<stop offset="1" stop-color="#8A3AC8"/>
</radialGradient>
<radialGradient id="paint1_radial_127_3461" cx="0" cy="0" r="1" gradientUnits="userSpaceOnUse" gradientTransform="translate(25.3571 47.4286) rotate(-65.1363) scale(32.2775)">
<stop stop-color="#E0E8B7"/>
<stop offset="0.444662" stop-color="#FB8A2E"/>
<stop offset="0.71474" stop-color="#E2425C"/>
<stop offset="1" stop-color="#E2425C" stop-opacity="0"/>
</radialGradient>
<radialGradient id="paint2_radial_127_3461" cx="0" cy="0" r="1" gradientUnits="userSpaceOnUse" gradientTransform="translate(10.3571 7.42857) rotate(-8.1301) scale(55.5584 11.8834)">
<stop offset="0.156701" stop-color="#406ADC"/>
<stop offset="0.467799" stop-color="#6A45BE"/>
<stop offset="1" stop-color="#6A45BE" stop-opacity="0"/>
</radialGradient>
</defs>
</svg>
