<svg width="65" height="64" viewBox="0 0 65 64" fill="none" xmlns="http://www.w3.org/2000/svg">
<g id="Group 33450">
<g id="Rectangle 4254" filter="url(#filter0_d_127_3479)">
<rect x="12.5" y="6" width="40" height="40" rx="12" fill="url(#paint0_linear_127_3479)"/>
</g>
<path id="Subtract" fill-rule="evenodd" clip-rule="evenodd" d="M28.355 14.1631C29.5682 14.1631 30.706 14.467 31.6871 14.9983C32.0152 14.9665 32.348 14.9503 32.6845 14.9503C38.3361 14.9503 42.9177 19.5318 42.9177 25.1835C42.9177 25.6887 42.8811 26.1853 42.8104 26.6709C43.3779 27.6165 43.7041 28.7235 43.7041 29.9066C43.7041 33.3845 40.8847 36.2039 37.4068 36.2039C36.2233 36.2039 35.116 35.8775 34.1702 35.3097C33.6851 35.3802 33.1891 35.4167 32.6845 35.4167C27.0328 35.4167 22.4512 30.8352 22.4512 25.1835C22.4512 24.6537 22.4915 24.1333 22.5691 23.6253C21.9937 22.6954 21.6641 21.6141 21.6641 20.4605C21.6641 16.9825 24.6597 14.1631 28.355 14.1631ZM36.0652 21.5101C36.6198 20.4605 34.4016 19.6733 32.738 19.6733C31.0744 19.6733 28.8563 20.7229 28.8563 22.5596C28.8563 24.3964 30.2426 25.0523 31.629 25.7083C31.9062 25.8395 32.2181 25.9543 32.5301 26.0691C33.4659 26.4135 34.4016 26.7579 34.4016 27.5451C34.4016 28.5946 33.2926 28.857 32.1835 28.857C31.7866 28.857 31.3293 28.6688 30.8765 28.4825C30.064 28.1481 29.2658 27.8196 28.8563 28.5946C28.3018 29.6442 29.9481 30.6937 32.1835 30.6937C34.6789 30.6937 36.6198 29.6442 36.6198 27.5451C36.6198 25.5776 34.4276 24.7627 33.0112 24.2361C32.9163 24.2009 32.825 24.1669 32.738 24.134C31.3517 23.6092 31.0744 23.0844 31.0744 22.5596C31.0744 22.0349 31.629 21.5101 32.738 21.5101C33.1077 21.5101 33.5164 21.6695 33.9251 21.8289C34.7425 22.1476 35.5599 22.4664 36.0652 21.5101Z" fill="white"/>
</g>
<defs>
<filter id="filter0_d_127_3479" x="0.5" y="0" width="64" height="64" filterUnits="userSpaceOnUse" color-interpolation-filters="sRGB">
<feFlood flood-opacity="0" result="BackgroundImageFix"/>
<feColorMatrix in="SourceAlpha" type="matrix" values="0 0 0 0 0 0 0 0 0 0 0 0 0 0 0 0 0 0 127 0" result="hardAlpha"/>
<feOffset dy="6"/>
<feGaussianBlur stdDeviation="6"/>
<feColorMatrix type="matrix" values="0 0 0 0 0.113725 0 0 0 0 0.498039 0 0 0 0 0.847059 0 0 0 0.2 0"/>
<feBlend mode="normal" in2="BackgroundImageFix" result="effect1_dropShadow_127_3479"/>
<feBlend mode="normal" in="SourceGraphic" in2="effect1_dropShadow_127_3479" result="shape"/>
</filter>
<linearGradient id="paint0_linear_127_3479" x1="16.9444" y1="13.7778" x2="46.9444" y2="38.7778" gradientUnits="userSpaceOnUse">
<stop stop-color="#58D3EE"/>
<stop offset="1" stop-color="#0B66D1"/>
</linearGradient>
</defs>
</svg>
