<svg width="22" height="22" viewBox="0 0 22 22" fill="none" xmlns="http://www.w3.org/2000/svg">
<g id="199778-200 1">
<g id="Group">
<path id="Vector" d="M9.32044 2.43742L9.31947 2.43761C8.03329 2.70604 6.95829 3.17678 5.78739 4.01306C3.28601 5.77436 1.87831 9.21988 2.37099 12.2992L2.37121 12.3005L2.37122 12.3005C2.48694 12.9838 2.6076 13.4759 2.75349 13.8012C2.89829 14.1241 3.09163 14.3314 3.37283 14.3394L3.37711 14.3395V14.3395C3.48692 14.3395 3.58903 14.3022 3.66542 14.2177C3.73741 14.138 3.77269 14.0316 3.78715 13.9183C3.81578 13.6941 3.77051 13.379 3.66513 12.9851C3.22194 11.2877 3.29776 9.85683 3.89119 8.29209C4.77535 6.00673 6.93512 4.13896 9.32744 3.61093L9.32875 3.61064C10.5445 3.33091 12.2978 3.42845 13.4263 3.81527C14.303 4.11835 15.2758 4.64898 15.8754 5.1521L9.32044 2.43742ZM9.32044 2.43742C11.8189 1.93325 14.5817 2.63872 16.5958 4.30591L16.5958 4.30595L16.765 4.4461L16.7909 4.19691L16.791 4.19624C16.8046 4.07064 16.8169 3.96789 16.8331 3.88713C16.8487 3.80862 16.8714 3.73138 16.9172 3.66948C16.9692 3.59915 17.0383 3.56488 17.1111 3.54917C17.1756 3.53526 17.251 3.53445 17.3251 3.53445H17.6551H17.8008L17.805 3.68013L17.838 4.82413L17.8381 4.82456C17.8491 5.24862 17.8466 5.5504 17.8279 5.75641C17.8185 5.85899 17.8046 5.94497 17.7834 6.01316C17.7633 6.07731 17.7293 6.15094 17.6613 6.19626L17.6615 6.19656L17.6525 6.20169C17.623 6.21857 17.5884 6.22796 17.5644 6.23373C17.5362 6.2405 17.503 6.24656 17.4667 6.25206C17.394 6.26311 17.3011 6.27308 17.1954 6.28148C16.9834 6.29832 16.7127 6.30945 16.4341 6.30945C16.0447 6.30945 15.7756 6.30144 15.5871 6.27345C15.3976 6.24532 15.2601 6.19318 15.1646 6.08034L15.1643 6.07993C15.0916 5.99346 15.0439 5.89405 15.0422 5.78634C15.0404 5.67614 15.0871 5.57998 15.16 5.50414C15.2982 5.36034 15.5419 5.2748 15.8336 5.24048L15.8338 5.24046L15.9624 5.2255L15.8757 5.15235L9.32044 2.43742Z" fill="#EA4359" stroke="#EA4359" stroke-width="0.3"/>
<path id="Vector_2" d="M9.8416 6.65459L9.84159 6.65458L9.84287 6.65392C10.3387 6.39447 10.9369 6.33274 11.4876 6.43663C12.038 6.54045 12.5519 6.81185 12.8727 7.23182L12.8727 7.23181L12.8736 7.23308C13.2638 7.76089 13.4102 8.27866 13.4102 9.14052V9.79458L13.8445 9.82172L13.8446 9.82173L14.3616 9.85473L14.4539 9.86062L14.4552 9.95305L14.4882 12.1971L14.4882 12.1972C14.4992 13.0607 14.4965 13.63 14.4785 13.9937C14.4695 14.1751 14.4565 14.3092 14.4385 14.4043C14.4296 14.4519 14.4187 14.4931 14.4049 14.5272C14.3917 14.5597 14.372 14.5953 14.3396 14.6205L14.3401 14.6211L14.3289 14.6277C14.306 14.6412 14.2776 14.6469 14.2619 14.6498C14.2411 14.6537 14.2156 14.6571 14.1866 14.6603C14.1284 14.6666 14.0503 14.6723 13.956 14.6775C13.7671 14.6879 13.5083 14.6965 13.2035 14.7034C12.5937 14.7171 11.7968 14.724 11.0002 14.724C10.2037 14.724 9.40673 14.7171 8.79694 14.7034C8.49218 14.6965 8.23336 14.6879 8.04445 14.6775C7.95017 14.6723 7.87205 14.6666 7.81386 14.6603C7.7849 14.6571 7.75935 14.6537 7.73853 14.6498C7.72286 14.6469 7.69448 14.6412 7.67153 14.6277L7.6711 14.6284L7.66083 14.6205C7.62842 14.5953 7.60872 14.5597 7.59551 14.5272C7.58171 14.4931 7.57089 14.4519 7.56192 14.4043C7.54395 14.3092 7.53098 14.1751 7.52198 13.9937C7.50393 13.63 7.50124 13.0607 7.51224 12.1972L7.51224 12.1971L7.54524 9.95305L7.5466 9.86062L7.63886 9.85473L8.15572 9.82173L8.15586 9.82173L8.57235 9.79456L8.6123 8.90573C8.6123 8.90561 8.61231 8.9055 8.61231 8.90538C8.62872 8.47345 8.64524 8.20698 8.69767 7.9958C8.75164 7.77846 8.84252 7.62339 8.99371 7.4106L8.9937 7.41059L8.99481 7.40908C9.18918 7.14611 9.56287 6.80557 9.8416 6.65459ZM11.7258 7.59573L11.7257 7.59575L11.7239 7.59445C11.5202 7.45186 11.2211 7.35952 11.0002 7.35952C10.5252 7.35952 9.98562 7.70834 9.74767 8.18424L9.74773 8.18427L9.74602 8.18741C9.62606 8.40733 9.56023 8.78311 9.56023 9.20652V9.79952H11.0002H12.4402V9.20652C12.4402 8.80273 12.3836 8.4824 12.2675 8.22301C12.152 7.96525 11.9754 7.76216 11.7258 7.59573ZM10.9774 13.7375L13.4852 13.7058V12.2645V10.8233L10.9774 10.7915L10.977 10.7915L8.46023 10.7704V12.2645V13.7587L10.977 13.7375L10.9774 13.7375Z" fill="#EA4359" stroke="#EA4359" stroke-width="0.2"/>
<path id="Vector_3" d="M5.27308 17.6481C5.25247 17.6342 5.23305 17.6211 5.21494 17.6091C5.20501 17.6779 5.19568 17.7619 5.18769 17.8537C5.17954 17.9623 5.17155 18.0539 5.15855 18.1273C5.14582 18.199 5.1253 18.2733 5.07918 18.3339C5.02774 18.4015 4.95923 18.4338 4.88904 18.4491C4.8253 18.4629 4.75091 18.4645 4.67518 18.4645H4.34518H4.19944L4.19524 18.3189L4.16224 17.1749L4.16223 17.1744C4.15121 16.7504 4.15369 16.4486 4.17242 16.2426C4.18175 16.14 4.19567 16.054 4.21694 15.9858C4.23694 15.9217 4.27099 15.8481 4.33897 15.8027L4.33878 15.8024L4.34776 15.7973C4.3773 15.7804 4.41187 15.771 4.43596 15.7653C4.46421 15.7585 4.49745 15.7524 4.53377 15.7469C4.60668 15.7359 4.69992 15.7259 4.80637 15.7175C5.01969 15.7007 5.29314 15.6895 5.57718 15.6895C6.02728 15.6895 6.30102 15.6943 6.47472 15.7297C6.56607 15.7483 6.64318 15.7776 6.70778 15.8283C6.77205 15.8788 6.81139 15.9408 6.84272 16.0003C6.96291 16.226 6.91555 16.4585 6.75421 16.6236C6.60828 16.773 6.3789 16.8602 6.11581 16.8688L6.26456 16.9872L6.26488 16.9874C7.77281 18.1938 9.91018 18.7878 11.8286 18.5507C16.4587 17.9678 19.4675 13.5774 18.3238 9.06742L18.3235 9.0664C18.2358 8.71007 18.1835 8.46604 18.1672 8.29395C18.151 8.12275 18.1663 7.98754 18.2533 7.88057C18.4774 7.59803 18.906 7.59753 19.1317 7.8533L19.132 7.85298L19.1392 7.86254C19.1705 7.90429 19.1991 7.97263 19.2238 8.03788C19.2511 8.11012 19.2817 8.20169 19.3138 8.30567C19.3781 8.51396 19.4503 8.77814 19.5169 9.04986L19.5171 9.05075C19.8644 10.5073 19.7867 12.3403 19.315 13.7104L19.3149 13.7107C17.9846 17.5451 14.5258 19.909 10.5522 19.6963L10.5521 19.6963C8.68652 19.5958 7.21726 19.069 5.76324 17.9953C5.5777 17.8589 5.40332 17.7363 5.27308 17.6481Z" fill="#EA4359" stroke="#EA4359" stroke-width="0.3"/>
</g>
</g>
</svg>
