<svg width="22" height="22" viewBox="0 0 22 22" fill="none" xmlns="http://www.w3.org/2000/svg">
<g id="verified 1">
<g id="Group">
<path id="Vector" d="M10.742 0.0390625C10.6819 0.0605469 8.72251 0.872656 6.38072 1.84375C3.05064 3.22734 2.09673 3.64414 1.98931 3.74726C1.70142 4.02226 1.71001 3.94062 1.7315 7.03008C1.74869 9.91328 1.76587 10.2055 1.95494 11.2152C2.50064 14.0941 3.88423 16.7281 5.94244 18.782C7.17564 20.0195 8.55064 20.9691 10.2049 21.734C10.6647 21.9445 10.7506 21.9746 10.9999 21.9746C11.2491 21.9746 11.3393 21.9445 11.8077 21.7297C16.6417 19.5211 19.8256 14.9621 20.2381 9.65117C20.2596 9.34609 20.2811 7.99258 20.2811 6.64336C20.2811 4.34883 20.2725 4.17695 20.1995 4.01797C20.1565 3.92344 20.062 3.79453 19.9932 3.73008C19.9073 3.64844 18.5409 3.05976 15.576 1.82227C11.1889 0.000391006 11.0256 -0.0597668 10.742 0.0390625ZM14.8026 3.36484L18.5409 4.92031L18.5366 7.32656C18.5366 9.60391 18.5323 9.76719 18.4377 10.3559C18.3862 10.6996 18.296 11.1809 18.2401 11.4301C17.3807 15.1684 14.8799 18.3223 11.4338 20.0023L10.9956 20.2172L10.4284 19.9293C6.94791 18.1719 4.46861 14.9406 3.69517 11.1637C3.47603 10.0895 3.45884 9.79727 3.45884 7.28359V4.92461L7.19712 3.36914C9.25533 2.50977 10.9655 1.80937 10.9999 1.80937C11.0342 1.80937 12.7487 2.50977 14.8026 3.36484Z" fill="#EA4359"/>
<path id="Vector_2" d="M14.0079 7.63186C13.9133 7.67053 13.1442 8.4053 11.9583 9.59553L10.0547 11.4905L9.10084 10.5451C8.3231 9.7717 8.10396 9.58264 7.94068 9.51819C7.28755 9.27327 6.64732 9.88342 6.83209 10.5709C6.87935 10.7428 7.02974 10.9104 8.17701 12.0662C8.89029 12.7838 9.54341 13.4112 9.62505 13.4627C9.81841 13.583 10.2223 13.5916 10.4415 13.4799C10.5274 13.4412 11.6102 12.3842 12.852 11.1381C14.9403 9.04553 15.1165 8.85647 15.168 8.6717C15.3571 7.96272 14.6696 7.34397 14.0079 7.63186Z" fill="#EA4359"/>
</g>
</g>
</svg>
