<svg width="24" height="24" viewBox="0 0 24 24" fill="none" xmlns="http://www.w3.org/2000/svg">
<g id="file 1" clip-path="url(#clip0_171_4079)">
<g id="Group">
<path id="Vector" d="M3.5625 0.0887051C3.00938 0.26683 2.61563 0.524643 2.27813 0.932455C2.03438 1.22308 1.94063 1.39652 1.80938 1.79027L1.6875 2.15121V11.9996V21.8481L1.80469 22.2043C2.025 22.8512 2.47031 23.3903 3.04219 23.6903C3.68438 24.0231 2.97188 23.9996 12.0141 23.9996H20.1609L20.5172 23.8825C21.3328 23.6059 21.9141 23.0293 22.2047 22.195L22.3359 21.82V13.5934C22.3359 6.88089 22.3266 5.33871 22.275 5.22152C22.2094 5.07152 17.25 0.17308 17.0484 0.0605793C16.9688 0.0137043 15.525 0.00432968 10.3828 0.00432968C4.20469 0.00432968 3.80625 0.00901794 3.5625 0.0887051ZM15.9938 3.21996L16.0078 5.0387L16.1391 5.3012C16.2891 5.61527 16.65 5.96683 16.9594 6.10745C17.1703 6.20589 17.2406 6.21058 19.0453 6.22464L20.9062 6.2387L20.8969 13.9356C20.8828 20.9762 20.8781 21.6465 20.8031 21.8012C20.6906 22.0543 20.4141 22.3403 20.1656 22.4621L19.9453 22.57H12H4.05469L3.83438 22.4621C3.58594 22.3403 3.30938 22.0543 3.19688 21.8012C3.12188 21.6465 3.11719 20.859 3.11719 11.9996C3.11719 1.3262 3.08906 2.23558 3.41719 1.86058C3.62344 1.63089 3.84844 1.49964 4.11563 1.45277C4.2375 1.43402 6.95625 1.41527 10.1578 1.41058L15.9797 1.40589L15.9938 3.21996ZM19.2656 4.23714L19.8047 4.78089H18.675C17.8641 4.78089 17.5359 4.76683 17.4938 4.72464C17.4516 4.68246 17.4375 4.3637 17.4375 3.57152V2.47464L18.0844 3.08402C18.4359 3.42152 18.9703 3.94183 19.2656 4.23714Z" fill="#EA4359"/>
<path id="Vector_2" d="M6.57188 11.25C6.40781 11.3531 6.23438 11.6625 6.23438 11.8594C6.23438 12.0562 6.40781 12.3656 6.57188 12.4688C6.72656 12.5625 6.79688 12.5625 11.925 12.5625C17.1188 12.5625 17.1234 12.5625 17.2828 12.4641C17.4844 12.3375 17.5969 12.1266 17.5969 11.8594C17.5969 11.5922 17.4844 11.3812 17.2828 11.2547C17.1234 11.1562 17.1188 11.1562 11.925 11.1562C6.79688 11.1562 6.72656 11.1562 6.57188 11.25Z" fill="#EA4359"/>
<path id="Vector_3" d="M6.57188 14.0625C6.40781 14.1656 6.23438 14.475 6.23438 14.6719C6.23438 14.8687 6.40781 15.1781 6.57188 15.2812C6.72188 15.375 6.79688 15.375 11.0109 15.375C15.1594 15.375 15.3 15.3703 15.4406 15.2859C15.8766 15.0141 15.8766 14.3297 15.4406 14.0578C15.3 13.9734 15.1594 13.9688 11.0109 13.9688C6.79688 13.9688 6.72188 13.9688 6.57188 14.0625Z" fill="#EA4359"/>
<path id="Vector_4" d="M6.57188 16.875C6.40781 16.9781 6.23438 17.2875 6.23438 17.4844C6.23438 17.6812 6.40781 17.9906 6.57188 18.0938C6.72656 18.1875 6.79688 18.1875 11.5219 18.1875H16.3172L16.5141 18.0047C16.7109 17.8219 16.7109 17.8172 16.7109 17.4844C16.7109 17.1516 16.7109 17.1469 16.5141 16.9641L16.3172 16.7812H11.5219C6.79688 16.7812 6.72656 16.7812 6.57188 16.875Z" fill="#EA4359"/>
</g>
</g>
<defs>
<clipPath id="clip0_171_4079">
<rect width="24" height="24" fill="white"/>
</clipPath>
</defs>
</svg>
