<svg width="24" height="24" viewBox="0 0 24 24" fill="none" xmlns="http://www.w3.org/2000/svg">
<g id="bell 2">
<g id="Group">
<path id="Vector" d="M11.2968 1.52851C10.9265 1.57069 10.2281 1.70663 9.96086 1.78163C7.22336 2.57382 5.2218 4.74882 4.63118 7.58007C4.53274 8.06757 4.52805 8.20351 4.50461 11.391L4.47649 14.6957L4.36399 14.9066C4.30305 15.0238 3.91868 15.5957 3.51555 16.1769C3.10774 16.7582 2.73743 17.3066 2.68586 17.3957C2.55461 17.6441 2.56399 18.3754 2.7093 18.6473C2.87336 18.9566 3.1218 19.2051 3.41243 19.3457L3.67961 19.4769L6.00461 19.491L8.32493 19.5051L8.38586 19.7488C8.47493 20.1051 8.77493 20.6957 9.0468 21.0566C9.4968 21.6473 10.2796 22.1676 11.0624 22.3879C11.4796 22.5051 12.5062 22.5098 12.9374 22.3879C14.2218 22.041 15.3046 20.9723 15.6093 19.7488L15.6749 19.5051L17.9952 19.491L20.3202 19.4769L20.5874 19.3457C20.8781 19.2051 21.1265 18.9566 21.2906 18.6473C21.4359 18.3754 21.4452 17.6441 21.314 17.3957C21.2624 17.3066 20.8921 16.7582 20.4843 16.1769C20.0812 15.5957 19.6968 15.0238 19.6359 14.9066L19.5234 14.6957L19.4952 11.3676C19.4624 7.66913 19.4671 7.71132 19.1202 6.66132C18.2624 4.07382 16.1156 2.18007 13.4296 1.64101C12.9749 1.54726 11.6859 1.48163 11.2968 1.52851ZM13.2656 3.13632C14.8077 3.48788 16.1249 4.38788 17.0015 5.69569C17.3812 6.26288 17.6859 6.97069 17.8687 7.73476C17.9624 8.10976 17.9671 8.31132 17.9999 11.4848C18.0327 15.1035 18.0234 14.9957 18.2952 15.5723C18.3562 15.7082 18.7452 16.3035 19.1577 16.8988L19.9077 17.9769L15.9562 17.991C13.7812 17.9957 10.2187 17.9957 8.04368 17.991L4.09211 17.9769L4.84211 16.8988C5.25461 16.3035 5.64368 15.7082 5.70461 15.5723C5.97649 14.9957 5.96711 15.1035 5.99993 11.4848C6.03274 8.31132 6.03743 8.10976 6.13118 7.73476C6.51555 6.15038 7.39211 4.87538 8.69524 3.99882C9.41243 3.51601 10.4531 3.13163 11.3202 3.03319C11.7281 2.98632 12.8671 3.04726 13.2656 3.13632ZM14.0906 19.5801C14.0015 19.8098 13.7296 20.1894 13.5046 20.4004C12.6046 21.2254 11.2968 21.1973 10.4249 20.3254C10.1906 20.091 9.89055 19.641 9.89055 19.5238C9.89055 19.5098 10.8421 19.5004 12.0046 19.5004C13.9968 19.5004 14.1187 19.5051 14.0906 19.5801Z" fill="#EA4359"/>
</g>
</g>
</svg>
