<svg width="24" height="24" viewBox="0 0 24 24" fill="none" xmlns="http://www.w3.org/2000/svg">
<g id="delete 1">
<g id="Group">
<path id="Vector" d="M9.70315 1.79958C9.15003 1.95427 8.7094 2.31989 8.45159 2.84958L8.27346 3.20583L8.2594 3.96989L8.24534 4.73395H5.5219C2.48909 4.73395 2.59221 4.72458 2.36253 5.05739C2.20784 5.28708 2.20315 5.68552 2.35784 5.90583C2.57815 6.23395 2.64378 6.25739 3.49221 6.27145L4.26096 6.28552L4.2844 6.52927C4.30315 6.6652 4.50471 9.67458 4.7344 13.2183C5.06721 18.309 5.17034 19.734 5.24065 19.9918C5.37659 20.5027 5.64846 20.9761 6.02346 21.3511C6.39378 21.7215 6.72659 21.9324 7.22815 22.1152L7.57034 22.2418L11.8688 22.2558C16.6313 22.2699 16.5282 22.2746 17.1703 21.9652C18 21.5621 18.6422 20.7605 18.8438 19.8605C18.8672 19.7527 19.0641 16.7855 19.2844 13.2652C19.5047 9.74489 19.6969 6.73552 19.7157 6.57614L19.7391 6.2902L20.5078 6.27145C21.1969 6.25739 21.286 6.24802 21.4078 6.15895C21.6422 5.98552 21.75 5.77927 21.75 5.49333C21.75 5.17458 21.6235 4.95427 21.3703 4.8277C21.1969 4.73864 21.0844 4.73395 18.4735 4.73395H15.7594L15.7407 3.96989L15.7266 3.20583L15.5485 2.84958C15.286 2.31051 14.8453 1.94958 14.2735 1.79958C13.95 1.71051 10.0172 1.7152 9.70315 1.79958ZM13.9828 3.37927C14.1797 3.46833 14.2219 3.59958 14.2407 4.18083L14.2594 4.73395H12H9.74065L9.7594 4.18083C9.77815 3.60895 9.82034 3.47302 10.0078 3.37927C10.1438 3.31364 13.8375 3.31364 13.9828 3.37927ZM18.1641 6.34177C18.1735 6.34645 17.9907 9.30427 17.7657 12.9136C17.461 17.7371 17.3344 19.5277 17.2828 19.6777C17.1235 20.1324 16.7438 20.5027 16.2891 20.648C16.0782 20.7136 15.5813 20.7183 11.9063 20.709L7.75784 20.6949L7.54221 20.5871C7.20003 20.423 6.95628 20.1793 6.7969 19.8558L6.65159 19.5605L6.28128 13.284C6.07971 9.83395 5.90159 6.83864 5.88284 6.63708L5.85471 6.26677L12.0047 6.29489C15.3891 6.31364 18.1594 6.33239 18.1641 6.34177Z" fill="#EA4359"/>
<path id="Vector_2" d="M8.7187 8.76973C8.65308 8.79316 8.54995 8.86348 8.4937 8.91973C8.24058 9.1541 8.24995 8.94785 8.24995 13.4994C8.24995 18.1775 8.2312 17.8729 8.55933 18.126C8.80777 18.3135 9.19214 18.3135 9.44058 18.126C9.7687 17.8729 9.74995 18.1822 9.74995 13.4854V9.24785L9.64683 9.09316C9.58589 9.00879 9.48277 8.89629 9.41245 8.84473C9.26714 8.73691 8.89214 8.69473 8.7187 8.76973Z" fill="#EA4359"/>
<path id="Vector_3" d="M11.7187 8.76973C11.6531 8.79316 11.55 8.86348 11.4937 8.91973C11.2406 9.1541 11.25 8.94785 11.25 13.4994C11.25 18.1775 11.2312 17.8729 11.5593 18.126C11.8078 18.3135 12.1921 18.3135 12.4406 18.126C12.7687 17.8729 12.75 18.1822 12.75 13.4854V9.24785L12.6468 9.09316C12.5859 9.00879 12.4828 8.89629 12.4125 8.84473C12.2671 8.73691 11.8921 8.69473 11.7187 8.76973Z" fill="#EA4359"/>
<path id="Vector_4" d="M14.7187 8.77031C14.6531 8.79375 14.55 8.86406 14.4937 8.92031C14.2406 9.15469 14.25 8.94844 14.25 13.5C14.25 18.1781 14.2312 17.8734 14.5593 18.1266C14.7046 18.2344 14.7796 18.2578 15 18.2578C15.2203 18.2578 15.2953 18.2344 15.4406 18.1266C15.7687 17.8734 15.75 18.1828 15.75 13.4859V9.24844L15.6468 9.09375C15.5859 9.00937 15.4828 8.89687 15.4125 8.84531C15.2671 8.7375 14.8921 8.69531 14.7187 8.77031Z" fill="#EA4359"/>
</g>
</g>
</svg>
