<svg width="24" height="24" viewBox="0 0 24 24" fill="none" xmlns="http://www.w3.org/2000/svg">
<g id="wallet 1" clip-path="url(#clip0_171_3954)">
<g id="Group">
<path id="Vector" d="M7.15312 1.5701C4.0125 2.71385 2.78906 3.1826 2.63437 3.2951C2.37187 3.4826 2.13281 3.8201 2.03906 4.13885C1.91719 4.54666 1.94531 4.8326 2.175 5.49354L2.38125 6.09354H2.25469C2.03906 6.09354 1.66406 6.21541 1.31719 6.39822C0.745312 6.69822 0.276562 7.28885 0.075 7.96385C0.009375 8.19354 0 8.90135 0 15.0513C0 21.7076 0.0046875 21.8904 0.09375 22.1763C0.35625 23.0248 1.05937 23.6998 1.92187 23.9295C2.14219 23.9904 3.47812 23.9998 11.2922 23.9998C21.3562 23.9998 20.6531 24.0185 21.2578 23.7045C21.6187 23.5123 22.1062 23.0248 22.2984 22.6592C22.5797 22.1342 22.5937 21.9982 22.5937 20.1748V18.5248L22.7484 18.492C23.1891 18.3982 23.6156 18.0467 23.8641 17.5779L23.9766 17.367L23.9906 15.0654C24.0047 12.792 24 12.7592 23.9016 12.4873C23.7609 12.1123 23.3719 11.7232 23.0016 11.5873C22.8516 11.531 22.7016 11.4842 22.6641 11.4842C22.6031 11.4842 22.5937 11.2545 22.5937 9.85291C22.5937 8.48885 22.5797 8.17947 22.5187 7.96385C22.3875 7.51854 22.1719 7.16229 21.8484 6.84354C21.4031 6.39822 20.9578 6.17322 20.3906 6.10291L20.1328 6.0701L20.1094 4.96854C20.0859 3.91854 20.0812 3.8576 19.9687 3.6326C19.8047 3.29041 19.4344 2.94354 19.1016 2.8076C18.8203 2.6951 18.8156 2.6951 16.3875 2.67166L13.9594 2.64822L13.6453 1.78104C13.3125 0.857599 13.2234 0.674786 12.975 0.435724C12.6844 0.159161 12.3562 0.0279121 11.8828 0.0138493L11.4609 -0.00490189L7.15312 1.5701ZM12.0281 1.61697C12.0656 1.71072 12.1641 1.9826 12.2531 2.22166L12.4078 2.66229L12.0797 2.6951C11.5922 2.74197 11.2734 2.87791 10.9922 3.15916C10.8609 3.29041 10.7016 3.50135 10.6406 3.6326C10.5281 3.8576 10.5234 3.90916 10.5094 4.95916L10.4953 6.04666L7.20937 6.03729L3.92344 6.02322L3.67031 5.34822C3.53437 4.97791 3.42187 4.64979 3.42187 4.61697C3.42187 4.58416 3.45469 4.52791 3.49687 4.4951C3.60937 4.40604 11.6719 1.46229 11.8266 1.4576C11.9344 1.45291 11.9719 1.48104 12.0281 1.61697ZM18.5906 4.19041C18.6703 4.25135 18.6797 4.33104 18.6937 5.15135L18.7078 6.04666H15.3047H11.9016L11.9156 5.15135C11.9297 4.33104 11.9391 4.25135 12.0187 4.19041C12.1547 4.09197 18.4547 4.09197 18.5906 4.19041ZM20.4422 7.59822C20.6953 7.71541 20.9297 7.9451 21.0516 8.19354C21.1594 8.40916 21.1641 8.45135 21.1781 9.91854L21.1969 11.4279L19.6312 11.4467C18.225 11.4654 18.0328 11.4795 17.7047 11.5685C16.7109 11.8404 15.8859 12.5201 15.4453 13.4295C15.15 14.0435 15.0797 14.3951 15.1031 15.1263C15.1406 16.1435 15.4172 16.781 16.125 17.4842C16.5844 17.9388 16.8937 18.1357 17.4703 18.3467L17.8828 18.492L19.5375 18.506L21.1922 18.5201L21.1781 20.0763C21.1641 21.4451 21.1547 21.656 21.0797 21.8154C20.9437 22.1201 20.7844 22.2935 20.5219 22.4248L20.2781 22.5467H11.2969H2.31562L2.07187 22.4248C1.80937 22.2935 1.65 22.1201 1.51406 21.8154C1.43437 21.642 1.42969 21.2529 1.41562 15.2342C1.40625 11.2029 1.42031 8.72322 1.44844 8.53572C1.52344 8.04822 1.8375 7.68729 2.2875 7.56541C2.46094 7.51854 4.34531 7.50916 11.3906 7.51385C19.4766 7.52322 20.2875 7.52791 20.4422 7.59822ZM22.4812 12.956C22.5656 13.0217 22.5703 13.106 22.5844 14.9295C22.5937 16.5935 22.5891 16.856 22.5234 16.9498L22.4531 17.0623H20.3484C18.3703 17.0623 18.2344 17.0576 17.9766 16.9685C17.4047 16.7717 16.9922 16.4013 16.7203 15.8482C16.5797 15.5529 16.5703 15.5107 16.5703 14.9951C16.5703 14.4654 16.575 14.4467 16.7437 14.1045C17.0391 13.5092 17.6484 13.0451 18.2672 12.9373C18.3891 12.9185 19.3687 12.8998 20.4422 12.8951C22.0547 12.8904 22.4062 12.8998 22.4812 12.956Z" fill="#EA4359"/>
<path id="Vector_2" d="M18.3516 14.3203C18.2484 14.3578 18.1594 14.3906 18.1547 14.3906C18.15 14.3906 18.0891 14.4703 18.0234 14.5641C17.9297 14.7047 17.9062 14.7984 17.9062 15.0141C17.9062 15.2625 17.9203 15.3 18.0891 15.4828C18.2719 15.6797 18.2766 15.6797 18.6094 15.6797C18.9422 15.6797 18.9469 15.6797 19.1297 15.4828C19.2984 15.3 19.3125 15.2625 19.3125 15.0188C19.3125 14.7141 19.2188 14.5219 19.0078 14.3906C18.8016 14.2641 18.5672 14.2406 18.3516 14.3203Z" fill="#EA4359"/>
</g>
</g>
<defs>
<clipPath id="clip0_171_3954">
<rect width="24" height="24" fill="white"/>
</clipPath>
</defs>
</svg>
