<svg width="24" height="24" viewBox="0 0 24 24" fill="none" xmlns="http://www.w3.org/2000/svg">
<g id="share (1) 1">
<g id="Group">
<path id="Vector" d="M12.3374 2.34375C12.253 2.39531 12.1452 2.50312 12.0936 2.5875C12.0046 2.7375 11.9999 2.83125 11.9999 5.49375V8.25H11.6811C10.8796 8.25 9.38895 8.41406 8.39051 8.60625C6.20145 9.0375 4.62645 9.80156 3.39832 11.0344C2.33426 12.1031 1.70145 13.2797 1.26551 15C0.937386 16.2844 0.796761 17.6109 0.768636 19.6641C0.745199 21.2156 0.745199 21.2625 0.838949 21.4125C0.984261 21.6422 1.19989 21.75 1.49989 21.75C1.7952 21.75 2.02489 21.6328 2.13739 21.4312C2.17489 21.3609 2.39051 20.9672 2.61082 20.5547C3.10301 19.6266 3.39832 19.1766 3.85301 18.6328C4.81864 17.4844 6.13114 16.7297 7.96864 16.2656C8.93426 16.0219 10.0546 15.8719 11.3108 15.8156L11.9999 15.7828V18.5203C11.9999 21.1687 12.0046 21.2625 12.0936 21.4125C12.2343 21.6422 12.4452 21.75 12.7499 21.75C12.8905 21.7453 13.0546 21.7219 13.1155 21.6891C13.303 21.5859 23.1139 12.4969 23.1843 12.3656C23.2218 12.2953 23.2499 12.1312 23.2499 12C23.2499 11.8687 23.2218 11.7047 23.1843 11.6344C23.1139 11.5031 13.303 2.41406 13.1155 2.31093C12.9468 2.21718 12.5155 2.23594 12.3374 2.34375ZM17.503 8.45156C19.5936 10.3828 21.3046 11.9766 21.3046 12C21.3046 12.0234 19.5561 13.6547 17.4139 15.6328L13.5233 19.2234L13.4999 16.9547C13.4718 14.4422 13.4858 14.5406 13.1577 14.3437C13.0218 14.2594 12.9186 14.25 12.1593 14.25C9.20614 14.25 6.58114 14.8172 4.79051 15.8484C3.9702 16.3219 3.1077 17.0484 2.5452 17.7375L2.36239 17.9672L2.37645 17.7844C2.64364 14.9156 3.26239 13.3031 4.57489 12.0422C5.0577 11.5828 5.46551 11.2969 6.12176 10.9641C7.52801 10.2516 9.30457 9.89062 11.8218 9.80156C13.1061 9.75469 13.1811 9.73594 13.3921 9.42187L13.4999 9.26719V7.01719V4.76719L13.5983 4.85625C13.6546 4.90312 15.4124 6.525 17.503 8.45156Z" fill="#EA4359"/>
</g>
</g>
</svg>
