<svg width="24" height="24" viewBox="0 0 24 24" fill="none" xmlns="http://www.w3.org/2000/svg">
<g id="info (1) 1" clip-path="url(#clip0_171_4100)">
<g id="Group">
<path id="Vector" d="M10.8281 0.0285606C9.26243 0.216061 7.97806 0.581686 6.67962 1.21918C5.51243 1.79575 4.57962 2.45669 3.614 3.39887C1.75306 5.21293 0.585872 7.44419 0.131185 10.0504C-0.00475261 10.8567 -0.0422526 12.6332 0.0655599 13.4536C0.267122 14.9629 0.637435 16.177 1.29837 17.4754C1.8515 18.5676 2.49837 19.4629 3.39837 20.3864C5.339 22.3786 7.72493 23.5645 10.5468 23.9348C11.3624 24.0379 13.139 24.0051 13.9499 23.8645C15.1781 23.6536 16.2234 23.3161 17.3202 22.777C18.4827 22.2051 19.4202 21.5442 20.3859 20.602C22.2796 18.7598 23.4515 16.4911 23.8921 13.8051C24.014 13.0645 24.014 10.9364 23.8921 10.1957C23.5499 8.12856 22.7999 6.36137 21.5577 4.70669C21.1124 4.10669 19.8843 2.88325 19.3031 2.44731C17.639 1.20512 15.8577 0.441061 13.8515 0.112936C13.4015 0.0426235 11.2499 -0.0183144 10.8281 0.0285606ZM13.4531 2.13325C17.2218 2.70044 20.3437 5.36762 21.5109 9.00981C22.5234 12.1832 21.8343 15.7129 19.6827 18.3379C18.2624 20.0723 16.1812 21.3192 13.9546 21.7739C11.2124 22.3317 8.33431 21.6848 6.05618 19.9973C5.43275 19.5332 4.39212 18.4926 3.97025 17.902C2.40462 15.7317 1.75306 13.1301 2.13275 10.5661C2.80775 6.03325 6.43587 2.56919 11.039 2.06762C11.5968 2.00669 12.839 2.0395 13.4531 2.13325Z" fill="#EA4359"/>
<path id="Vector_2" d="M11.7093 5.01094C11.4609 5.09062 11.25 5.25937 11.1187 5.475C10.9359 5.78906 10.9359 6.21094 11.1234 6.525C11.3109 6.84844 11.6015 7.00781 12 7.00781C12.3328 7.00312 12.5062 6.9375 12.7218 6.72187C12.9375 6.50625 13.0031 6.33281 13.0078 6C13.0078 5.61094 12.8484 5.31094 12.539 5.13281C12.314 4.99687 11.925 4.94531 11.7093 5.01094Z" fill="#EA4359"/>
<path id="Vector_3" d="M11.5546 9.07969C11.3155 9.20156 11.114 9.42656 11.039 9.65625C10.9733 9.84844 10.9687 10.3922 10.978 14.0906L10.9921 18.3047L11.1233 18.525C11.3108 18.8484 11.6015 19.0078 11.9999 19.0078C12.3327 19.0031 12.5062 18.9375 12.7218 18.7219C13.0265 18.4125 13.0077 18.7266 13.0218 14.1094C13.0312 11.0766 13.0218 9.8625 12.9796 9.72187C12.914 9.47344 12.6983 9.21094 12.464 9.09375C12.239 8.97656 11.7608 8.97187 11.5546 9.07969Z" fill="#EA4359"/>
</g>
</g>
<defs>
<clipPath id="clip0_171_4100">
<rect width="24" height="24" fill="white"/>
</clipPath>
</defs>
</svg>
