<svg width="24" height="24" viewBox="0 0 24 24" fill="none" xmlns="http://www.w3.org/2000/svg">
<g id="video-camera (1) 1" clip-path="url(#clip0_171_3992)">
<g id="Group">
<path id="Vector" d="M1.66406 4.56562C0.9375 4.74844 0.342188 5.30156 0.09375 6.02344C0 6.29062 0 6.4125 0 11.9812C0 17.4281 0.0046875 17.6766 0.0890625 17.9484C0.31875 18.6844 0.979688 19.2891 1.725 19.4484C1.90313 19.4859 3.78281 19.5 8.26406 19.5C14.2172 19.5 14.5734 19.4953 14.8641 19.4156C15.5719 19.2188 16.1109 18.7172 16.3734 18.0047C16.4578 17.7703 16.4719 17.6109 16.4906 16.5422L16.5094 15.3422L19.8328 16.6687C21.8063 17.4609 23.2172 18 23.3063 18C23.5219 18 23.7703 17.8641 23.8922 17.6766L24 17.5172V12V6.48281L23.8922 6.32344C23.7703 6.13594 23.5219 6 23.3063 6C23.2172 6 21.8063 6.53906 19.8328 7.33125L16.5094 8.65781L16.4906 7.45781C16.4719 6.38906 16.4578 6.22969 16.3734 5.99531C16.1063 5.27344 15.5484 4.75781 14.8359 4.57031C14.5922 4.50937 13.7719 4.5 8.22656 4.50469C3.32813 4.50937 1.84688 4.52344 1.66406 4.56562ZM14.5172 6.00469C14.7141 6.075 14.9484 6.32344 15 6.51562C15.0656 6.74531 15.0609 17.2594 15 17.4937C14.9391 17.7047 14.6391 17.9859 14.4281 18.0234C14.3438 18.0375 11.4984 18.0422 8.10469 18.0375L1.93594 18.0234L1.76719 17.8922C1.40156 17.6156 1.42969 18.1125 1.42969 12C1.42969 7.01719 1.43438 6.525 1.50469 6.39844C1.59844 6.22969 1.71094 6.12656 1.89844 6.02812C2.025 5.9625 2.70469 5.95312 8.2125 5.95312C12.45 5.95312 14.4281 5.96719 14.5172 6.00469ZM22.5938 12C22.5938 14.2922 22.5797 16.1719 22.5609 16.1719C22.5375 16.1719 21.1688 15.6281 19.5141 14.9672L16.5 13.7625V12V10.2375L19.4906 9.0375C21.1313 8.37656 22.5047 7.83281 22.5375 7.83281C22.5797 7.82812 22.5938 8.69062 22.5938 12Z" fill="#EA4359"/>
</g>
</g>
<defs>
<clipPath id="clip0_171_3992">
<rect width="24" height="24" fill="white"/>
</clipPath>
</defs>
</svg>
