<svg width="24" height="24" viewBox="0 0 24 24" fill="none" xmlns="http://www.w3.org/2000/svg">
<g id="megaphone 1">
<g id="Group">
<path id="Vector" d="M14.5875 0.84375C14.2734 1.03594 14.25 1.125 14.25 2.25C14.25 3.17344 14.2594 3.27187 14.3438 3.4125C14.4844 3.6375 14.6953 3.75 15 3.75C15.3047 3.75 15.5156 3.6375 15.6562 3.4125C15.7406 3.27187 15.75 3.17344 15.75 2.25C15.75 1.32656 15.7406 1.22812 15.6562 1.0875C15.5156 0.8625 15.3047 0.75 15 0.75C14.8266 0.75 14.6906 0.778125 14.5875 0.84375Z" fill="#EA4359"/>
<path id="Vector_2" d="M10.4672 2.15625C10.3828 2.20312 10.2657 2.325 10.2047 2.42344C10.1391 2.52187 9.0516 4.56094 7.78597 6.96094L5.47972 11.3203L4.08285 12.7266C3.3141 13.5 2.61566 14.2359 2.53597 14.3578C2.10472 14.9953 1.93128 15.8109 2.06722 16.5656C2.1141 16.8516 2.1141 16.8562 1.95003 17.1328C1.52816 17.8312 1.39222 18.675 1.57503 19.4531C1.80941 20.4516 2.64847 21.3328 3.65628 21.6281C4.46722 21.8672 5.47035 21.7125 6.15472 21.2391C6.34691 21.1078 6.37503 21.1031 6.56722 21.15C7.08285 21.2719 7.88441 21.1781 8.4141 20.9344L8.64847 20.8266L9.70785 21.8719C10.636 22.7906 10.8094 22.9406 11.0907 23.0719C11.3953 23.2172 11.4469 23.2266 11.9297 23.2266C12.3938 23.2266 12.4735 23.2125 12.7172 23.1C13.4766 22.7437 13.9266 21.9 13.7953 21.0797C13.7016 20.5266 13.6125 20.4047 12.4828 19.2656L11.4375 18.2062L11.6719 17.9766C11.8735 17.7797 12.5532 17.4 16.3969 15.3703C21.211 12.8203 21.1219 12.8766 21.1735 12.4781C21.2297 12.0562 21.4266 12.2719 16.2938 7.12969C13.6641 4.49531 11.4235 2.27344 11.325 2.19844C11.175 2.08594 11.0953 2.0625 10.8797 2.0625C10.7016 2.0625 10.5703 2.09062 10.4672 2.15625ZM18.9235 12.2672C18.8157 12.3234 17.1141 13.2234 15.1407 14.2687L11.5547 16.1672L9.31878 13.9312C8.08597 12.7031 7.07816 11.6812 7.07816 11.6625C7.07816 11.6297 10.8844 4.41562 11.0016 4.22344C11.0719 4.11562 11.1141 4.15312 15.0985 8.1375L19.125 12.1641L18.9235 12.2672ZM8.21722 15.0375L10.3172 17.1375L9.17816 18.2672C8.49847 18.9375 7.95941 19.4344 7.83753 19.4953C7.42035 19.7062 6.89535 19.7156 6.49222 19.5141C6.41722 19.4766 5.78441 18.8812 5.09535 18.1922C3.62816 16.7391 3.58597 16.6828 3.58597 16.0781C3.58597 15.4594 3.62816 15.3984 4.94066 14.0719C5.55941 13.4484 6.07503 12.9375 6.0891 12.9375C6.10785 12.9375 7.0641 13.8844 8.21722 15.0375ZM4.70628 20.1703C4.59847 20.2312 4.14847 20.1703 3.9141 20.0672C3.39378 19.8375 3.04691 19.2984 3.04691 18.7266V18.3984L3.9141 19.2656C4.61722 19.9687 4.76722 20.1375 4.70628 20.1703ZM12.2813 21.3609C12.2813 21.5344 12.1032 21.7031 11.9203 21.7031C11.7657 21.7031 11.6813 21.6328 10.7953 20.7562L9.84378 19.8094L10.0875 19.5609L10.336 19.3078L11.3063 20.2875C11.9438 20.925 12.2813 21.2953 12.2813 21.3609Z" fill="#EA4359"/>
<path id="Vector_3" d="M19.1484 3.05156C19.0031 3.13125 17.3906 4.74375 17.3156 4.88437C17.2781 4.95469 17.25 5.12344 17.25 5.25937C17.25 5.71406 17.5359 6 17.9906 6C18.1266 6 18.2859 5.97656 18.3422 5.94844C18.4875 5.87344 20.1047 4.26562 20.1844 4.11562C20.2219 4.04531 20.25 3.87656 20.25 3.74062C20.25 3.28125 19.9641 3 19.5 3C19.3594 3 19.2 3.02812 19.1484 3.05156Z" fill="#EA4359"/>
<path id="Vector_4" d="M19.8375 7.59375C19.6125 7.73438 19.5 7.94531 19.5 8.25C19.5 8.55469 19.6125 8.76562 19.8375 8.90625C19.9781 8.99062 20.0766 9 21 9C21.9234 9 22.0219 8.99062 22.1625 8.90625C22.3875 8.76562 22.5 8.55469 22.5 8.25C22.5 7.94531 22.3875 7.73438 22.1625 7.59375C22.0219 7.50937 21.9234 7.5 21 7.5C20.0766 7.5 19.9781 7.50937 19.8375 7.59375Z" fill="#EA4359"/>
</g>
</g>
</svg>
