<svg width="24" height="24" viewBox="0 0 24 24" fill="none" xmlns="http://www.w3.org/2000/svg">
<g id="live 1">
<g id="Group">
<path id="Vector" d="M5.98719 0.895506C5.77625 0.956444 5.495 1.20957 5.39656 1.42519C5.28875 1.65957 5.28406 2.00644 5.37781 2.24082C5.42937 2.35801 6.04344 3.00488 7.30906 4.27519L9.16531 6.13144L7.13094 6.15019C5.1575 6.16894 5.08719 6.17363 4.76844 6.27675C4.06062 6.51113 3.62469 6.783 3.07156 7.34082C1.895 8.52207 1.20125 10.3314 1.03719 12.6283C0.962186 13.6408 1.00906 16.8189 1.10281 17.4846C1.55281 20.6064 3.1325 22.7908 5.16687 23.1049C5.42937 23.1471 7.2575 23.1564 12.2216 23.1471C18.4841 23.133 18.9434 23.1236 19.2012 23.0486C21.3012 22.4111 22.7309 20.0346 22.9794 16.7814C23.0403 15.9658 23.0403 13.3314 22.9794 12.5158C22.7497 9.48769 21.4512 7.16269 19.5622 6.38457C19.0466 6.17363 18.6528 6.14082 16.6794 6.14082H14.8466L16.7075 4.27519C17.9778 3.00957 18.5919 2.35801 18.6434 2.24082C18.7372 2.00644 18.7325 1.65957 18.6247 1.42519C18.4747 1.10176 18.0856 0.843945 17.7294 0.843945C17.3356 0.843945 17.3684 0.815819 14.6262 3.55332L12.0106 6.16426L9.39969 3.55332C7.15906 1.32207 6.75594 0.937695 6.59656 0.895506C6.37625 0.834568 6.18406 0.834568 5.98719 0.895506ZM18.9481 8.29238C19.6372 8.65332 20.1903 9.44082 20.5841 10.6221C20.9356 11.6721 20.9731 11.9814 20.9966 14.2971C21.02 16.4346 20.9919 16.9689 20.8184 17.8221C20.5137 19.3408 19.7731 20.6064 18.9575 21.0096L18.7372 21.1174H12.0106H5.28406L5.04969 21.0049C4.73094 20.8502 4.20594 20.3018 3.94344 19.8518C3.66219 19.3643 3.41844 18.7502 3.27312 18.1455C3.04812 17.2127 3.03406 17.0346 3.03406 14.6486C3.03406 12.6846 3.04344 12.333 3.11844 11.8877C3.40906 10.1674 4.14969 8.77519 5.00281 8.33457C5.10594 8.27832 5.24187 8.22207 5.3075 8.19863C5.37312 8.17988 8.42 8.16582 12.0809 8.17051L18.7372 8.17988L18.9481 8.29238Z" fill="#EA4359"/>
</g>
<path id="Vector 1" d="M5 13V17H7M9 17V13M11.3333 13L13 17L14.6667 13M19 13H17V15M19 17H17V15M17 15H19" stroke="#EA4359" stroke-width="1.5" stroke-linecap="round" stroke-linejoin="round"/>
</g>
</svg>
