<svg width="24" height="24" viewBox="0 0 24 24" fill="none" xmlns="http://www.w3.org/2000/svg">
<g id="verified 2">
<g id="Group">
<path id="Vector" d="M11.7188 0.0419941C11.6531 0.0654316 9.51565 0.951368 6.96096 2.01074C3.32815 3.52012 2.28752 3.97481 2.17034 4.08731C1.85627 4.38731 1.86565 4.29824 1.88909 7.66856C1.90784 10.8139 1.92659 11.1326 2.13284 12.2342C2.72815 15.3748 4.23752 18.2482 6.48284 20.4889C7.82815 21.8389 9.32815 22.8748 11.1328 23.7092C11.6344 23.9389 11.7281 23.9717 12 23.9717C12.2719 23.9717 12.3703 23.9389 12.8813 23.7045C18.1547 21.2951 21.6281 16.3217 22.0781 10.5279C22.1016 10.1951 22.125 8.71856 22.125 7.24668C22.125 4.74356 22.1156 4.55606 22.036 4.38262C21.9891 4.27949 21.886 4.13887 21.811 4.06856C21.7172 3.97949 20.2266 3.33731 16.9922 1.98731C12.2063 -0.00019455 12.0281 -0.0658188 11.7188 0.0419941ZM16.1485 3.67012L20.2266 5.36699L20.2219 7.99199C20.2219 10.4764 20.2172 10.6545 20.1141 11.2967C20.0578 11.6717 19.9594 12.1967 19.8985 12.4686C18.961 16.5467 16.2328 19.9873 12.4735 21.8201L11.9953 22.0545L11.3766 21.7404C7.57971 19.8232 4.87502 16.2982 4.03127 12.1779C3.79221 11.0061 3.77346 10.6873 3.77346 7.94512V5.37168L7.85158 3.67481C10.0969 2.73731 11.9625 1.97324 12 1.97324C12.0375 1.97324 13.9078 2.73731 16.1485 3.67012Z" fill="#EA4359"/>
<path id="Vector_2" d="M15.2813 8.325C15.1782 8.36719 14.3391 9.16875 13.0454 10.4672L10.9688 12.5344L9.92818 11.5031C9.07975 10.6594 8.84068 10.4531 8.66256 10.3828C7.95006 10.1156 7.25162 10.7813 7.45318 11.5313C7.50475 11.7188 7.66881 11.9016 8.92037 13.1625C9.6985 13.9453 10.411 14.6297 10.5001 14.6859C10.711 14.8172 11.1516 14.8266 11.3907 14.7047C11.4844 14.6625 12.6657 13.5094 14.0204 12.15C16.2985 9.86719 16.4907 9.66094 16.5469 9.45938C16.7532 8.68594 16.0032 8.01094 15.2813 8.325Z" fill="#EA4359"/>
</g>
</g>
</svg>
