<svg width="24" height="24" viewBox="0 0 24 24" fill="none" xmlns="http://www.w3.org/2000/svg">
<g id="key 1">
<g id="Group">
<path id="Vector" d="M17.2689 1.33601C16.5283 1.46726 15.9377 1.70632 15.3564 2.10944C14.9814 2.36726 14.4095 2.93444 14.1658 3.29069C13.8048 3.82038 13.4673 4.67351 13.383 5.27819L13.3548 5.51726L13.1017 5.59694C12.8627 5.67194 12.8205 5.70944 12.4173 6.22507C12.1783 6.52507 11.972 6.79226 11.9533 6.81101C11.9345 6.83444 11.6064 6.76413 11.2314 6.66101C10.8517 6.55319 10.4955 6.46882 10.4392 6.46882C10.2705 6.46882 10.1486 6.58132 9.67984 7.17194L9.2439 7.72507L8.59234 7.54226C7.96421 7.36413 7.72515 7.33132 7.57515 7.38757C7.51421 7.41101 6.82047 8.24538 6.65172 8.49851C6.63765 8.52194 6.40797 8.43288 6.15015 8.30163C5.88765 8.17038 5.63453 8.06257 5.59234 8.06257C5.54546 8.06257 5.25015 8.14694 4.9314 8.25476C4.53297 8.38601 4.33609 8.47507 4.28922 8.54538C4.2564 8.60163 4.04547 9.18757 3.82047 9.84382C3.44547 10.9548 3.41734 11.0532 3.4689 11.2173C3.49703 11.311 3.56734 11.4235 3.62828 11.461C3.7689 11.5548 5.36734 12.0001 5.55953 12.0001C5.6439 12.0001 7.68765 11.3579 10.097 10.5704C12.5064 9.78288 14.4986 9.14069 14.5173 9.14069C14.5408 9.14069 14.6627 9.24851 14.7892 9.37976C15.2627 9.85788 16.0736 10.3219 16.8189 10.5282C17.1002 10.6079 17.1095 10.6173 17.1564 10.8001C17.4798 12.0657 18.3611 13.0548 19.3595 13.2704C19.5048 13.3032 19.8095 13.3126 20.072 13.3032C20.4658 13.2844 20.5689 13.261 20.8314 13.1298C21.0002 13.0454 21.2298 12.8907 21.3423 12.7782C22.1111 12.0094 22.2517 10.4813 21.6845 9.09382C21.6658 9.05163 21.7267 8.92507 21.8345 8.78444C22.1017 8.42819 22.4298 7.76257 22.5752 7.28444C22.697 6.89538 22.7064 6.81101 22.7064 6.00007C22.7064 4.99694 22.6502 4.71101 22.2892 3.95163C21.7455 2.79851 20.822 1.96413 19.6033 1.52819C18.9189 1.28444 17.9767 1.20476 17.2689 1.33601ZM19.022 2.39069C20.222 2.72819 21.1595 3.62351 21.5767 4.81882C21.6939 5.16101 21.722 5.32038 21.7408 5.79851C21.7548 6.15476 21.7408 6.48288 21.7033 6.66569C21.633 7.03601 21.4173 7.59851 21.2345 7.88444L21.0939 8.10944L20.8736 7.88913C20.6205 7.64538 20.147 7.32663 19.8236 7.18132L19.6033 7.08757L19.7533 6.79226C19.8892 6.51569 19.8986 6.46413 19.8986 5.97663C19.8986 5.48444 19.8892 5.44226 19.7439 5.14694C19.5517 4.74851 19.1439 4.36413 18.7642 4.21413C18.5486 4.12976 18.3986 4.10632 18.047 4.10632C17.4705 4.10632 17.1705 4.21882 16.7814 4.57976C16.4439 4.88913 16.2236 5.30163 16.1767 5.71882C16.0314 6.95163 16.9642 7.94538 18.1923 7.86101C18.8767 7.81413 19.5939 8.07663 20.1142 8.56413L20.4142 8.85007L20.297 8.94851C20.1095 9.10788 19.2705 9.51101 18.9377 9.59538C18.5205 9.70788 17.5736 9.70788 17.1564 9.59538C16.9877 9.55319 16.6314 9.40788 16.3595 9.27194C15.9283 9.06101 15.8111 8.97663 15.4267 8.59226C14.9533 8.11413 14.8783 8.06257 14.7048 8.06257C14.6392 8.06257 12.5486 8.72819 10.0642 9.53913L5.54078 11.011L5.10015 10.8891C4.86109 10.8235 4.64547 10.7485 4.62203 10.7298C4.59859 10.711 4.69234 10.3735 4.82828 9.97038L5.07203 9.24851L5.3064 9.17351L5.54546 9.09851L6.0939 9.37507C6.39859 9.52976 6.68922 9.65632 6.74078 9.65632C6.9564 9.65632 7.09703 9.53913 7.53297 8.98601L7.99234 8.40476L8.62515 8.58288C9.37515 8.79382 9.59546 8.80788 9.75484 8.65788C9.81578 8.60163 10.0455 8.32976 10.2611 8.04851C10.4767 7.77194 10.6689 7.54694 10.6923 7.54694C10.7158 7.54694 11.0392 7.63601 11.4189 7.73913C11.9673 7.89382 12.1314 7.92663 12.2486 7.88913C12.3611 7.85632 12.5252 7.69226 12.9189 7.19538L13.4439 6.53913L13.7861 6.41257C13.9783 6.34226 14.1705 6.23913 14.2127 6.18757C14.2548 6.13601 14.3017 5.97194 14.3158 5.82194C14.4189 4.82819 14.7142 4.12976 15.3002 3.48757C15.8673 2.85944 16.6127 2.45632 17.5314 2.27819C17.7939 2.22663 18.6845 2.29226 19.022 2.39069ZM18.3986 5.15163C18.6189 5.25476 18.8158 5.45163 18.8861 5.63913C19.0923 6.18288 18.6048 6.89538 18.033 6.89069C17.672 6.88601 17.2314 6.52976 17.1752 6.19694C17.1611 6.10319 17.147 6.01413 17.1423 6.00007C17.1236 5.85476 17.2314 5.55007 17.3533 5.40944C17.6392 5.08132 18.0377 4.98288 18.3986 5.15163ZM20.9814 10.1532C21.1455 10.8938 20.9955 11.7141 20.6392 12.0516C20.3861 12.2907 20.2173 12.3423 19.8142 12.3188C19.1064 12.2719 18.5486 11.7563 18.1923 10.8235L18.1455 10.6969L18.5064 10.6641C19.2048 10.5985 19.997 10.3313 20.5173 9.98444C20.6673 9.88601 20.8127 9.80163 20.8455 9.80163C20.8783 9.79694 20.9345 9.95163 20.9814 10.1532Z" fill="#EA4359"/>
<path id="Vector_2" d="M2.02976 12.6043C1.89851 12.6465 1.71569 12.7402 1.62663 12.8105C1.41101 12.9746 1.18601 13.3355 1.12507 13.6168C1.09226 13.7762 1.07819 14.934 1.08757 17.1324C1.10163 20.1559 1.10632 20.4277 1.18601 20.5965C1.32194 20.9059 1.57507 21.173 1.86569 21.3137C2.12819 21.4449 2.14694 21.4449 3.12663 21.459C4.32663 21.4777 4.50476 21.4449 4.87038 21.1121C5.00632 20.9902 5.15632 20.8121 5.20788 20.709C5.25944 20.6105 5.31569 20.5355 5.33913 20.5496C5.51726 20.6621 9.31413 22.284 9.61413 22.3824C10.4157 22.6355 10.9735 22.7012 12.2579 22.7012C13.2001 22.7012 13.5751 22.6824 14.1704 22.6027C16.3969 22.298 18.811 21.6512 21.0798 20.7605C22.4016 20.2355 22.8985 19.7715 22.8938 19.0543C22.8891 18.4262 22.3688 17.8684 21.6516 17.7137C21.2907 17.634 20.7704 17.7184 19.1719 18.1168C16.8001 18.7074 15.4923 18.9887 14.5032 19.1105L13.8891 19.1902L12.9563 18.923C12.4454 18.773 11.9204 18.5996 11.7891 18.5387L11.5548 18.4309L11.7423 18.4262C11.8454 18.4262 12.1407 18.4777 12.3985 18.5387C13.1391 18.7262 13.7719 18.7777 14.5079 18.7121C16.486 18.534 17.8126 17.6855 17.8126 16.598C17.8126 16.059 17.5735 15.7449 17.0298 15.5809C16.8891 15.534 16.4438 15.4918 15.8204 15.4684C13.7813 15.3746 13.2141 15.2246 12.4219 14.573C11.4798 13.7949 10.5048 13.3121 9.36101 13.0684C8.72351 12.9324 7.47194 12.923 6.77351 13.0496C6.37976 13.1199 5.61101 13.3262 5.33913 13.4293C5.28288 13.448 5.25476 13.4246 5.23132 13.3309C5.21257 13.2605 5.07663 13.0824 4.92663 12.9371C4.54226 12.548 4.40163 12.5152 3.21569 12.5152C2.43757 12.5199 2.23132 12.534 2.02976 12.6043ZM4.22351 13.6355L4.35944 13.7715V16.9918V20.2121L4.22351 20.348L4.08757 20.484H3.25788C2.35788 20.484 2.22194 20.4512 2.11882 20.2262C2.04382 20.0574 2.03913 14.0059 2.11413 13.7855C2.20319 13.5324 2.32038 13.5043 3.24851 13.4996H4.08757L4.22351 13.6355ZM8.70476 13.9684C9.84851 14.1137 10.7813 14.5309 11.8219 15.3652C12.7735 16.1293 13.4298 16.3215 15.4454 16.4293C16.1157 16.4621 16.7016 16.5043 16.7485 16.523C16.9923 16.6215 16.6548 17.0293 16.1063 17.2965C15.6423 17.5215 15.1501 17.6527 14.4751 17.7277C13.8704 17.7934 13.261 17.7418 12.5391 17.5543C12.1407 17.4512 11.9907 17.4324 11.5501 17.4465C11.0673 17.4605 11.0157 17.4699 10.8048 17.6012C10.2094 17.9715 10.2798 18.759 10.9454 19.2184C11.2407 19.4199 11.7094 19.598 12.7735 19.9027C13.7016 20.1652 13.711 20.1699 14.161 20.1371C15.0938 20.0762 16.6735 19.7574 19.4251 19.073C21.1219 18.6512 21.4454 18.609 21.6938 18.7871C21.9423 18.9699 21.961 19.0496 21.7876 19.2418C21.6094 19.448 21.2813 19.6168 20.4376 19.9449C18.9376 20.5309 16.6782 21.173 15.1876 21.4402C12.9282 21.848 11.0579 21.8387 9.84382 21.4168C9.70319 21.3699 8.62976 20.9105 7.46726 20.4043L5.34382 19.4762V16.9824V14.4934L5.73288 14.3527C6.75007 13.9824 7.77194 13.8512 8.70476 13.9684Z" fill="#EA4359"/>
</g>
</g>
</svg>
