<svg width="24" height="24" viewBox="0 0 24 24" fill="none" xmlns="http://www.w3.org/2000/svg">
<g id="image 11" clip-path="url(#clip0_171_4069)">
<g id="Group">
<path id="Vector" d="M2.3062 0.070118C2.16558 0.102932 1.87495 0.220119 1.64995 0.32793C1.06401 0.618557 0.599951 1.09199 0.314014 1.69199C0.196826 1.93574 0.0796387 2.24512 0.0515137 2.38106C-0.0187988 2.73262 -0.0187988 21.267 0.0515137 21.6186C0.0796387 21.7545 0.196826 22.0639 0.314014 22.3076C0.487451 22.6686 0.590576 22.8139 0.885889 23.1139C1.18589 23.4092 1.3312 23.5123 1.69214 23.6857C1.93589 23.8029 2.24526 23.9201 2.3812 23.9482C2.73276 24.0186 21.2671 24.0186 21.6187 23.9482C21.7546 23.9201 22.064 23.8029 22.3078 23.6857C22.9312 23.3857 23.3859 22.9311 23.6859 22.3076C23.8031 22.0639 23.9203 21.7545 23.9484 21.6186C24.0187 21.267 24.0187 2.73262 23.9484 2.38106C23.9203 2.24512 23.8031 1.93574 23.6859 1.69199C23.3859 1.06856 22.9312 0.613869 22.3078 0.313869C22.064 0.196682 21.7546 0.0794945 21.6187 0.0513687C21.2296 -0.0283184 2.63901 -0.0142555 2.3062 0.070118ZM21.5015 1.55137C21.8765 1.69199 22.3078 2.12324 22.4484 2.49824L22.5468 2.77012L22.5375 7.88418L22.5234 12.9982L20.8546 10.9404C19.9359 9.80606 19.1109 8.81699 19.0218 8.73731C18.614 8.38106 18.0328 8.21231 17.4984 8.29668C16.8187 8.40449 16.9828 8.26387 13.3125 11.9342L9.96089 15.2811L9.8437 15.1686C9.50151 14.8404 7.39683 13.1482 7.21401 13.0545C6.64214 12.7639 5.84995 12.8107 5.32495 13.1623C5.22183 13.2326 4.31714 13.992 3.30933 14.8451L1.47651 16.4061L1.46245 9.58574L1.45308 2.77012L1.5562 2.49824C1.69214 2.12324 2.0812 1.72481 2.46089 1.57012L2.74214 1.45293H11.9859H21.2296L21.5015 1.55137ZM20.2968 12.5857L22.5421 15.3514L22.5468 18.2904C22.5468 21.1779 22.5468 21.2342 22.4484 21.5014C22.3078 21.8764 21.8765 22.3076 21.5015 22.4482L21.2296 22.5467H12H2.77026L2.49839 22.4482C2.12339 22.3076 1.69214 21.8764 1.55151 21.5014C1.45776 21.2482 1.45308 21.1451 1.45308 19.7904L1.45776 18.3514L3.77339 16.3826C5.04839 15.2998 6.15464 14.3857 6.22964 14.3576C6.32808 14.3154 6.40776 14.3107 6.49214 14.3436C6.55776 14.367 6.92339 14.6482 7.30308 14.967C9.81089 17.067 9.82026 17.0764 10.2328 16.9686C10.4109 16.9217 10.8 16.542 13.9921 13.3357C16.514 10.7951 17.5875 9.74981 17.6718 9.73574C17.7375 9.72637 17.8453 9.74512 17.9203 9.76856C18.0093 9.80606 18.7687 10.7061 20.2968 12.5857Z" fill="#EA4359"/>
<path id="Vector_2" d="M6.72644 3.02813C6.57176 3.06563 6.24363 3.19219 5.99988 3.31406C5.62957 3.49688 5.48894 3.6 5.15613 3.9375C4.69676 4.39688 4.49988 4.71094 4.29832 5.2875C4.16707 5.6625 4.15769 5.75156 4.15301 6.32813C4.14832 6.86719 4.16707 7.0125 4.25613 7.3125C4.62644 8.48906 5.47488 9.33281 6.63269 9.66563C6.92332 9.74531 7.12957 9.77344 7.54676 9.77344C8.20769 9.77344 8.46551 9.7125 9.08894 9.4125C9.51082 9.21094 9.63269 9.12188 9.95613 8.79375C10.6311 8.11875 10.9171 7.45781 10.9546 6.51563C10.9874 5.68594 10.8046 5.02969 10.3593 4.38281C9.90926 3.72656 9.14519 3.21563 8.33426 3.02344C7.95926 2.93438 7.10144 2.93906 6.72644 3.02813ZM8.35769 4.57969C8.89676 4.83281 9.29988 5.31094 9.44988 5.88281C9.80613 7.20469 8.62488 8.50781 7.26551 8.29219C6.84832 8.23125 6.49207 8.04844 6.18269 7.73906C5.15613 6.70781 5.53113 5.03906 6.90926 4.51406C7.14832 4.425 7.26551 4.40625 7.61707 4.42031C7.97801 4.42969 8.08582 4.45313 8.35769 4.57969Z" fill="#EA4359"/>
</g>
</g>
<defs>
<clipPath id="clip0_171_4069">
<rect width="24" height="24" fill="white"/>
</clipPath>
</defs>
</svg>
