<svg width="24" height="24" viewBox="0 0 24 24" fill="none" xmlns="http://www.w3.org/2000/svg">
<g id="home (2) 1" clip-path="url(#clip0_171_4033)">
<g id="Group">
<path id="Vector" d="M11.5781 0.0843735C11.4891 0.126562 8.88281 2.27812 5.78906 4.85625C1.40625 8.5125 0.145313 9.58125 0.084375 9.71719C0.0046875 9.88125 0 10.3125 0 16.6266V23.3578L0.117188 23.5594C0.1875 23.6812 0.31875 23.8125 0.440625 23.8828L0.642188 24H6.23438H11.8266L12.0281 23.8828C12.3234 23.7094 12.4688 23.4375 12.4688 23.0625C12.4688 22.6875 12.3234 22.4156 12.0281 22.2422L11.8266 22.125H6.85313H1.875L1.87969 16.3687V10.6172L6.94219 6.40781L12 2.19375L17.2359 6.5625C20.1188 8.96719 22.5609 10.9734 22.6641 11.0203C23.1375 11.2406 23.775 10.9969 23.9484 10.5328C24.0281 10.3312 24.0094 9.91406 23.9203 9.71719C23.8547 9.58125 22.5938 8.5125 18.2109 4.85625C15.1172 2.27812 12.5109 0.126562 12.4219 0.0843735C12.3234 0.0328121 12.1594 0 12 0C11.8406 0 11.6766 0.0328121 11.5781 0.0843735Z" fill="#EA4359"/>
<path id="Vector_2" d="M14.1327 12.8156C12.553 13.1297 11.428 14.3203 11.1046 16.0172C11.0202 16.4625 11.0764 17.5547 11.203 18.0469C11.7233 20.0156 13.378 21.8344 16.0499 23.3625C16.9733 23.8969 17.2218 24 17.5311 24C17.7889 24 17.8686 23.9719 18.3889 23.7047C21.0468 22.3219 22.8796 20.5875 23.6108 18.7687C23.9249 17.9953 23.9718 17.7375 23.9718 16.8047C23.9718 16.0172 23.9624 15.9328 23.8452 15.5484C23.3718 14.0156 22.2655 13.0219 20.7796 12.7969C19.8702 12.6562 18.7499 12.9187 17.9155 13.4719L17.5311 13.725L17.1468 13.4719C16.7436 13.2047 16.2233 12.9797 15.7405 12.8672C15.2999 12.7641 14.5218 12.7406 14.1327 12.8156ZM15.5202 14.8125C15.9327 14.9391 16.3452 15.2203 16.6968 15.6187C17.0249 15.9891 17.1843 16.0781 17.5311 16.0781C17.8546 16.0781 18.0702 15.9562 18.3889 15.5953C18.8952 15.0187 19.5421 14.7094 20.2499 14.7C20.6108 14.6953 20.6811 14.7094 20.953 14.8453C21.9186 15.3187 22.3218 16.4531 21.9561 17.6719C21.9139 17.8125 21.7874 18.1078 21.6749 18.3281C21.0421 19.5516 19.753 20.7281 17.878 21.7828L17.5405 21.975L17.2077 21.7922C16.2796 21.2906 15.3702 20.6391 14.6764 19.9875C13.1764 18.5766 12.6093 16.9594 13.1905 15.7734C13.453 15.2437 13.9171 14.85 14.4233 14.7188C14.6671 14.6578 15.1639 14.7 15.5202 14.8125Z" fill="#EA4359"/>
</g>
</g>
<defs>
<clipPath id="clip0_171_4033">
<rect width="24" height="24" fill="white"/>
</clipPath>
</defs>
</svg>
