<svg width="24" height="24" viewBox="0 0 24 24" fill="none" xmlns="http://www.w3.org/2000/svg">
<g id="wait 1">
<g id="Group">
<path id="Vector" d="M3.28129 23.8969C2.64847 23.4609 2.80785 22.5281 3.54379 22.3594C3.64222 22.3359 4.03597 22.3125 4.41566 22.3125H5.10004L5.12347 20.6156C5.14691 18.7734 5.16566 18.5813 5.46098 17.6625C5.62972 17.1141 6.13129 16.1344 6.5016 15.6094C6.91879 15.0234 7.94535 14.0016 8.63441 13.4859C8.93441 13.2609 9.23441 13.0078 9.30004 12.9234C9.64691 12.4688 9.64691 11.5312 9.30004 11.0766C9.23441 10.9922 8.93441 10.7391 8.63441 10.5141C7.94535 9.99844 6.91879 8.97656 6.5016 8.39062C6.13129 7.86563 5.62972 6.88594 5.46098 6.3375C5.16566 5.41875 5.14691 5.22656 5.12347 3.38438L5.10004 1.6875H4.41566C4.03597 1.6875 3.64222 1.66406 3.54379 1.64063C3.08441 1.5375 2.80316 1.0875 2.90629 0.6375C2.95785 0.4125 3.07504 0.248438 3.28129 0.107813L3.43597 0H12H20.5641L20.7188 0.107813C21.3516 0.539062 21.1922 1.47188 20.4563 1.64063C20.3579 1.66406 19.9641 1.6875 19.5844 1.6875H18.9L18.8766 3.38438C18.8532 5.22656 18.8344 5.41875 18.5391 6.3375C18.3704 6.88594 17.8688 7.86563 17.4985 8.39062C17.0813 8.97656 16.0547 9.99844 15.3657 10.5141C15.0657 10.7391 14.7657 10.9922 14.7 11.0766C14.3532 11.5312 14.3532 12.4688 14.7 12.9234C14.7657 13.0078 15.0657 13.2609 15.3657 13.4859C16.0547 14.0016 17.0813 15.0234 17.4985 15.6094C17.8688 16.1344 18.3704 17.1141 18.5391 17.6625C18.8344 18.5813 18.8532 18.7734 18.8766 20.6156L18.9 22.3125H19.5844C19.9641 22.3125 20.3579 22.3359 20.4563 22.3594C20.9157 22.4625 21.1969 22.9125 21.0938 23.3625C21.0422 23.5875 20.925 23.7516 20.7188 23.8969L20.5641 24H12H3.43597L3.28129 23.8969ZM17.1891 20.7328C17.1704 19.3547 17.1563 19.0922 17.0719 18.7219C16.7391 17.25 15.7875 15.9422 14.1938 14.7469C13.4063 14.1609 13.1344 13.8094 12.8813 13.0547C12.7875 12.7688 12.7735 12.6375 12.7735 12C12.7735 11.3625 12.7875 11.2313 12.8813 10.9453C13.1344 10.1859 13.4063 9.83438 14.1938 9.25313C15.3329 8.40938 16.3172 7.26094 16.7391 6.28125C17.1188 5.39531 17.2032 4.81875 17.2032 3.01406V1.6875H12H6.79691V3.01406C6.79691 4.81875 6.88129 5.39531 7.26098 6.28125C7.68285 7.26094 8.66722 8.40938 9.80629 9.25313C10.5938 9.83438 10.8657 10.1859 11.1188 10.9453C11.2125 11.2313 11.2266 11.3625 11.2266 12C11.2266 12.6375 11.2125 12.7688 11.1188 13.0547C10.8657 13.8094 10.5938 14.1609 9.80629 14.7469C8.21254 15.9422 7.26098 17.25 6.92816 18.7219C6.84379 19.0922 6.82973 19.3547 6.81098 20.7328L6.78754 22.3125H12H17.2125L17.1891 20.7328Z" fill="#EA4359"/>
</g>
</g>
</svg>
