<svg width="24" height="24" viewBox="0 0 24 24" fill="none" xmlns="http://www.w3.org/2000/svg">
<g id="profile (1) 1">
<g id="Group">
<path id="Vector" d="M11.1014 1.3956C7.68161 2.02719 5.869 5.71916 7.46081 8.81549C8.40049 10.6486 10.4647 11.7629 12.5084 11.537C13.2016 11.4599 13.674 11.3264 14.2851 11.0235C15.7074 10.32 16.6933 9.02602 17.0425 7.4034C17.14 6.94126 17.1246 5.8424 17.0117 5.34945C16.5803 3.45982 15.1477 1.9707 13.3094 1.49316C12.6573 1.32371 11.7125 1.28263 11.1014 1.3956ZM12.6932 3.09011C13.6894 3.2955 14.6034 4.00925 15.0501 4.92325C15.5842 6.01185 15.5431 7.19287 14.9423 8.18903C13.7767 10.1146 11.1579 10.4381 9.58151 8.8463C8.77534 8.02985 8.42103 6.90531 8.63156 5.83213C9.00127 3.94249 10.8344 2.69985 12.6932 3.09011Z" fill="#EA4359"/>
<path id="Vector_2" d="M8.20531 12.4664C6.91132 12.6153 5.62247 13.3291 4.82656 14.3304C3.80472 15.6244 3.45555 17.2521 3.85607 18.8337C4.09228 19.7785 4.51847 20.5076 5.24249 21.2162C6.00758 21.9659 6.90105 22.4229 7.9383 22.5975C8.66231 22.7208 15.3376 22.7208 16.0617 22.5975C18.0386 22.2637 19.6509 20.7746 20.1439 18.8388C20.9193 15.7887 18.8602 12.8156 15.7228 12.4613C15.1631 12.3997 8.75474 12.4048 8.20531 12.4664ZM16.0309 14.2225C17.3248 14.6025 18.2799 15.6141 18.5418 16.8875C18.701 17.6578 18.6086 18.3253 18.2337 19.0801C17.8281 19.9017 17.14 20.4922 16.2157 20.8208L15.8255 20.9595H12H8.1745L7.7329 20.8003C6.08974 20.2149 5.11925 18.5615 5.44788 16.9286C5.74571 15.4703 6.88051 14.3766 8.32855 14.1609C8.498 14.1352 10.2336 14.1198 12.1797 14.125C15.389 14.1352 15.7536 14.1404 16.0309 14.2225Z" fill="#EA4359"/>
</g>
</g>
</svg>
