<svg width="24" height="24" viewBox="0 0 24 24" fill="none" xmlns="http://www.w3.org/2000/svg">
<g id="language 1" clip-path="url(#clip0_171_4012)">
<g id="Group">
<path id="Vector" d="M1.42031 0.0937519C0.792188 0.318752 0.309375 0.806252 0.0890625 1.44375C0.0046875 1.69219 0 1.95 0 9.86719C0 17.7844 0.0046875 18.0422 0.0890625 18.2906C0.309375 18.9375 0.796875 19.425 1.43906 19.6453C1.6875 19.7297 1.85156 19.7344 4.86094 19.7344C6.59531 19.7344 8.01562 19.7484 8.01562 19.7672C8.02031 20.0672 8.3625 22.4109 8.42813 22.6031C8.65313 23.2359 9.17813 23.7328 9.83906 23.9344C10.0172 23.9859 11.0625 24 16.1766 24C22.1203 24 22.3078 23.9953 22.5609 23.9109C23.2031 23.6906 23.6906 23.2031 23.9109 22.5563C23.9953 22.3078 24 22.05 24 14.1328C24 6.16406 24 5.9625 23.9109 5.70469C23.6906 5.0625 23.2031 4.575 22.5563 4.35469C22.3078 4.27031 22.0969 4.26563 17.0297 4.26563C14.1375 4.26563 11.7656 4.25156 11.7656 4.22813C11.7609 3.93281 11.4188 1.58906 11.3531 1.39688C11.1281 0.764065 10.6031 0.267189 9.94219 0.0656261C9.76406 0.0140648 9.02344 1.90735e-06 5.69531 0.00468826C1.88906 0.00468826 1.65 0.0140648 1.42031 0.0937519ZM9.72188 1.56563C9.82031 1.64063 9.92813 1.76719 9.96094 1.84688C10.0078 1.95469 12.0469 18.0656 12.0469 18.2953C12.0469 18.3141 9.77344 18.3234 6.99844 18.3188L1.94531 18.3047L1.78125 18.2016C1.69219 18.1453 1.575 18.0281 1.52344 17.9438C1.42969 17.7891 1.42969 17.7047 1.42969 9.86719V1.94531L1.53281 1.78125C1.64531 1.59844 1.78125 1.5 1.99219 1.44844C2.07188 1.42969 3.80156 1.41563 5.84063 1.42031L9.54844 1.42969L9.72188 1.56563ZM22.2188 5.79844C22.3078 5.85469 22.425 5.97188 22.4766 6.05625C22.5703 6.21094 22.5703 6.29531 22.5703 14.1328C22.5703 21.9703 22.5703 22.0547 22.4766 22.2094C22.425 22.2938 22.3078 22.4109 22.2188 22.4672L22.0547 22.5703L16.4109 22.5844L10.7625 22.5938L10.8609 22.4906C11.325 21.975 13.3828 19.5656 13.4719 19.4297C13.5516 19.3172 13.5938 19.1859 13.5938 19.0734C13.5938 18.9797 13.2234 15.9281 12.7734 12.3047C12.3234 8.67656 11.9531 5.7 11.9531 5.69063C11.9531 5.67656 14.2266 5.67656 17.0063 5.68125L22.0547 5.69531L22.2188 5.79844ZM10.5141 20.6438C10.0828 21.1453 9.72188 21.5531 9.71719 21.5438C9.70781 21.5344 9.66094 21.1828 9.60938 20.7609C9.55781 20.3391 9.50625 19.9359 9.49219 19.8609L9.47344 19.7344H10.3875H11.3016L10.5141 20.6438Z" fill="#EA4359"/>
<path id="Vector_2" d="M5.23594 5.11406C5.1375 5.19844 5.03438 5.31562 5.00625 5.38594C4.91719 5.625 3.5625 12.4969 3.5625 12.7266C3.5625 13.1484 3.82969 13.4062 4.26094 13.4062C4.54688 13.4062 4.7625 13.2984 4.88438 13.0922C4.92656 13.0219 5.05781 12.4641 5.17969 11.8594C5.29688 11.2547 5.40469 10.7203 5.41875 10.6734C5.44219 10.6031 5.52656 10.5938 6.375 10.5938C7.22344 10.5938 7.30781 10.6031 7.33125 10.6734C7.34531 10.7203 7.45313 11.2547 7.57031 11.8594C7.69219 12.4641 7.82344 13.0219 7.86563 13.0922C7.9875 13.2984 8.20312 13.4062 8.48906 13.4062C8.92031 13.4062 9.1875 13.1484 9.1875 12.7266C9.1875 12.4969 7.83281 5.625 7.74375 5.38594C7.71563 5.31562 7.6125 5.19844 7.51406 5.11406L7.33594 4.96875H6.375H5.41406L5.23594 5.11406ZM6.49219 6.47812C6.52031 6.6 7.03125 9.15 7.03125 9.17344C7.03125 9.18281 6.73594 9.1875 6.375 9.1875C6.01406 9.1875 5.71875 9.18281 5.71875 9.17344C5.71875 9.15 6.22969 6.6 6.25781 6.47812C6.27188 6.41719 6.31875 6.375 6.375 6.375C6.43125 6.375 6.47813 6.41719 6.49219 6.47812Z" fill="#EA4359"/>
<path id="Vector_3" d="M17.2313 9.27656C16.9734 9.45 16.9219 9.58594 16.9219 10.1109V10.5937H15.7406C14.6578 10.5937 14.5453 10.6031 14.4188 10.6828C14.2031 10.8281 14.1094 11.0062 14.1094 11.2969C14.1094 11.7141 14.325 11.9578 14.7375 12L14.9625 12.0234L15.1125 12.4453C15.4125 13.275 15.8344 14.0578 16.3688 14.7656L16.6031 15.0703L16.3734 15.2719C16.2516 15.3844 15.8859 15.6891 15.5625 15.9469C15.2391 16.2047 14.9391 16.4719 14.8969 16.5375C14.7797 16.7109 14.7844 17.1375 14.9016 17.3156C15.0469 17.5359 15.225 17.625 15.525 17.625C15.8297 17.625 15.9188 17.5687 16.9875 16.6781C17.3203 16.3969 17.6063 16.1719 17.625 16.1719C17.6438 16.1719 17.9297 16.3969 18.2625 16.6781C19.3313 17.5687 19.4203 17.625 19.725 17.625C20.025 17.625 20.2031 17.5359 20.3484 17.3156C20.4656 17.1375 20.4703 16.7109 20.3531 16.5375C20.3109 16.4719 20.0109 16.2047 19.6875 15.9469C19.3641 15.6891 18.9984 15.3844 18.8766 15.2719L18.6469 15.0703L18.8813 14.7656C19.4156 14.0578 19.8375 13.275 20.1375 12.4453L20.2875 12.0234L20.5125 12C20.925 11.9578 21.1406 11.7141 21.1406 11.2969C21.1406 11.0062 21.0469 10.8281 20.8313 10.6828C20.7047 10.6031 20.5922 10.5937 19.5141 10.5937H18.3281V10.1109C18.3281 9.72187 18.3094 9.60938 18.2391 9.49687C18.0938 9.28125 17.9156 9.1875 17.625 9.1875C17.4516 9.1875 17.325 9.21562 17.2313 9.27656ZM18.7172 12.0797C18.5297 12.6047 17.7422 13.9687 17.625 13.9687C17.5078 13.9687 16.7203 12.6047 16.5328 12.0797C16.5047 12.0047 16.575 12 17.625 12C18.675 12 18.7453 12.0047 18.7172 12.0797Z" fill="#EA4359"/>
</g>
</g>
<defs>
<clipPath id="clip0_171_4012">
<rect width="24" height="24" fill="white"/>
</clipPath>
</defs>
</svg>
