<svg width="24" height="24" viewBox="0 0 24 24" fill="none" xmlns="http://www.w3.org/2000/svg">
<g id="history_1 1" clip-path="url(#clip0_171_3985)">
<g id="Group">
<path id="Vector" d="M12.3281 1.03086C7.85151 1.39648 4.12495 4.34492 2.74214 8.62461C2.64839 8.91992 2.56401 9.16836 2.55932 9.17773C2.54995 9.18242 2.37182 8.92461 2.1562 8.60117C1.94057 8.27773 1.69682 7.94961 1.61245 7.8793C1.14839 7.47148 0.398387 7.60742 0.107762 8.15117C-0.0188009 8.39492 -0.0375509 8.83555 0.0655741 9.0418C0.253074 9.39805 2.44214 12.6512 2.5687 12.759C2.77026 12.9277 3.01401 12.998 3.31401 12.9746C3.55776 12.9512 3.65151 12.8996 5.31089 11.784C6.26714 11.1418 7.11089 10.5652 7.1812 10.5043C7.51401 10.2277 7.60776 9.70273 7.39682 9.29492C7.19526 8.89648 6.64682 8.6668 6.22026 8.80742C6.1312 8.84023 5.70464 9.10273 5.27339 9.39805C4.83745 9.69336 4.47651 9.92773 4.46714 9.92305C4.4437 9.89492 4.64057 9.23867 4.78589 8.87305C5.41401 7.2793 6.42651 5.95742 7.78589 4.94492C11.3156 2.31523 16.2656 2.67617 19.3828 5.78867C21.0656 7.47148 21.9843 9.69805 21.9843 12.0934C21.9843 13.5934 21.6749 14.8449 20.9718 16.2184C20.5734 16.9871 20.1515 17.573 19.5281 18.2199C18.6843 19.0965 18.0187 19.584 16.9921 20.0855C13.9406 21.5715 10.4531 21.2246 7.72026 19.1621C7.19526 18.7684 6.41714 17.9809 5.98589 17.409C5.58276 16.8652 5.3812 16.734 4.98745 16.734C4.24682 16.7387 3.76401 17.5027 4.09214 18.1449C4.37339 18.7027 5.44682 19.898 6.25776 20.5543C7.46714 21.5387 8.95776 22.2887 10.4484 22.6637C12.2062 23.1043 14.0203 23.1043 15.7734 22.6637C18.389 22.0027 20.6671 20.3996 22.1671 18.1543C23.0296 16.8652 23.639 15.2809 23.8921 13.6871C24.0093 12.9324 24.0093 11.1652 23.8921 10.4059C23.3578 6.9793 21.3609 4.06836 18.389 2.39492C16.5843 1.37773 14.325 0.871483 12.3281 1.03086Z" fill="#EA4359"/>
<path id="Vector_2" d="M12.5717 6.05145C12.328 6.17332 12.1077 6.43113 12.0421 6.66551C12.0139 6.77801 11.9999 7.84207 12.0092 9.57176C12.0233 12.0233 12.0327 12.3186 12.103 12.4452C12.2342 12.6796 15.3186 15.7921 15.5342 15.9046C15.9842 16.1389 16.5983 15.9749 16.8467 15.5483C17.0108 15.2671 17.0389 15.0561 16.9499 14.7514C16.8796 14.5124 16.7952 14.4139 15.4499 13.0452L14.0202 11.5921L14.0061 9.13113L13.9921 6.67019L13.8514 6.4452C13.5796 6.00926 13.0124 5.83582 12.5717 6.05145Z" fill="#EA4359"/>
</g>
</g>
<defs>
<clipPath id="clip0_171_3985">
<rect width="24" height="24" fill="white"/>
</clipPath>
</defs>
</svg>
