<svg width="24" height="24" viewBox="0 0 24 24" fill="none" xmlns="http://www.w3.org/2000/svg">
<g id="help 1" clip-path="url(#clip0_171_4090)">
<g id="Group">
<path id="Vector" d="M7.82808 0.070631C6.46871 0.276882 5.18902 0.778444 4.04527 1.54251C1.87496 2.99563 0.44996 5.26907 0.065585 7.88001C-0.0516025 8.69094 -0.00472747 10.2238 0.159335 11.0066C0.328085 11.7941 0.56246 12.4738 0.91871 13.2097C1.08277 13.5472 1.21871 13.8472 1.21871 13.8706C1.21871 13.8941 0.946835 14.9019 0.609335 16.1066C0.276522 17.3113 0.00933502 18.305 0.0140225 18.3144C0.0233975 18.3191 1.01715 18.0519 2.22652 17.7191C3.4359 17.3816 4.43902 17.1097 4.46246 17.1097C4.48121 17.1097 4.78121 17.2456 5.11871 17.4097C5.77496 17.7284 6.37965 17.9441 7.01246 18.0988C7.45308 18.2019 8.28277 18.3284 8.55465 18.3284H8.74215L8.86402 18.7175C9.46402 20.6066 11.0203 22.3691 12.8625 23.2456C13.4296 23.5175 14.0578 23.7331 14.6953 23.8691C15.0984 23.9581 15.3093 23.9722 16.2421 23.9722C17.189 23.9769 17.3812 23.9628 17.7984 23.8691C18.4968 23.7191 19.0781 23.5175 19.6828 23.2222L20.2218 22.9597L22.0968 23.48C23.1281 23.7613 23.9765 23.9909 23.9859 23.9863C23.9906 23.9769 23.7609 23.1284 23.4796 22.0972L22.9593 20.2222L23.2218 19.6831C23.5218 19.0597 23.7187 18.5019 23.8687 17.8128C23.9625 17.3816 23.9765 17.1894 23.9765 16.2425C23.9765 15.3003 23.9625 15.1034 23.8687 14.6863C23.5218 13.1113 22.8562 11.8878 21.7265 10.7534C20.8312 9.85344 19.8328 9.22532 18.7453 8.87376L18.3421 8.74251L18.3093 8.32063C18.0375 4.79563 15.4828 1.57063 12.0703 0.445631C11.0812 0.122194 10.5609 0.0425072 9.35152 0.023756C8.5734 0.00969315 8.15152 0.023756 7.82808 0.070631ZM10.7015 1.59407C12.2437 1.91282 13.5843 2.65344 14.7 3.80188C15.75 4.88938 16.364 6.02376 16.7156 7.52376C16.8421 8.05344 16.8515 8.14719 16.8515 9.16438C16.8515 10.1816 16.8421 10.2753 16.7156 10.805C16.364 12.305 15.75 13.4394 14.7 14.5269C13.0781 16.2003 10.95 17.0159 8.60152 16.8659C7.39683 16.7909 6.12652 16.3738 5.07184 15.7222L4.73433 15.5113L3.44058 15.8675C2.72809 16.0644 2.13746 16.2144 2.1234 16.205C2.11402 16.1909 2.26402 15.6003 2.4609 14.8878L2.82184 13.5941L2.60621 13.2566C2.15621 12.53 1.7859 11.6066 1.58433 10.7019C1.49058 10.2988 1.48121 10.1066 1.48121 9.16438C1.48121 7.97844 1.53277 7.62688 1.83277 6.73626C2.20777 5.60657 2.77027 4.69251 3.62808 3.80188C4.74371 2.65344 6.07965 1.91282 7.62652 1.58938C8.52652 1.40188 9.78746 1.40188 10.7015 1.59407ZM19.0171 10.5753C20.5453 11.3113 21.7968 12.7738 22.2843 14.3956C22.4765 15.0425 22.5468 15.5253 22.5468 16.2144C22.5468 17.4988 22.2281 18.6003 21.5531 19.6738L21.3703 19.9644L21.6328 20.9066C21.7781 21.4269 21.8859 21.8628 21.8765 21.8769C21.8625 21.8863 21.4265 21.7784 20.9062 21.6331L19.964 21.3706L19.6734 21.5534C18.6 22.2331 17.4796 22.5566 16.2187 22.5519C14.6062 22.5519 13.0968 21.9472 11.9062 20.8269C11.3859 20.3394 10.8796 19.6503 10.575 19.0175C10.214 18.2722 10.214 18.2956 10.4859 18.2581C11.7421 18.08 13.1156 17.5597 14.2078 16.8378C16.4156 15.3847 17.8546 13.1159 18.2578 10.4628C18.2953 10.2191 18.2812 10.2191 19.0171 10.5753Z" fill="#EA4359"/>
<path id="Vector_2" d="M8.43271 4.28438C7.29834 4.60781 6.46396 5.5875 6.34678 6.73125L6.31396 7.03125H7.0499C7.7249 7.03125 7.78115 7.02656 7.78115 6.94688C7.78115 6.52969 8.19365 5.95313 8.62959 5.77031C9.16396 5.53594 9.75928 5.67656 10.1718 6.12656C10.5187 6.50625 10.6265 6.94688 10.4812 7.425C10.3874 7.73906 10.2702 7.87031 9.30459 8.76563L8.4374 9.57188V10.4344V11.2969H9.16396H9.89053V10.7625V10.2281L10.4437 9.72656C11.4093 8.83594 11.6015 8.59688 11.8358 7.96875C11.953 7.65938 11.9718 7.55156 11.9718 7.05469C11.9765 6.61875 11.9577 6.43125 11.8874 6.23438C11.578 5.31563 10.9546 4.66406 10.0968 4.35C9.75459 4.22344 8.77959 4.18594 8.43271 4.28438Z" fill="#EA4359"/>
<path id="Vector_3" d="M8.4375 13.4062V14.1094H9.16406H9.89062V13.4062V12.7031H9.16406H8.4375V13.4062Z" fill="#EA4359"/>
</g>
</g>
<defs>
<clipPath id="clip0_171_4090">
<rect width="24" height="24" fill="white"/>
</clipPath>
</defs>
</svg>
