<svg width="24" height="24" viewBox="0 0 24 24" fill="none" xmlns="http://www.w3.org/2000/svg">
<g id="save-energy 1">
<g id="Group">
<path id="Vector" d="M11.6015 0.834373C11.2827 1.03125 9.14991 3.92344 7.67335 6.16875C5.48897 9.4875 4.2421 12.0281 3.83897 13.9875C3.7546 14.4 3.74522 14.5687 3.76397 15.3281C3.7921 16.2891 3.87647 16.7906 4.14835 17.6062C4.99679 20.1562 7.0546 22.1625 9.59991 22.9172C10.4999 23.1844 10.8421 23.2266 12.0468 23.2266C13.2796 23.2219 13.6687 23.1656 14.6249 22.8469C17.5499 21.8719 19.7249 19.2891 20.1749 16.2562C20.2827 15.5344 20.2733 14.5406 20.1515 13.9547C19.8374 12.4125 18.8999 10.3312 17.3999 7.85156C15.9796 5.50312 12.7827 1.03125 12.3702 0.820312C12.1827 0.721874 11.7749 0.731249 11.6015 0.834373ZM12.5718 3.525C15.3796 7.27969 17.5827 10.9641 18.3374 13.1719C18.6046 13.9594 18.703 14.4609 18.703 15.0703C18.703 16.5609 18.2155 17.9531 17.2733 19.1437C14.9858 22.0547 10.814 22.5703 7.88897 20.3016C6.68429 19.3687 5.86397 18.1125 5.47491 16.5937C5.35772 16.1484 5.3296 15.9234 5.31085 15.3187C5.28741 14.6672 5.29679 14.5359 5.39054 14.1234C5.7796 12.4266 6.96085 10.0969 8.97179 7.03125C10.0265 5.42812 11.9062 2.8125 11.9999 2.8125C12.0187 2.8125 12.2765 3.13594 12.5718 3.525Z" fill="#EA4359"/>
<path id="Vector_2" d="M7.08736 14.3436C7.00299 14.3952 6.89517 14.503 6.83892 14.5874C6.74986 14.728 6.74517 14.7936 6.76861 15.328C6.79205 16.0124 6.89986 16.4905 7.16236 17.0999C7.67799 18.2999 8.69986 19.3218 9.89986 19.8374C10.5092 20.0999 10.9874 20.2077 11.6717 20.2311C12.2061 20.2546 12.2717 20.2499 12.4124 20.1608C12.642 20.0155 12.7499 19.7999 12.7499 19.4999C12.7499 19.0077 12.4967 18.7733 11.9108 18.7265C11.2967 18.6796 10.8749 18.5671 10.3827 18.328C9.10767 17.7093 8.39986 16.6124 8.26861 15.0421C8.24049 14.6858 8.13267 14.4796 7.91236 14.3436C7.70142 14.2171 7.2983 14.2171 7.08736 14.3436Z" fill="#EA4359"/>
</g>
</g>
</svg>
