<svg width="24" height="24" viewBox="0 0 24 24" fill="none" xmlns="http://www.w3.org/2000/svg">
<g id="swap 1">
<g id="Group">
<path id="Vector" d="M6.6329 21.9611C6.49227 21.9048 6.04227 21.4877 4.81415 20.2595C3.91415 19.3642 3.14071 18.5533 3.08915 18.4595C2.97665 18.2392 2.96727 17.7752 3.07509 17.5642C3.33759 17.0439 3.95165 16.833 4.46727 17.0908C4.54696 17.133 4.92665 17.4752 5.31102 17.8502L6.00009 18.5392V10.6267C6.00009 2.84547 6.00009 2.71422 6.09384 2.53609C6.44071 1.85172 7.40165 1.79547 7.85165 2.42828L7.99227 2.63453L8.00634 10.5845L8.01571 18.5345L8.75634 17.808C9.39384 17.1752 9.5204 17.0673 9.71259 17.0158C10.3407 16.847 10.9595 17.2689 11.0063 17.9017C11.0438 18.4127 11.0626 18.3892 9.28602 20.1705C8.36727 21.0986 7.58446 21.8439 7.48134 21.9002C7.24227 22.022 6.87196 22.0502 6.6329 21.9611Z" fill="#EA4359"/>
<path id="Vector_2" d="M16.6783 21.9658C16.4111 21.8721 16.2799 21.769 16.1345 21.5533L16.008 21.3565L15.9939 13.4111L15.9845 5.46583L15.2439 6.19239C14.6064 6.8252 14.4799 6.93302 14.2877 6.98458C13.6595 7.15333 13.0408 6.73145 12.9939 6.09864C12.9564 5.5877 12.9377 5.61114 14.7142 3.82989C15.6049 2.92989 16.4111 2.15645 16.5095 2.10489C16.7533 1.97833 17.0299 1.94552 17.2877 2.01583C17.4892 2.07208 17.6533 2.21739 19.1627 3.72208C20.0767 4.62677 20.8595 5.44708 20.9111 5.54083C21.0236 5.76114 21.033 6.2252 20.9252 6.43614C20.6627 6.95645 20.0486 7.16739 19.533 6.90958C19.4533 6.86739 19.0736 6.5252 18.6939 6.1502L18.0002 5.46114V13.3736C18.0002 21.0658 17.9955 21.2908 17.9111 21.4596C17.672 21.9236 17.1517 22.1346 16.6783 21.9658Z" fill="#EA4359"/>
</g>
</g>
</svg>
