<svg width="24" height="24" viewBox="0 0 24 24" fill="none" xmlns="http://www.w3.org/2000/svg">
<g id="shield 1">
<g id="Group">
<path id="Vector" d="M11.4702 0.112499C11.1702 0.239061 11.0343 0.332811 10.5937 0.735937C10.2093 1.0875 9.6421 1.50937 9.18741 1.79062C7.82804 2.625 6.41241 3.05625 4.47648 3.23438C4.08741 3.27187 3.7546 3.32812 3.55304 3.39844C2.73741 3.67969 2.12335 4.35938 1.89835 5.22656C1.83741 5.45156 1.81866 5.91094 1.79523 7.45312C1.75773 9.99844 1.84679 11.5266 2.13273 13.2328C2.75616 16.9641 4.46241 19.8 7.31241 21.8297C8.69523 22.8141 11.2593 24 11.9999 24C12.4218 24 13.5468 23.5734 14.789 22.9453C16.0968 22.2844 16.9968 21.6703 17.9859 20.7703C19.6218 19.2844 20.8499 17.2312 21.4874 14.9203C22.0499 12.8812 22.2515 10.7578 22.2046 7.38281C22.1812 5.90156 22.1624 5.44687 22.1015 5.22656C21.8765 4.35938 21.2624 3.67969 20.4468 3.39844C20.2452 3.32812 19.9124 3.27187 19.5233 3.23438C16.8843 2.99531 15.1499 2.27344 13.3124 0.651562C12.7921 0.192186 12.4734 0.0328121 12.0468 0.014061C11.8077 0 11.6859 0.0234375 11.4702 0.112499ZM12.4968 1.80937C14.3999 3.49687 16.439 4.35 19.2187 4.61719C19.7905 4.67344 19.9874 4.71094 20.1562 4.79531C20.3952 4.92188 20.6437 5.22187 20.7187 5.475C20.7937 5.75156 20.8312 9.15937 20.7702 10.2422C20.7093 11.2594 20.6202 12.1453 20.5077 12.8438C19.828 16.9922 17.7937 19.8469 14.2124 21.6703C13.364 22.1016 12.2202 22.5656 11.9999 22.5656C11.9109 22.5656 11.5312 22.4437 11.1562 22.2937C6.65616 20.4891 4.21398 17.4469 3.47335 12.7266C3.24835 11.2828 3.21085 10.6219 3.21554 8.08594C3.22023 6.39844 3.23429 5.63906 3.27648 5.49844C3.35148 5.22187 3.59523 4.92188 3.84366 4.79531C4.01241 4.71094 4.20929 4.67344 4.78116 4.61719C7.56085 4.35 9.59991 3.49687 11.503 1.80937C11.7515 1.58906 11.9765 1.40625 11.9999 1.40625C12.0234 1.40625 12.2484 1.58906 12.4968 1.80937Z" fill="#EA4359"/>
<path id="Vector_2" d="M11.695 6.0332C9.08877 6.17383 6.89033 7.96914 6.22002 10.5004C5.97158 11.4191 5.97158 12.5816 6.22002 13.5004C6.82471 15.7785 8.67627 17.4848 10.9778 17.8832C11.5403 17.9816 12.4591 17.9816 13.0216 17.8832C15.3231 17.4848 17.1747 15.7785 17.7794 13.5004C18.0325 12.5488 18.0278 11.4098 17.7606 10.4301C17.3153 8.79414 16.1716 7.40195 14.6481 6.64727C13.7622 6.20664 12.6653 5.98164 11.695 6.0332ZM12.7685 7.50508C13.6263 7.62695 14.4747 8.06289 15.1731 8.7332C16.0825 9.60977 16.5513 10.7207 16.5513 12.0004C16.5513 13.2801 16.0872 14.3863 15.1731 15.2676C14.2731 16.1395 13.2466 16.552 11.9997 16.552C10.7528 16.552 9.72627 16.1395 8.82627 15.2676C7.91221 14.3863 7.44814 13.2848 7.44814 12.0004C7.44814 10.716 7.91221 9.61445 8.82627 8.7332C9.91377 7.68789 11.2028 7.28477 12.7685 7.50508Z" fill="#EA4359"/>
<path id="Vector_3" d="M13.9451 10.0029C13.8701 10.0404 13.1717 10.7013 12.3983 11.4794C11.6248 12.2576 10.9733 12.8904 10.9498 12.8904C10.9217 12.8904 10.7014 12.6935 10.4529 12.4497C9.93732 11.9435 9.80138 11.8826 9.44044 12.0232C9.06076 12.1685 8.88263 12.6232 9.06544 12.9747C9.10294 13.0451 9.46857 13.4294 9.87638 13.8372C10.4858 14.4372 10.6498 14.5779 10.7904 14.6013C11.1701 14.6716 11.1561 14.681 13.0217 12.8294C13.9826 11.8685 14.8029 11.0294 14.8404 10.9591C14.8779 10.8888 14.9061 10.7388 14.9061 10.6263C14.9061 10.1341 14.3904 9.8013 13.9451 10.0029Z" fill="#EA4359"/>
</g>
</g>
</svg>
