<svg width="24" height="24" viewBox="0 0 24 24" fill="none" xmlns="http://www.w3.org/2000/svg">
<g id="headset 1">
<g id="Group">
<path id="Vector" d="M11.3907 2.41836C9.99381 2.58242 8.96256 2.90586 7.97818 3.48711C5.61099 4.88398 4.21881 7.18086 4.00318 10.0355L3.97974 10.3965L3.75474 10.4246C3.42662 10.4668 3.07974 10.659 2.81724 10.9496C2.40006 11.4043 2.41412 11.2965 2.41412 14.4371V17.1793L2.54068 17.4465C2.77974 17.9574 3.23912 18.2949 3.80631 18.3793C4.22349 18.4355 6.27193 18.4309 6.56256 18.3699C6.86724 18.3043 7.09224 18.0934 7.16724 17.798C7.24693 17.4746 7.23756 13.6824 7.15318 13.2137C7.05474 12.6605 6.89537 12.3371 6.22974 11.3387L5.61099 10.4059L5.62037 10.0402C5.66724 8.43711 6.54381 6.6418 7.79537 5.57773C9.02818 4.53242 10.4157 4.0168 12.0001 4.0168C14.4657 4.01211 16.6219 5.35273 17.7329 7.56992C18.1032 8.31055 18.3094 9.08398 18.3704 9.93711L18.4032 10.3824L17.761 11.348C16.7672 12.848 16.786 12.773 16.7813 15.7074V17.8449L16.3688 18.2434C15.8954 18.698 15.436 19.0215 14.836 19.3215C13.7954 19.8418 12.8954 20.0152 11.2454 20.0152H10.4063V20.8168V21.623L11.6391 21.5949C12.9282 21.5715 13.3126 21.5246 14.1329 21.3043C15.586 20.9105 17.0016 20.0199 18.0047 18.8668L18.3891 18.4215H19.1438C20.0344 18.4215 20.4094 18.3746 20.7094 18.2293C21.0047 18.084 21.3094 17.7699 21.4594 17.4465L21.586 17.1793V14.4371C21.586 11.8965 21.5813 11.6762 21.5016 11.4465C21.3282 10.959 20.761 10.4902 20.2454 10.4246C20.0251 10.3965 20.0251 10.3965 19.9969 10.1809C19.9829 10.0684 19.9688 9.88086 19.9688 9.77305C19.9688 9.39805 19.7813 8.46992 19.5891 7.90273C18.5063 4.65898 15.6141 2.50742 12.211 2.41836C11.8501 2.4043 11.4797 2.40898 11.3907 2.41836ZM5.11412 12.5527C5.31099 12.8527 5.49849 13.1715 5.52662 13.2605C5.55943 13.3637 5.57818 13.9918 5.57818 15.098V16.7809H4.78131H3.98443V14.3902V11.9996H4.37349H4.75787L5.11412 12.5527ZM20.0157 14.3902V16.7809H19.2188H18.4219V15.098C18.4219 13.9918 18.4407 13.3637 18.4735 13.2605C18.5016 13.1715 18.6891 12.8527 18.886 12.5527L19.2422 11.9996H19.6313H20.0157V14.3902Z" fill="#EA4359"/>
<path id="Vector_2" d="M11.2313 5.24961C10.2563 5.4043 9.09375 5.96211 8.52188 6.54805L8.34375 6.73086L8.76563 7.14805L9.18281 7.56055L9.36094 7.40117C10.4906 6.3793 12.2625 6.12148 13.6641 6.76836C14.0438 6.9418 14.3625 7.14805 14.6391 7.40117L14.8172 7.56055L15.2344 7.14805L15.6563 6.73086L15.4781 6.54805C15.0234 6.08398 14.0578 5.56367 13.2797 5.36211C12.7641 5.22617 11.7281 5.17461 11.2313 5.24961Z" fill="#EA4359"/>
</g>
</g>
</svg>
