<svg width="87" height="87" viewBox="0 0 87 87" fill="none" xmlns="http://www.w3.org/2000/svg">
<g id="play-button-_1_ 1" clip-path="url(#clip0_138_3523)">
<g id="Group">
<path id="Vector" d="M40.4415 0.10215C40.1187 0.136139 39.1161 0.255081 38.2325 0.340042C32.6251 0.951759 26.4229 3.05879 21.4103 6.04942C15.0382 9.85567 9.85557 15.0383 6.04932 21.4104C3.07568 26.3721 1.10459 32.1494 0.305957 38.2326C0.034082 40.3227 0.034082 46.6777 0.305957 48.7678C1.10459 54.851 3.07568 60.6283 6.04932 65.5901C9.85557 71.9621 15.0382 77.1447 21.4103 80.951C32.795 87.7479 47.0345 88.8524 59.5577 83.9076C61.4608 83.16 65.539 81.0869 66.3716 80.4582C67.2212 79.8125 67.697 78.674 67.578 77.5356C67.3911 75.8193 66.2356 74.6639 64.5194 74.477C63.6698 74.392 63.5339 74.443 61.3419 75.5815C55.5985 78.5721 50.6878 79.9315 44.7745 80.1524C28.6319 80.7811 13.7298 70.3649 8.68311 54.9529C7.05186 49.9572 6.47412 45.0125 6.96689 40.0848C7.52764 34.4774 9.61768 28.2922 12.4044 24.0611C17.3491 16.4996 23.9761 11.317 32.0474 8.68321C39.7278 6.16837 47.2724 6.16837 54.9528 8.68321C65.9638 12.2856 74.7147 21.0365 78.3171 32.0475C81.7325 42.4977 80.4411 53.2707 74.5958 62.8713C73.3214 64.9783 73.1685 65.743 73.7462 67.0854C74.239 68.2068 75.2415 68.9545 76.4479 69.1074C77.1106 69.1754 77.4675 69.1244 78.1981 68.7846C78.9798 68.4277 79.2517 68.1729 79.8974 67.1703C85.4538 58.7422 87.9177 48.1051 86.6603 38.0627C84.978 24.7748 77.2296 12.9992 65.5899 6.04942C60.6792 3.10977 54.8169 1.10469 48.9376 0.340042C47.4423 0.136139 41.495 -0.0167923 40.4415 0.10215Z" fill="#BEBEBE"/>
<path id="Vector_2" d="M34.834 24.8085C32.0813 25.3013 29.9403 27.0685 28.8358 29.7362C28.4619 30.6708 28.4619 30.6708 28.411 42.9732C28.377 51.4183 28.428 55.5644 28.5469 56.1931C29.3625 60.0843 33.2537 62.803 37.145 62.1913C37.7737 62.0894 38.5383 61.9025 38.8442 61.7665C39.167 61.6306 43.9418 58.9118 49.4813 55.7003C55.9723 51.928 59.8295 49.6001 60.3903 49.0903C63.6868 46.0827 63.6868 40.9171 60.3903 37.9095C59.3877 37.0089 39.8467 25.5901 38.4873 25.1314C37.4168 24.7575 35.8366 24.6216 34.834 24.8085ZM38.4194 32.7439C48.9545 38.7931 55.9213 42.9222 56.0063 43.1941C56.0573 43.364 56.0573 43.6359 56.0063 43.8058C55.9383 43.9927 52.0471 46.3376 46.3377 49.6511C41.0871 52.6927 36.6182 55.2755 36.3973 55.3944C36.0744 55.5474 35.9215 55.5304 35.5817 55.3095L35.1739 55.0546V43.4999V31.9622L35.5477 31.7073C35.7516 31.5544 35.9725 31.4355 36.0235 31.4355C36.0744 31.4355 37.145 32.0302 38.4194 32.7439Z" fill="#BEBEBE"/>
</g>
</g>
<defs>
<clipPath id="clip0_138_3523">
<rect width="87" height="87" fill="white"/>
</clipPath>
</defs>
</svg>
